<svg width="20" height="20" viewBox="0 0 20 20" fill="none" xmlns="http://www.w3.org/2000/svg">
<path fill-rule="evenodd" clip-rule="evenodd" d="M4 4C3.44772 4 3 4.44772 3 5C3 5.55228 3.44772 6 4 6H16C16.5523 6 17 5.55228 17 5C17 4.44772 16.5523 4 16 4H4ZM3 10C3 9.44772 3.44772 9 4 9H16C16.5523 9 17 9.44772 17 10C17 10.5523 16.5523 11 16 11H4C3.44772 11 3 10.5523 3 10ZM3 15C3 14.4477 3.44772 14 4 14H16C16.5523 14 17 14.4477 17 15C17 15.5523 16.5523 16 16 16H4C3.44772 16 3 15.5523 3 15Z" fill="#999999"/>
</svg>
