<?xml version="1.0" encoding="utf-8"?>
<!-- Generator: Adobe Illustrator 24.1.0, SVG Export Plug-In . SVG Version: 6.00 Build 0)  -->
<svg fill="#fff" version="1.1" id="Layer_1" xmlns="http://www.w3.org/2000/svg" xmlns:xlink="http://www.w3.org/1999/xlink" x="0px" y="0px"
	 viewBox="0 0 300 300" style="enable-background:new 0 0 300 300;" xml:space="preserve">
<path d="M94.06,119.04c0-30.43,24.79-55.22,55.22-55.22c30.8,0,55.22,24.79,55.22,55.22s-24.79,55.22-55.22,55.22
	C118.86,174.26,94.06,149.47,94.06,119.04z M296.16,150.43c0,80.55-65.53,146.08-146.08,146.08S4,230.98,4,150.43
	C4,69.88,69.53,4.35,150.08,4.35S296.16,69.88,296.16,150.43z M13.81,150.43c0,33.11,11.88,63.48,31.58,87.12l2.84-5.44
	c9.02-18.03,24.79-28.55,42.08-28.55h117.96c17.28,0,33.06,10.89,42.08,28.55l3.43,6.58c20.29-23.8,32.57-54.61,32.57-88.26
	c0-75.14-61.13-136.27-136.27-136.27S13.81,75.29,13.81,150.43z"/>
</svg>