<?xml version="1.0" encoding="UTF-8" standalone="no"?> <svg xmlns:inkscape="http://www.inkscape.org/namespaces/inkscape" xmlns:sodipodi="http://sodipodi.sourceforge.net/DTD/sodipodi-0.dtd" xmlns="http://www.w3.org/2000/svg" xmlns:svg="http://www.w3.org/2000/svg" version="1.1" id="svg2" width="406.66666" height="393.33334" viewBox="0 0 406.66666 393.33334" sodipodi:docname="WB_ShieldOnly_Outline_OnDark_AllWhite_RGB.eps"><defs id="defs6"></defs><g id="g8" inkscape:groupmode="layer" inkscape:label="ink_ext_XXXXXX" transform="matrix(1.3333333,0,0,-1.3333333,0,393.33333)"><g id="g10" transform="scale(0.1)"><path d="M 2832.69,1978.34 C 2812.77,1842.07 2748.68,1396.79 2423.02,959.762 2091.75,509.738 1656.19,291.41 1524.77,224.23 1393.35,291.41 957.789,509.738 626.523,959.762 300.863,1396.79 236.773,1842.07 216.848,1978.34 l 197.882,106.14 v 147.21 l 196.086,106.21 v 147.12 c 271.286,129.35 570.144,214.42 913.954,260.11 343.81,-45.69 642.67,-130.76 913.95,-260.11 V 2337.9 l 196.09,-106.21 v -147.21 z m -20.75,211.86 v 146.71 l -196.09,106.22 v 153.42 l -100.58,47.91 c -285.83,136.3 -601.89,227.31 -966.45,275.75 l -23.82,3.21 -23.82,-3.21 C 1136.63,2871.77 820.559,2780.76 534.734,2644.46 L 434.148,2596.55 V 2443.13 L 238.063,2336.91 V 2190.2 L 25,2075.92 41.8438,1954.14 C 98.293,1545.52 247.266,1175.71 484.441,854.762 724.137,530.48 1047.71,265.16 1446.14,66.0195 l 78.86,-39.4414 78.86,39.4414 c 398.44,199.1405 722.01,464.4605 961.7,788.7425 237.17,320.948 386.15,690.758 442.6,1099.378 l 16.84,121.78 -213.06,114.28" style="fill:#ffffff;fill-opacity:1;fill-rule:nonzero;stroke:none" id="path12"></path><path d="m 1231.7,2391.05 9.11,-1196.89 -8.45,-4.93 c -126.7,320.23 -202.24,719.89 -226.05,1120.65 -62.22,-27.95 -128.236,-62.58 -195.88,-105.44 27.34,-363.61 89.465,-681.76 201.15,-983.74 l -63.189,-36.61 C 780.938,1418.6 671.535,1703.8 596.402,2042.11 544.676,1995.65 493.301,1943.58 443.199,1885.23 541.379,1479.17 695.891,1171.51 921.758,921.02 L 1095.86,1025.1 C 1181.14,847.371 1301,671.98 1432.64,531.801 V 2426.54 c -67.04,-6.52 -133.31,-18.09 -200.94,-35.49" style="fill:#ffffff;fill-opacity:1;fill-rule:nonzero;stroke:none" id="path14"></path><path d="M 2060.45,1149.21 C 2004.4,1084.59 1912.6,986.039 1813.27,909.27 v 543.66 c 0,0 359.97,202.57 373.18,211.22 107.75,-27.29 102.28,-106.55 102.28,-114.78 -0.11,-99.83 -102.14,-254.37 -228.28,-400.16 z m -247.18,1050.75 c 98.06,0 415.29,-100.31 415.29,-226.98 0,-45.66 -40.29,-111.09 -165.78,-176.99 l -249.51,-133.8 z m 539.21,-425.91 c 70.95,78.56 86.06,135.73 86.06,204.87 0,97.88 -80.85,184.97 -198.45,259.81 -71.04,45.2 -179.77,99.96 -338.34,144.15 -91.23,24.51 -186.38,39.4 -284.28,43.66 V 531.801 c 398.23,205.031 871.67,766.839 874.06,1052.669 0.74,87.39 -45.4,144.51 -139.05,189.58" style="fill:#ffffff;fill-opacity:1;fill-rule:nonzero;stroke:none" id="path16"></path><path d="m 1845.12,79.8008 h -19.94 V 86 h 46.69 v -6.1992 h -19.94 V 26.5781 h -6.81 v 53.2227" style="fill:#ffffff;fill-opacity:1;fill-rule:nonzero;stroke:none" id="path18"></path><path d="m 1884.46,86 h 6.8 L 1912.88,53.5703 1934.53,86 h 6.8 V 26.5781 h -6.72 v 48.1211 l -21.62,-31.8281 h -0.35 l -21.65,31.75 v -48.043 h -6.53 V 86" style="fill:#ffffff;fill-opacity:1;fill-rule:nonzero;stroke:none" id="path20"></path></g></g></svg> 