<?xml version="1.0" encoding="UTF-8" standalone="no"?> <svg xmlns:inkscape="http://www.inkscape.org/namespaces/inkscape" xmlns:sodipodi="http://sodipodi.sourceforge.net/DTD/sodipodi-0.dtd" xmlns="http://www.w3.org/2000/svg" xmlns:svg="http://www.w3.org/2000/svg" version="1.1" id="svg2" width="796.83466" height="218.104" viewBox="0 0 796.83466 218.104" sodipodi:docname="Max_Primary_WHT_RGB NoTM.ai"><defs id="defs6"><clipPath id="clipPath16"><path d="M 0,163.578 H 597.626 V 0 H 0 Z" id="path14"></path></clipPath></defs><g id="g8" inkscape:groupmode="layer" inkscape:label="Max_Primary_WHT_RGB NoTM" transform="matrix(1.3333333,0,0,-1.3333333,0,218.104)"><g id="g10"><g id="g12" clip-path="url(#clipPath16)"><g id="g18" transform="translate(411.7899,4.1415)"><path d="M 0,0 H 51.507 C 63.671,19.67 77.387,37.53 93.177,54.354 108.707,37.53 121.648,19.67 133.811,0 h 52.025 c -17.859,27.176 -37.271,53.06 -60.566,78.681 23.036,24.59 42.707,49.955 60.566,76.614 H 134.849 C 122.165,135.625 108.449,119.06 93.177,102.754 77.646,119.06 63.93,135.625 51.507,155.295 H 0 C 17.6,127.86 37.53,103.271 60.825,78.681 37.53,53.06 17.6,26.4 0,0" style="fill:#ffffff;fill-opacity:1;fill-rule:nonzero;stroke:none" id="path20"></path></g><g id="g22" transform="translate(281.8599,81.7888)"><path d="M 0,0 C 0,-19.67 15.789,-35.459 35.2,-35.459 54.612,-35.459 70.401,-19.67 70.401,0 70.401,19.67 54.612,35.459 35.2,35.459 15.789,35.459 0,19.67 0,0 m -10.611,0 c 0,25.365 20.446,45.812 45.811,45.812 25.364,0 45.812,-20.447 45.812,-45.812 0,-25.365 -20.448,-45.813 -45.812,-45.813 -25.365,0 -45.811,20.448 -45.811,45.813 m 39.34,-81.789 c 20.965,0 39.082,7.765 53.06,24.589 v -20.446 h 40.635 V 77.646 H 81.789 V 57.2 C 67.811,74.024 49.694,81.789 28.729,81.789 -13.716,81.789 -48.918,45.295 -48.918,0 c 0,-45.295 35.202,-81.789 77.647,-81.789" style="fill:#ffffff;fill-opacity:1;fill-rule:nonzero;stroke:none" id="path24"></path></g><g id="g26" transform="translate(0,4.1415)"><path d="m 0,0 h 42.707 v 96.541 c 18.635,14.754 27.177,19.411 34.165,19.411 8.28,0 13.717,-5.175 13.717,-18.117 V 0 h 42.705 v 96.8 c 18.637,14.495 26.918,19.152 34.166,19.152 8.282,0 13.719,-5.175 13.719,-18.117 V 0 h 42.705 v 112.847 c 0,34.942 -19.93,46.589 -39.083,46.589 -16.306,0 -32.87,-6.73 -54.612,-23.293 -6.989,17.339 -22.258,23.293 -35.977,23.293 -16.307,0 -32.87,-7.249 -54.093,-23.552 v 19.411 H 0 Z" style="fill:#ffffff;fill-opacity:1;fill-rule:nonzero;stroke:none" id="path28"></path></g></g></g></g></svg> 