<?xml version="1.0" encoding="UTF-8"?> <svg xmlns:cc="http://creativecommons.org/ns#" xmlns:dc="http://purl.org/dc/elements/1.1/" xmlns:inkscape="http://www.inkscape.org/namespaces/inkscape" xmlns:sodipodi="http://sodipodi.sourceforge.net/DTD/sodipodi-0.dtd" xmlns:rdf="http://www.w3.org/1999/02/22-rdf-syntax-ns#" xmlns:svg="http://www.w3.org/2000/svg" xmlns="http://www.w3.org/2000/svg" xmlns:xlink="http://www.w3.org/1999/xlink" version="1.1" id="svg8" sodipodi:docname="New Line Cinema 2011 Print Logo.svg" inkscape:version="1.1 (c68e22c387, 2021-05-23)" x="0px" y="0px" viewBox="0 0 814.7 429.7" style="enable-background:new 0 0 814.7 429.7;" xml:space="preserve"> <style type="text/css"> .st0{fill:#FFFFFF;} </style> <g id="layer1" transform="translate(-3.1212598,-120.33673)" inkscape:groupmode="layer" inkscape:label="Layer 1"> <path id="path236" class="st0" d="M392.5,120.3l-7.5,7.6l11.5,11.6c1.5,1.5,1.5,4,0,5.5l-12,12c-1.5,1.5-4,1.5-5.5,0l-11.5-11.6 c-0.3,0.4-4.1,4.2-7.8,7.8c5.2,5.2,20.7,20.7,20.7,20.7c-13.3,0-29.9,0-46.4,0v0h-35.2l-0.2,12.8c0,2.2-1.7,3.9-3.9,3.9h-17 c-2.2,0-3.9-1.7-3.9-3.9v-12.8c-6.1,0.2-10.9,5.1-11,11.3L263,445c0.6,5.6,5.1,9.9,10.9,10.1V442c0-2.2,1.7-3.9,3.9-3.9h17 c2.2,0,3.9,1.7,3.9,3.9v13.1h106.2l121.5-0.1c6-0.3,10.8-5.2,10.8-11.3l0-113.2l21,21l7.7-7.6l-11.4-11.5c-1.6-1.6-1.6-4,0-5.6 l12-12c1.5-1.5,4.1-1.8,5.3-0.2l9.2,9.4l2.3,2.2l7.8-7.6c-16.1-16.3-37.4-37.4-53.9-53.8c0,0-0.1-0.1-0.1-0.1l0.1-52.9v-26.6 c0-6.3-5.1-11.3-11.3-11.3h-31.4v0l-48.2,0L392.5,120.3z M427.5,172c1,0,2,0.4,2.8,1.1l0.8,0.8l12.9,12.9c0.4,0.4,0.7,0.8,0.8,1.3 c0.2,0.5,0.3,1,0.3,1.5s-0.1,1-0.3,1.5c-0.2,0.5-0.5,0.9-0.8,1.3l-10,10l-2,2c-1.6,1.5-4.1,1.5-5.6,0l-2-2l-11.7-11.7 c-0.4-0.4-0.7-0.8-0.9-1.3c-0.2-0.5-0.3-1-0.3-1.5s0.1-1,0.3-1.5c0.2-0.5,0.5-0.9,0.9-1.3l11.2-11.2l0.8-0.8 C425.5,172.3,426.5,172,427.5,172L427.5,172z M474.8,219.2c1,0,2,0.4,2.8,1.1l13.7,13.7c1.5,1.5,1.5,4,0,5.6l-7.1,7.1l-4.9,4.9 c-1.6,1.5-4,1.5-5.6,0L460,237.9c-1.5-1.5-1.5-4.1,0-5.6l12-12C472.7,219.6,473.7,219.2,474.8,219.2z M277.7,233.9h17 c2.2,0,3.9,1.7,3.9,4v19.3c0,2.2-1.7,3.9-3.9,3.9h-17c-2.2,0-3.9-1.8-3.9-3.9v-19.3C273.8,235.7,275.5,233.9,277.7,233.9z M521.9,266.5C521.9,266.5,521.9,266.5,521.9,266.5c1,0,2,0.4,2.7,1.2l13.7,13.7c1.6,1.5,1.6,4,0,5.5l-1.3,1.3l-10.7,10.7 c-1.5,1.5-4,1.5-5.5,0l-13.7-13.7c-1.5-1.5-1.5-4,0-5.6l12-12C519.9,266.9,520.9,266.5,521.9,266.5 C521.9,266.5,521.9,266.5,521.9,266.5L521.9,266.5z M277.7,300.8h17c2.2,0,3.9,1.7,3.9,3.9v19.4c0,2.2-1.7,4-3.9,4h-17 c-2.2,0-3.9-1.8-3.9-4v-19.4C273.8,302.5,275.5,300.8,277.7,300.8z M277.7,367.6h17c2.2,0,3.9,1.8,3.9,3.9v19.4 c0,2.2-1.7,3.9-3.9,3.9h-17c-2.2,0-3.9-1.7-3.9-3.9v-19.4C273.8,369.4,275.5,367.6,277.7,367.6z"></path> <g id="g6922" transform="matrix(0.12051875,0,0,0.12051875,-23.435761,88.744368)"> <path id="path6801" class="st0" d="M1217.2,3448.1l110.1,379.8h36.1l106.4-328.4l106.4,328.4h36.1l110.1-379.8h-55.9l-73.1,293.8 l-96.3-293.8h-10.7h-33.3h-10.7l-96.3,293.8l-73.1-293.8H1217.2z"></path> <path id="path6803" class="st0" d="M220.4,3448.1h32.1l232.5,283.5v-283.5h48.2v372.3H501l-232.4-283.5v283.5h-48.2L220.4,3448.1z "></path> <path id="path6805" class="st0" d="M761.7,3448.1H810h223v44.4H810v114.3h197v44.4H810V3776h223v44.4H810h-48.2V3448.1z"></path> <path id="path6807" class="st0" d="M2160.2,3448.1h48.2V3776h223v44.4h-223h-48.2V3448.1z"></path> <path id="path6809" class="st0" d="M2650.6,3820.4h48.2v-372.3h-48.2V3820.4z"></path> <path id="path6811" class="st0" d="M6049.4,3448.1h24.1h24.1h15.6l129.5,268.3l129.5-268.3h15.6h24.1h24.1v372.3h-48.2v-299.8 l-124,250.7h-42.1l-124-250.7v299.8h-48.2V3448.1z"></path> <path id="path6813" class="st0" d="M2943.6,3448.1h32.2l232.4,283.5v-283.5h48.2v372.3h-32.2l-232.4-283.5v283.5h-48.2V3448.1z"></path> <path id="path6815" class="st0" d="M3485.1,3448.1h48.2h223v44.4h-223v114.3h197v44.4h-197V3776h223v44.4h-223h-48.2V3448.1z"></path> <path id="path6817" class="st0" d="M4726.9,3820.4h48.2v-372.3h-48.2V3820.4z"></path> <path id="path6819" class="st0" d="M5019,3448.1h32.2l232.4,283.5v-283.5h48.2v372.3h-32.2l-232.4-283.5v283.5H5019V3448.1z"></path> <path id="path6821" class="st0" d="M5559.5,3448.1h48.2h223v44.4h-223v114.3h197v44.4h-197V3776h223v44.4h-223h-48.2V3448.1z"></path> <path id="path6823" class="st0" d="M6805.7,3502.5l-75.3,189.4H6881L6805.7,3502.5z M6784.7,3441.5h42l153.3,378.9h-47.9 l-36.8-92.6h-179.3l-36.8,92.6h-47.9L6784.7,3441.5z"></path> <path id="path6825" class="st0" d="M4388.4,3440.6c24.6,0,62.5,7,104,19.9v43.1c-41.1-11-78.4-17.1-100.9-17.2 c-75.4-0.3-135.6,34.6-135.6,146.9s60.2,146.6,135.6,146.9c22.5,0.1,59.8-5.5,100.9-16.1v43.4c-41.5,13.2-79.4,20.4-104,20.4 c-86.2,0.2-181.6-36.6-181.6-193.7C4206.8,3477.2,4302.2,3440.7,4388.4,3440.6z"></path> </g> </g> </svg> 