<?xml version="1.0" encoding="UTF-8"?> <svg xmlns="http://www.w3.org/2000/svg" xmlns:xlink="http://www.w3.org/1999/xlink" version="1.1" id="Layer_1" x="0px" y="0px" viewBox="0 0 732.5 233.9" style="enable-background:new 0 0 732.5 233.9;" xml:space="preserve"> <style type="text/css"> .st0{fill:#FFFFFF;} .st1{fill:none;} .st2{fill:#00E0FF;} </style> <g> <g> <g> <path class="st0" d="M445.2,96.6c5.3,7.2,11.1,10.4,20.1,10.4c8,0,12.3-3.9,12.3-9.3c0-7.1-8.4-8.5-17.3-10 c-10.9-1.8-21.6-4.7-21.6-17.2c0-9.9,8.1-18.4,23-18.4c11.7,0,19.8,3.8,26.5,12.8l-9.2,6.9c-4.3-6.5-9.4-9.9-18.3-9.9 c-8.1,0-12.1,4.1-12.1,8.9c0,7,7.6,8.2,17.1,9.8c10.4,1.9,21.8,4.6,21.8,17.5c0,11.1-8.5,18.9-22.9,18.9 c-12.9,0-22.2-4.7-28.1-12.9L445.2,96.6z"></path> </g> <g> <path class="st0" d="M524.9,116.4c-8,0-13.6-4-16.7-10.7v28.6h-10.4V67.7h10.4v10.5c3.3-7.5,9.8-11.1,17.5-11.1 c11,0,20.4,7.6,20.4,24.3C546.2,107.5,536.6,116.4,524.9,116.4z M535.5,91.7c0-10.1-4.8-16.2-13.9-16.2c-9.5,0-14,7.1-14,16.3 c0,9.4,4.2,16.1,14.2,16.1C530.9,107.8,535.5,101.4,535.5,91.7z"></path> </g> <g> <path class="st0" d="M554.7,91.8c0-14.2,9.2-25,24.6-25c15.7,0,24.6,11,24.6,25c0,13.9-9.2,24.9-24.6,24.9 C563.5,116.7,554.7,106.1,554.7,91.8z M593.3,91.8c0-9.7-4.3-16.3-13.9-16.3c-9.5,0-14,6.9-14,16.3c0,9.5,4.1,16.1,14,16.1 C589.1,107.8,593.3,101.2,593.3,91.8z"></path> </g> <g> <path class="st0" d="M644.6,68.9l-2.9,9.5c-2.3-1.4-4.9-2.2-8.1-2.2c-6,0-10.6,5-10.6,15.1v24.4h-10.4V67.7h10.4v11.6 c2.2-8.4,6.3-12.3,13.3-12.3C639.8,67,642.4,67.7,644.6,68.9z"></path> </g> <g> <path class="st0" d="M683.3,114.8c-2.5,1.2-5.2,1.9-8.8,1.9c-10.4,0-14.6-5.5-14.6-16.1V76.3h-11v-8.6H660V55.4l9.7-5.8v18.1 h13.6v8.6h-13.6v23c0,6.2,2.5,8.4,7.2,8.4c2.6,0,4.1-0.5,6.4-1.4L683.3,114.8L683.3,114.8z"></path> </g> <g> <path class="st0" d="M696.7,100.1c3.9,5.2,8.9,8,16,8c6.8,0,9.6-3.3,9.6-6.7c0-5-7.4-5.4-16.2-6.9c-8.8-1.4-15.1-4.3-15.1-12.9 c0-8.4,7.1-15,19.1-15c9.8,0,16.7,3,22.4,9.9l-8,6.8c-3.7-5.3-8.3-7.9-15-7.9c-6.7,0-9.4,3-9.4,6.4c0,4.4,5.6,5.2,13.7,6.4 c9.4,1.4,17.8,3.6,17.8,13.3c0,8.9-7.1,15.5-19.2,15.5c-10.9,0-18.5-3.7-23.3-9.6L696.7,100.1z"></path> </g> </g> <g> <path class="st0" d="M211.6,117l-26.1-64h12.3l14.9,38.2l16.4-40l16.3,40L260.2,53H272l-26,64l-17.2-41.2L211.6,117z"></path> </g> <g> <path class="st0" d="M277.2,53.3h18c14,0,21.2,6.5,21.2,16.5c0,6.4-3.9,10.9-8.7,13c7.1,1.9,12.6,7.3,12.6,15.1 c0,11-8.5,17.8-22.1,17.8h-21V53.3z M294.5,79.7c6.5,0,10.6-2.9,10.6-8.4c0-5.6-4.1-8.5-10.6-8.5h-6v16.9H294.5z M297.5,106.1 c6.6,0,11-3.4,11-9c0-5.5-4.4-8.9-11-8.9h-9v17.9L297.5,106.1L297.5,106.1z"></path> </g> <g> <path class="st0" d="M349.8,52.9c18.1,0,32.6,13.7,32.6,31.7c0,18.1-14.5,31.7-32.6,31.7h-19.5V52.9H349.8z M342,62.6v44h7.1 c12.8,0,21.6-9.9,21.6-22s-8.9-22-21.6-22H342z"></path> </g> <g> <line class="st1" x1="411.1" y1="28" x2="411.1" y2="145"></line> <g> <rect x="409.7" y="28" class="st0" width="2.7" height="117"></rect> </g> </g> <g id="Shield"> <g> <g> <path class="st0" d="M152.1,40v-8l-10.7-5.8v-8.4l-5.5-2.6C120.3,7.8,103.1,2.8,83.2,0.2L81.9,0l-1.3,0.2 C60.7,2.8,43.4,7.8,27.8,15.2l-5.5,2.6v8.4L11.6,32v8L0,46.3l0.9,6.6c3.1,22.3,11.2,42.5,24.1,60c13.1,17.7,30.8,32.2,52.5,43.1 l4.3,2.2l4.3-2.2c21.8-10.9,39.4-25.4,52.5-43.1c12.9-17.5,21.1-37.7,24.1-60l0.9-6.6L152.1,40z M153.3,51.6 c-1.1,7.5-4.6,31.7-22.4,55.6c-18.1,24.6-41.9,36.5-49,40.2c-7.2-3.7-30.9-15.6-49-40.2C15.1,83.3,11.5,59.1,10.4,51.6l10.8-5.8 v-8L32,32v-8c14.8-7.1,31.1-11.7,49.9-14.2c18.8,2.5,35.1,7.1,49.9,14.2v8l10.7,5.8v8L153.3,51.6z"></path> </g> </g> <g> <g> <path class="st0" d="M65.9,29.1l0.5,65.3l-0.5,0.3c-6.9-17.5-11-39.3-12.3-61.2c-3.4,1.5-7,3.4-10.7,5.7 c1.5,19.9,4.9,37.2,11,53.7l-3.4,2c-9.2-12.8-15.2-28.4-19.3-46.9c-2.8,2.5-5.6,5.4-8.4,8.5c5.4,22.2,13.8,39,26.1,52.6l9.5-5.7 c4.7,9.7,11.2,19.3,18.4,27V27.1C73.2,27.5,69.6,28.1,65.9,29.1z"></path> </g> </g> <g> <g> <path class="st0" d="M127.1,62.8c3.9-4.3,4.7-7.4,4.7-11.2c0-5.3-4.4-10.1-10.9-14.2c-3.9-2.5-9.8-5.5-18.5-7.9 c-5-1.4-10.2-2.2-15.5-2.4v103.4c21.8-11.2,47.6-41.9,47.7-57.5C134.7,68.3,132.2,65.2,127.1,62.8z M97.6,39.5 c5.3,0,22.7,5.5,22.7,12.4c0,2.5-2.2,6.1-9,9.7l-13.6,7.3V39.5z M111.1,96.9c-3.1,3.5-8,8.9-13.5,13.1V80.3 c0,0,19.7-11.1,20.4-11.5c5.9,1.5,5.6,5.8,5.6,6.3C123.6,80.5,118,88.9,111.1,96.9z"></path> </g> </g> </g> </g> <g> <path class="st2" d="M334.1,193l3.6,3.8c-5.7,4-8.3,10.6-8.3,16.6c0,6,2.6,12.5,8.3,16.5l-3.7,4c-5.3-5.1-8.9-12.5-8.9-20.5 S328.8,198.1,334.1,193z"></path> <path class="st2" d="M365.3,196.2V213c0,8.4-4.7,12.5-11.8,12.5c-7.5,0-11.7-3.9-11.7-12.5v-16.8h4.8v16.5c0,5.5,2.2,8.3,6.9,8.3 c5,0,7-2.8,7-8.3v-16.5H365.3z"></path> <path class="st2" d="M372.8,216.2c2.5,3.3,5.1,4.8,9.3,4.8c3.7,0,5.7-1.8,5.7-4.3c0-3.3-3.9-3.9-7.9-4.6c-5-0.8-9.9-2.1-9.9-7.9 c0-4.6,3.7-8.5,10.6-8.5c5.4,0,9.1,1.8,12.2,5.9l-4.2,3.2c-2-3-4.3-4.6-8.4-4.6c-3.8,0-5.6,1.9-5.6,4.1c0,3.2,3.5,3.8,7.9,4.5 c4.8,0.9,10,2.1,10,8c0,5.1-3.9,8.7-10.6,8.7c-5.9,0-10.2-2.1-12.9-5.9L372.8,216.2z"></path> <path class="st2" d="M398.4,233.9l-3.6-4c5.7-4,8.3-10.5,8.3-16.5c0-6.1-2.5-12.6-8.2-16.6l3.6-3.8c5.3,5.1,8.9,12.4,8.9,20.4 S403.8,228.8,398.4,233.9z"></path> </g> </svg> 