<?xml version="1.0" encoding="UTF-8"?> <svg xmlns="http://www.w3.org/2000/svg" xmlns:xlink="http://www.w3.org/1999/xlink" version="1.1" x="0px" y="0px" viewBox="0 0 600 600.4" style="enable-background:new 0 0 600 600.4;" xml:space="preserve"> <style type="text/css"> .st0{display:none;} .st1{display:inline;fill:#1E1E1E;} .st2{fill:#FFFFFF;} </style> <g id="BACKGROUND" class="st0"> <rect x="-140.4" y="-140.4" class="st1" width="400" height="400"></rect> </g> <g id="LOGOS"> <g> <path class="st2" d="M0,0v600.4h600V0H0z M265.1,106.2c17.2-11.1,36.1-16.7,56.5-16.7c9.5,0,18.9,1.1,28.2,3.2 c9.3,2.1,19.6,5.3,30.8,9.6l17.4,6.6l2.2,0.8l20.3,8.1c4.9,1.8,10.4,3.4,16.6,4.9c6.2,1.5,11.8,2.2,17,2.2 c14.7,0,26.3-3.8,34.9-11.4c4.6-4.3,9-10.8,13.4-19.5h10.6c-4.5,14.1-19.7,45.7-65.1,47c-23.9,0.7-41-6.2-67-16.5l-2.7-1.1 c-26.5-10.5-44.1-17.5-69.1-16.8c-51,1.4-66.9,39.7-70.5,51.5l-0.3,0.8H228C235.5,134.8,247.8,117.3,265.1,106.2z M215.5,338V231 c0-40.3,52-59.6,79.6-12.8c2,3.4,45.4,78.1,45.4,78.1V231c0-40.3,52.1-59.6,79.6-12.8c2,3.4,45.4,78.1,45.4,78.1V191.6h26v175.7 c0,3.2-2,4.9-3.8,5.3c-2.8,0.8-5.7-0.9-7.8-4.5c-0.4-0.7-22.4-38.7-43.7-75.4c-24.1-41.5-38.7-66.7-38.9-67.1 c-5.4-9.3-13.6-10.9-19.4-9.3c-6.8,1.9-11.4,8-11.4,15.4v135.7c0,3.2-2,4.9-3.8,5.3c-2.8,0.8-5.7-0.9-7.8-4.5 c-0.4-0.6-20.9-35.9-40.7-70.1c-25.2-43.5-41.8-72-42-72.4c-5.4-9.3-13.6-10.9-19.4-9.3c-6.8,1.9-11.4,8-11.4,15.3v132.7 c0,3.1-3,6.8-6.8,6.8h-67.4c-39.5,0-71.6-32.2-71.6-71.7s32.1-71.6,71.6-71.6h35v25.9h-34.7c-25.3,0-45.7,20.5-45.7,45.7 c0,25.3,20.5,45.7,45.7,45.7h40.9C212.6,345.3,215.5,341.9,215.5,338z M527.6,368.1c0,40.3-52,59.6-79.6,12.8 c-2-3.4-45.4-78.1-45.4-78.1v65.3c0,40.3-52,59.6-79.6,12.8c-2-3.4-45.4-78.1-45.4-78.1v61.6c0,27.9-16.6,43.1-42.4,43.1h-68 c-59.6,0-107.9-48.3-107.9-107.9c0-59.6,48.3-107.9,107.9-107.9h35v25.9h-35c-45.2,0-82,36.8-82,82c0,45.2,36.8,82,82,82h67.4 c9.1,0,17.2-8,17.2-17.1l0-132.7c0-3.2,2-4.9,3.8-5.3c2.8-0.7,5.7,0.9,7.8,4.5c0.4,0.7,21.5,37.1,42,72.4 c24.4,42.1,40.4,69.7,40.7,70.1c5.4,9.3,13.6,10.9,19.4,9.3c6.8-1.9,11.4-8,11.4-15.4V231.7c0-3.2,2-4.9,3.7-5.4 c2.7-0.7,5.6,1,7.7,4.6c0.4,0.6,20,34.4,38.9,67.1c26.3,45.3,43.5,75,43.8,75.4c4.3,7.3,10.2,9.8,15.4,9.8c1.4,0,2.8-0.2,4-0.5 c6.8-1.9,11.4-8,11.4-15.4V191.6h25.8V368.1z M491.9,146.5c-17.2,11.1-36,16.7-56.5,16.7c-9.5,0-18.9-1.1-28.2-3.2 c-9.3-2.1-18.4-4.5-29.6-8.7l-2.6-1.1c-5.6-2-11-4.3-18.2-7.2l-20.3-8.1c-4.9-1.8-10.4-3.4-16.6-4.9c-6.2-1.4-11.9-2.2-17-2.2 c-14.7,0-26.3,3.8-34.9,11.4c-4.6,4.3-9,10.8-13.4,19.5h-10.5c4.6-14.3,19.9-45.5,65-46.7c23.9-0.6,41,6.2,66.9,16.4l2.7,1.1 c26.6,10.6,44.2,17.6,69.2,16.9c51-1.4,66.9-39.7,70.5-51.5l0.4-1.1H529C521.5,117.9,509.2,135.4,491.9,146.5z"></path> </g> </g> </svg> 