<?xml version="1.0" encoding="UTF-8"?> <svg xmlns="http://www.w3.org/2000/svg" xmlns:xlink="http://www.w3.org/1999/xlink" version="1.1" id="Layer_1" x="0px" y="0px" viewBox="0 0 1000 207" style="enable-background:new 0 0 1000 207;" xml:space="preserve"> <style type="text/css"> .st0{fill:#FFFFFF;} </style> <path class="st0" d="M231.9,125.1c0.5,7.8,6,15.5,18,15.5c9,0,13.4-4.8,13.4-9.9c0-4.2-2.8-7.6-11.3-9.5l-13.2-3 c-24.5-5.3-34.2-19.2-34.2-35.3c0-21,18.5-38.1,44.1-38.1c33.3,0,44.8,20.8,46,34.2l-29.1,5.3c-0.9-7.6-5.8-14.1-16.4-14.1 c-6.7,0-12.5,3.9-12.5,9.9c0,4.8,3.9,7.6,9,8.5l15.2,3c23.8,4.9,35.3,19.2,35.3,36c0,19.6-15,38.8-45.7,38.8 c-36,0-47.6-23.3-48.5-36L231.9,125.1z M365.6,77c13.6,0,20.6,8.3,23.1,17.1l31.4-9.5c-5.1-20.6-23.6-40-55.2-40 c-33.7,0-60.5,25.2-60.5,61c0,35.6,27.5,60.7,61.7,60.7c30.7,0,49.6-19.9,54.7-40l-30.9-9.5c-2.5,8.5-10.2,17.1-23.8,17.1 c-14.5,0-26.8-10.2-26.8-28.4C339.2,87.2,351,77,365.6,77 M487.5,44.7c-34.2,0-61,25.2-61,60.7c0,35.6,26.8,61,61,61 c34.4,0,61-25.4,61-61C548.5,69.9,521.9,44.7,487.5,44.7 M487.5,134.1c-13.2,0-25.9-9.5-25.9-28.6c0-19.4,12.7-28.4,25.9-28.4 c13.4,0,25.9,9,25.9,28.4C513.4,124.8,500.9,134.1,487.5,134.1 M668.8,48.2h-37l-24.5,71.4l-26.6-71.4h-38.1l47.1,114.8h35.3 L668.8,48.2z M747.8,121.6c-3.2,9-10.4,15-23.1,15c-13.6,0-25.4-9.2-26.1-22.1h79.9c0.2-0.7,0.7-6,0.7-10.9 c0-36.9-21.9-58.9-57.5-58.9c-29.8,0-57.3,23.6-57.3,60.5c0,38.6,28.2,61.2,59.8,61.2c29.1,0,47.4-16.6,52.9-36.5L747.8,121.6z M699.3,91.8c0.7-8.5,8.1-19.4,22.9-19.4c16.6,0,22.6,10.6,23.1,19.4H699.3z M865.4,48.2c-2.3-0.7-5.8-1.2-9.3-1.2 c-9.2,0-23.8,3.7-29.8,16.6V48.2h-34v114.8h35.1v-50.1c0-22.9,12.7-31.2,26.8-31.2c3.5,0,7.2,0.2,11.1,1.1L865.4,48.2L865.4,48.2z M929.3,207L1000,48.2h-37.2l-25.4,61.4l-27.9-61.4h-39.3l48.3,99.3L892.4,207H929.3z M58.5,130.4H9.7v32.5h48.8 c47.2,0,84.4-34.5,84.4-81.4c0-46.9-37.2-81.4-84.4-81.4l-48.8,0v32.6h48.8c27,0,48.7,21.9,48.7,48.8 C107.2,108.5,85.5,130.4,58.5,130.4 M9.3,60.8c-0.1,0.1-0.1,0.1,0.1,0c0.1-0.1,0.1-0.1,0.1-0.1C9.4,60.7,9.4,60.7,9.3,60.8 M33.6,52.8c0-0.2,0-0.1-0.1,0.1c-0.1,0.1-0.1,0.2,0,0.1C33.6,53,33.6,52.9,33.6,52.8 M36.3,49c0-0.1-0.2,0-0.2,0.1 c0,0.1,0,0.1,0.1,0.1C36.2,49.1,36.3,49,36.3,49 M17.5,106C17.4,106.1,17.4,106.1,17.5,106c0.1,0.1,0.2,0,0.2,0 C17.7,105.9,17.6,105.9,17.5,106 M29.4,116.5C29.4,116.6,29.5,116.6,29.4,116.5C29.5,116.5,29.5,116.5,29.4,116.5 C29.4,116.5,29.4,116.5,29.4,116.5 M27.8,54.2C27.8,54.1,27.8,54.1,27.8,54.2c-0.1-0.1-0.2,0-0.1,0C27.7,54.2,27.8,54.2,27.8,54.2 M67.6,79.1c0,0,0,0,0-0.1c-0.1-0.2-0.1-0.2-0.1-0.1C67.5,79,67.5,79,67.6,79.1 M10.5,79.2c-0.1,0-0.1,0-0.1,0.2 c0,0.2,0.2,0.2,0.2-0.1C10.6,79.3,10.5,79.2,10.5,79.2 M10.6,66.6C10.6,66.6,10.5,66.6,10.6,66.6c-0.1,0.1-0.1,0.2-0.1,0.2 c0,0,0,0,0.1,0C10.5,66.8,10.6,66.6,10.6,66.6 M13.5,80.3c-0.1,0.1-0.1,0.5-0.1,0.5c0,0,0.1,0,0.2-0.2 C13.7,80.5,13.6,80.2,13.5,80.3 M17.1,105.5C17.1,105.6,17.2,105.6,17.1,105.5c0.1,0.1,0.1,0.1,0.1,0 C17.2,105.5,17.2,105.5,17.1,105.5C17.2,105.5,17.1,105.5,17.1,105.5 M14.6,92.2c0,0.1,0.1,0.2,0.2,0.2c0.1,0.1,0.1,0,0-0.1 C14.7,92,14.5,92,14.6,92.2 M16.5,104C16.4,104,16.4,104.1,16.5,104c0,0.2,0.1,0.2,0.1,0.2c0,0,0,0,0-0.1 C16.6,104.1,16.5,104,16.5,104 M26.2,50.7C26.1,50.7,26.2,50.8,26.2,50.7c0,0.1,0.1,0.1,0.1,0c0-0.1,0-0.1,0-0.1 C26.2,50.7,26.2,50.7,26.2,50.7 M39.6,79.2c-0.3-0.2-0.4-0.1-0.2,0.2c0.1,0.2,0.5,0.2,0.5,0C39.9,79.4,39.8,79.3,39.6,79.2 M33.5,81.9c-0.1,0-0.2,0-0.2,0c0,0,0.1,0.1,0.2,0.2c0.1,0.1,0.2,0.1,0.2,0C33.6,82,33.5,81.9,33.5,81.9 M49.4,80 c0,0,0.1-0.1,0.1-0.2c0,0,0-0.1-0.1-0.1c0,0-0.1,0.1-0.1,0.1C49.3,80.1,49.3,80.1,49.4,80 M33.4,82.5c0,0.1,0,0.1,0,0.1 c0.1,0,0.1-0.1,0.1-0.1c0-0.1,0-0.1,0-0.1C33.5,82.3,33.4,82.4,33.4,82.5 M49.2,83.8c0,0.2,0,0.4,0.2,0.5c0.2,0.2,0.2,0.2,0.1,0 C49.4,84.2,49.3,83.9,49.2,83.8c0.1-0.2,0-0.2,0-0.4C49.2,83.5,49.2,83.6,49.2,83.8 M68,66.2c0-0.1,0-0.1-0.1-0.1 C67.9,66.1,67.9,66.1,68,66.2C67.9,66.3,68,66.3,68,66.2C68,66.3,68,66.3,68,66.2 M48.2,90.1c0-0.1,0-0.3-0.1-0.3 C48,89.7,48,90,48,90.3c0,0.3,0,0.7,0,0.8c0,0.1,0,0.2,0.1,0.4c0.1,0.1,0.1,0.1,0.1-0.4c0-0.3,0-0.6,0-0.7 C48.2,90.4,48.1,90.2,48.2,90.1 M39.7,57.9c-0.1,0.1-0.1,0.2-0.1,0.2c0,0.1,0.3-0.1,0.4-0.2C40,57.8,39.8,57.8,39.7,57.9 M47.6,86.7 c0.1,0,0.3-0.1,0.4-0.1c0.1,0,0.2-0.1,0.1-0.1c0,0,0-0.3,0.2-0.5c0.2-0.4,0.2-0.4,0.1-0.5c-0.3-0.1-0.7-0.1-0.8,0.1 c-0.1,0.1-0.1,0.4-0.2,0.7C47.3,86.7,47.3,86.8,47.6,86.7 M54.4,53.8c0,0,0,0,0,0.1c0,0.1,0.1,0.1,0.1,0.1c0,0,0,0,0-0.1 C54.4,53.9,54.4,53.8,54.4,53.8 M44.2,56.6c0,0.1,0,0.1-0.1,0.1c-0.1,0-0.1,0-0.1,0.1c0,0.1-0.1,0.2-0.1,0.1c0-0.1-0.1,0-0.1,0 c0,0.1,0,0.1,0.1,0.1C44,57.1,44.3,56.8,44.2,56.6c0.1-0.1,0-0.1,0-0.1S44.2,56.5,44.2,56.6 M43.4,53.8c0,0.1,0,0.1,0.1,0.1 c0,0,0.1-0.1,0.1-0.1c0-0.1,0-0.1-0.1-0.1C43.4,53.7,43.4,53.7,43.4,53.8 M43.4,56.5C43.4,56.5,43.5,56.6,43.4,56.5 c0.1,0,0.1,0,0.1-0.1c0,0,0-0.1-0.1-0.1C43.4,56.3,43.4,56.4,43.4,56.5 M43.1,56.8c0,0.1,0,0.1,0.1,0.2c0,0,0.1,0,0.1-0.1 C43.2,56.7,43.1,56.6,43.1,56.8 M24.8,53.9c0-0.1-0.1,0-0.2,0.1c0,0,0,0.1,0.1,0C24.7,54,24.8,53.9,24.8,53.9 M20.3,62.1 c0,0-0.2,0-0.2,0.1c-0.2,0.2-0.1,0.2,0.1,0C20.4,62.2,20.4,62.1,20.3,62.1 M24.1,55.8C24.2,55.8,24.2,55.7,24.1,55.8 c-0.1-0.2-0.2-0.2-0.3,0c0,0.1,0,0.2,0,0.1C23.9,55.8,24,55.8,24.1,55.8 M23.6,53.6c0,0,0.1-0.1,0.2-0.2c0.1,0,0,0-0.1,0 c-0.1,0-0.2,0-0.2,0c0,0-0.1,0-0.1,0c0,0-0.1,0.1-0.1,0.2c-0.1,0.1-0.1,0.1,0.1,0.1C23.5,53.7,23.6,53.6,23.6,53.6 M21.5,54.4 c0,0,0.1,0,0.1,0C21.6,54.4,21.6,54.3,21.5,54.4C21.5,54.4,21.4,54.4,21.5,54.4 M21.4,62c0.1-0.2,0-0.2-0.1-0.1 c-0.1,0.1-0.1,0.3,0,0.3C21.3,62.2,21.4,62.2,21.4,62 M23,61c0,0,0.1,0,0.1-0.1c0-0.1,0-0.1,0-0.1c0,0-0.1,0.1-0.1,0.1 C22.9,60.9,22.9,61,23,61 M23.9,50.3C23.8,50.3,23.8,50.4,23.9,50.3C23.8,50.4,23.9,50.4,23.9,50.3C24,50.3,23.9,50.3,23.9,50.3 M24.6,49.9c0.1-0.1,0.1-0.1-0.2,0c-0.1,0-0.1,0.1-0.2,0.1c0,0,0.1,0,0.1,0C24.5,50,24.6,49.9,24.6,49.9 M20.2,56.5 c0-0.1-0.1-0.2-0.2-0.1c0,0.1,0,0.1,0,0.1C20.1,56.5,20.1,56.5,20.2,56.5C20.2,56.6,20.2,56.6,20.2,56.5 M23.3,50.6 C23.2,50.5,23.2,50.6,23.3,50.6c-0.1,0.1-0.2,0.2-0.3,0.2c-0.1,0.1-0.1,0.1,0,0C23.2,50.8,23.3,50.7,23.3,50.6 M20.6,99.7 c0.1-0.1,0.1-0.2,0.1-0.2c-0.1-0.1-0.2,0.1-0.2,0.3C20.5,99.9,20.6,99.8,20.6,99.7 M24.1,61c0.1-0.1,0.1-0.1-0.1,0 c-0.2,0.1-0.2,0.1-0.1,0.1C23.9,61.1,24,61,24.1,61 M16.1,64.7c-0.2,0.2-0.8,1.4-0.8,1.6c0,0.2,0.3-0.2,0.5-0.7 c0.2-0.4,0.3-0.5,0.5-0.8c0.4-0.4,0.4-0.4,0.4-0.1c0,0.2,0,0.3-0.1,0.4c-0.1,0.1-0.2,0.2-0.2,0.3c0,0.1,0,0,0.1,0 c0.1-0.1,0.1-0.1,0.1,0.1c0,0.1,0,0.2,0,0.3c0.1-0.2,0.2-0.3,0.3-0.4c0.1-0.2,0.3-0.5,0.3-0.5c0-0.1,0,0,0.1,0.1 c0.1,0.3,0.2,0,0.2-0.3c0-0.3-0.2-0.3-0.2-0.1c0,0.1,0,0.1-0.1,0.1c0,0,0,0,0-0.1C17.4,64.3,16.4,64.4,16.1,64.7 M17.6,65.6 c0.2,0,0.4-0.1,0.5-0.2c0.2-0.2,0.2-0.4,0-0.3c0,0-0.2,0.1-0.4,0.1C17.3,65.4,17.2,65.6,17.6,65.6 M14.8,57.2 c-0.1,0.1-0.2,0.2-0.3,0.3c-0.1,0.1-0.2,0.2-0.3,0.3c0.1,0,0.1,0,0.1,0c0.1,0,0.2-0.1,0.2-0.1c0.1-0.1,0.1-0.1,0.2-0.1 c0,0,0,0,0,0.1c-0.1,0.1,0,0,0.1-0.1c0.1-0.1,0.3-0.2,0.4-0.3c0.3-0.1,0.3-0.3,0.1-0.2c-0.2,0.1-0.2,0.1-0.1,0 c0.2-0.2-0.1-0.1-0.6,0.2c-0.2,0.1-0.2,0.1-0.4,0.2c0.1,0,0.2-0.1,0.3-0.1C14.6,57.3,14.7,57.3,14.8,57.2 M17.5,57.7 c0.1-0.1-0.1-0.1-0.2,0c0,0.1-0.1,0.1,0,0.1C17.3,57.9,17.4,57.8,17.5,57.7 M16.9,62.9c0.1-0.2,0-0.2-0.1-0.2 c-0.1,0.1-0.2,0.3-0.1,0.3C16.8,63,16.8,62.9,16.9,62.9 M15.6,60.3c-0.1,0.1-0.1,0.2-0.1,0.2c0.1,0,0.5-0.4,0.5-0.6 c0.1-0.2,0-0.1-0.2,0.1c-0.1,0.1-0.1,0.2-0.1,0.2C15.8,60.1,15.7,60.2,15.6,60.3 M16.1,64c0.1-0.1,0.2-0.1,0.2-0.1 c-0.1,0.1,0,0.3,0.4,0.3H17c0-0.1,0-0.2,0.1-0.3c0-0.2,0.1-0.3,0-0.3c0,0-0.1,0-0.1-0.1c0-0.3-0.2-0.3-0.8,0.2 c-0.3,0.2-0.6,0.4-0.6,0.5C15.4,64.3,15.9,64.2,16.1,64 M19.1,55.8c0,0-0.1,0.1-0.1,0.1c0,0,0,0.1,0,0.1c0,0,0.1,0,0.1-0.1 C19.1,55.8,19.1,55.8,19.1,55.8 M15,62.8c0,0,0.1-0.2,0.1-0.3c0-0.2,0-0.2,0-0.2C15.1,62.4,15,62.8,15,62.8 M15.2,59.4 c-0.1,0-0.2,0.1-0.3,0.2c-0.2,0.2-0.2,0.2,0.2,0C15.4,59.4,15.4,59.4,15.2,59.4 M15.3,61.5c-0.2,0.2-0.2,0.3-0.2,0.3 c0,0,0,0.1,0,0.2c0,0.1-0.1,0.2-0.1,0.2c0,0,0.1,0,0.1-0.2c0.1-0.2,0.2-0.4,0.2-0.5C15.5,61.2,15.5,61.2,15.3,61.5 M16.5,66.1 c-0.3,0.1-0.4,0.3-0.2,0.3c0.2,0,0.9-0.4,1-0.5C17.5,65.7,17.4,65.7,16.5,66.1 M15.9,61.3c0,0-0.1,0-0.1,0.1c-0.1,0-0.1,0.1-0.2,0.1 c-0.1,0.2-0.1,0.5-0.1,0.6c0,0.1,0,0.2,0,0.4c-0.1,0.2-0.1,0.2,0,0.1c0.1-0.1,0.2-0.4,0.3-0.8C15.8,61.5,15.9,61.3,15.9,61.3 M15.4,63.3c0,0,0.1-0.1,0.2-0.2c0-0.1,0.1-0.2,0.1-0.2c0,0-0.1,0.1-0.2,0.2C15.3,63.3,15.3,63.3,15.4,63.3 M14.9,58.4 C14.9,58.4,14.9,58.4,14.9,58.4c-0.1,0.2-0.2,0.2-0.4,0.4c-0.1,0.1-0.2,0.1-0.3,0.2c0.1,0,0.2,0,0.2,0c0.1,0,0.3-0.1,0.4-0.2 c0.1,0,0.2-0.2,0.4-0.3c0.2-0.1,0.3-0.2,0.3-0.2c0,0,0.1-0.1,0.1-0.1c0.1-0.2,0-0.1-0.3,0.1C15.2,58.5,15,58.6,14.9,58.4 M58.3,66.1 c-0.1,0-0.2,0-0.2,0.1c0,0.1,0.1,0.1,0.2,0.1c0.1,0,0.2-0.1,0.2-0.1C58.4,66.1,58.4,66.1,58.3,66.1 M58,64.3 C57.9,64.3,57.8,64.4,58,64.3c0,0.1,0.1,0.1,0.1,0.1C58.1,64.4,58.1,64.4,58,64.3 M58.6,53.4c0,0,0,0,0,0.1c0,0,0.1,0.1,0.1,0.1 c0,0,0,0,0-0.1C58.6,53.5,58.6,53.4,58.6,53.4 M57.2,64.2c-0.2,0.1-0.3,0.2-0.2,0.4c0.1,0.2,0.2,0.2,0.2-0.1c0-0.1,0.1-0.2,0.2-0.2 c0.1,0,0.1-0.1,0.1-0.1c0-0.1,0-0.1,0-0.1C57.4,64.2,57.3,64.2,57.2,64.2 M55.3,54.1c0,0.1,0,0.1,0.1,0.2c0,0,0.1,0.1,0.1,0.2 c0,0.1,0,0.2,0.1,0.1c0,0,0-0.2-0.1-0.3C55.3,53.9,55.3,53.8,55.3,54.1 M58.2,53.7c-0.1-0.2-0.3-0.4-0.3-0.2 C58,53.5,58.1,53.6,58.2,53.7C58.3,53.8,58.3,53.8,58.2,53.7 M58.8,63.7c0,0,0,0,0.1,0.1c0.1,0.1,0.2,0.1,0.2,0.1c0,0,0-0.1-0.1-0.1 C59,63.7,58.9,63.7,58.8,63.7 M62.7,61.2c0,0,0,0.2,0,0.4c0,0.4-0.1,1-0.3,1.1c-0.1,0.1-0.1,0.1,0,0.1c0.1,0,0.2-0.1,0.2-0.2 c0.1-0.1,0.1-0.2,0.2-0.2c0.1,0,0.1-0.5,0-0.9C62.8,61.4,62.8,61.2,62.7,61.2 M63.8,68.8c0,0,0,0,0,0.1c0,0,0.1,0.1,0.1,0.1 c0,0,0,0,0-0.1C63.9,68.8,63.8,68.8,63.8,68.8 M78,81.5c0,21.5-17.5,39-39,39c-21.5,0-39-17.5-39-39c0-21.5,17.5-39,39-39 C60.6,42.5,78,60,78,81.5 M74.4,84.9C74.4,84.9,74.5,85,74.4,84.9C74.5,84.9,74.5,84.8,74.4,84.9C74.4,84.8,74.4,84.8,74.4,84.9 M71.9,83.3C71.9,83.3,72,83.3,71.9,83.3C72,83.2,72,83.2,71.9,83.3C71.9,83.2,71.9,83.3,71.9,83.3 M71.5,83.5c0,0,0.3-0.7,0.2-0.8 c0,0,0,0,0,0.1c0,0.1,0,0.1,0,0c0-0.1,0-0.2,0,0C71.6,82.9,71.5,83.5,71.5,83.5 M71.4,84.4C71.4,84.4,71.5,84.4,71.4,84.4 c0.1,0,0.2,0.1,0.2,0.1c0.1,0,0.1,0,0.1-0.1c0-0.1,0-0.1-0.2-0.1C71.5,84.3,71.4,84.3,71.4,84.4 M71.5,85.7c0,0,0,0.1,0,0.2 c0,0.1,0,0,0,0C71.6,85.8,71.6,85.7,71.5,85.7C71.6,85.6,71.6,85.7,71.5,85.7 M70.9,80.4c0,0-0.1,0-0.1,0.1c0,0.1-0.1,0.3,0,0.4 c0,0.1,0,0.1,0,0c0-0.1,0-0.2,0.1-0.2c0.1,0,0.1,0,0.2,0.2c0.1,0.3,0.2,0.4,0.3,0.4c0,0,0,0,0-0.2c-0.1-0.2-0.1-0.2,0-0.2 c0,0,0.1,0,0.1,0c0-0.1-0.2-0.9-0.3-0.9c0,0,0,0.1-0.1,0.3C71,80.5,71,80.6,70.9,80.4 M71.3,84.5C71.3,84.4,71.3,84.4,71.3,84.5 c-0.1-0.1-0.2,0-0.2,0c0,0,0,0.1,0.1,0.1C71.2,84.6,71.3,84.6,71.3,84.5 M71.1,87.1C71,87.3,71,87.3,71.1,87.1c0,0.1,0.1,0,0.1,0 c0,0,0-0.1,0-0.1S71.2,87.1,71.1,87.1 M71.2,83c-0.1,0.1-0.4,0.2-0.4,0.1c0-0.1-0.3,0.3-0.3,0.6c0,0.1-0.1,0.3-0.1,0.3 c-0.1,0.1-0.2,0.8-0.2,0.9c0,0.1,0,0.2-0.1,0.5c-0.1,0.2-0.1,0.3,0,0.2c0,0,0.1-0.3,0.2-0.5c0.1-0.2,0.1-0.5,0.2-0.5 c0,0,0,0.1,0,0.1c0,0.1,0,0.2,0,0.3c0,0.2,0,0.2,0.1,0.1c0.1-0.2,0.2-0.2,0.1,0c-0.1,0.1-0.1,0.3,0,0.3c0,0,0.1-0.4,0.1-0.5 c0-0.1,0-0.3,0-0.4v-0.3c0.1-0.1,0.1-0.2,0.2-0.2c0.2-0.2,0.2-0.2,0.1-0.2c0,0-0.1,0.1-0.2,0.2c-0.1,0.2-0.2,0.2-0.2,0 c0-0.1,0-0.2,0-0.3c0-0.2,0.1-0.2,0.3-0.2c0.2,0,0.3-0.1,0.4-0.2C71.4,82.9,71.4,82.7,71.2,83 M70.7,86.3c-0.2,0.2-0.4,0.5-0.4,0.6 c0,0.2,0,0.2,0.2-0.2c0.1-0.2,0.2-0.3,0.3-0.3c0,0,0.1-0.1,0.1-0.1C70.9,86.2,70.8,86.2,70.7,86.3 M69.6,86.9c0,0.1,0,0.1,0.1,0.2 c0.1,0.1,0.1,0.1,0.1-0.1c0-0.1,0-0.1-0.1-0.1C69.7,86.9,69.6,86.9,69.6,86.9 M69.6,86.5C69.6,86.5,69.5,86.5,69.6,86.5 c-0.1,0.1-0.1,0.2-0.1,0.1c0,0-0.1,0-0.1,0.1c0,0.1,0,0.1,0.1,0c0.1-0.1,0.1-0.1,0.2-0.1C69.7,86.7,69.7,86.6,69.6,86.5 M69.8,84.4 c0,0,0-0.2,0.1-0.3c0.1-0.1,0.1-0.3,0.2-0.5c0-0.2,0.1-0.3,0.2-0.3c0.1-0.1,0.2-0.3,0.1-0.2c0,0,0-0.2-0.1-0.4c0-0.2,0-0.4,0-0.4 c0,0,0,0,0-0.1c0-0.1,0-0.1,0-0.1c0,0,0.1-0.1,0-0.2c0-0.1,0-0.2,0-0.2c0.1,0,0.1,0,0-0.1c0-0.1-0.2-0.2-0.2-0.3 c-0.2-0.2-0.2-0.2-0.2,0.2c0,0.2-0.1,0.4-0.1,0.4c0,0-0.1,0.2-0.1,0.3c-0.1,0.2-0.2,0.4-0.3,0.5c-0.1,0.1-0.2,0.2-0.2,0.3 c0,0.2-0.1,0.2-0.2,0.2c-0.1,0-0.2,0-0.2,0.1c-0.1,0.2-0.2,0.9-0.1,0.9c0,0,0,0.2,0,0.4c0,0.2,0,0.3,0.1,0.3c0.1,0,0.1,0,0.1,0.1 c0,0,0.1,0.1,0.2,0c0.1,0,0.2,0,0.2,0.1c0,0.1,0,0.1,0.1,0C69.7,84.9,69.8,84.5,69.8,84.4 M69.3,86.6c0,0,0,0.1-0.1,0.1 c0,0.1,0,0.1,0,0.1C69.3,86.8,69.3,86.8,69.3,86.6C69.3,86.7,69.3,86.6,69.3,86.6 M66.7,84.6c0,0,0,0.1,0,0.2c0,0,0.1,0,0.1,0 C66.8,84.6,66.8,84.6,66.7,84.6C66.8,84.5,66.7,84.5,66.7,84.6 M66.7,83.8C66.7,83.7,66.7,83.7,66.7,83.8 C66.6,83.7,66.6,83.7,66.7,83.8c-0.1,0.1-0.1,0.1-0.1,0.1C66.7,83.9,66.7,83.8,66.7,83.8 M66.9,83.7c0,0.1,0,0.3,0,0.4 c0,0.2,0.1,0.5,0.1,0.7c0,0.5,0.3,1.4,0.5,1.3c0.1,0,0.1-0.2,0.2-0.5c0.1-0.5,0.1-0.5,0-0.9c-0.1-0.2-0.1-0.5-0.1-0.6 c0-0.1,0-0.2,0-0.3c0-0.1-0.1-0.3-0.2-0.4c-0.1-0.1-0.1-0.2-0.1-0.2c0,0-0.2-0.2-0.3-0.6c-0.1-0.3-0.5-0.6-0.5-0.6 c-0.1,0-0.2,0-0.2-0.1c0,0-0.1,0-0.1,0.1c0,0.1,0.3,0.4,0.4,0.8C66.9,83.3,67,83.6,66.9,83.7 M67.6,86.3c-0.1,0.2,0.1,0.4,0.3,0.4 c0.1,0,0.3,0,0.4,0.1c0.2,0.1,0.8,0,0.8-0.1c0,0-0.1-0.1-0.2-0.1c-0.1,0-0.2-0.1-0.2-0.2c0-0.1-0.1-0.1-0.3-0.1 c-0.2,0.1-0.3,0.1-0.4,0C68,86.1,67.7,86.1,67.6,86.3 M68,85c0,0,0-0.1,0-0.3c0-0.2,0-0.3-0.1-0.2C67.9,84.6,68,85,68,85 M68.3,85 c0.1-0.1,0.1-0.2,0-0.2C68.3,84.9,68.3,84.9,68.3,85C68.3,85,68.3,85,68.3,85 M69,86.3C69,86.2,69,86.2,69,86.3 C68.9,86.3,68.8,86.3,69,86.3C68.9,86.3,68.9,86.3,69,86.3 M68.8,64.9c0.1,0,0.1-0.1-0.1-0.3c-0.1-0.2-0.5-0.9-0.5-1 c0,0-0.1-0.2-0.2-0.4c-0.1-0.2-0.1-0.3-0.1-0.1c0,0.1,0.1,0.2,0,0.2c0,0,0.2,0.5,0.2,0.7c0,0.1,0.3,0.6,0.5,1.2 c0.3,0.9,0.4,1,0.4,0.9c0-0.1,0-0.1,0.1,0c0.1,0.1,0.1,0-0.1-0.2c-0.1-0.2-0.2-0.3-0.2-0.4C68.8,65.1,68.7,64.8,68.8,64.9 M68.9,73.9C68.9,73.9,68.9,74,68.9,73.9c-0.1,0.1-0.1,0.3-0.1,0.4c0,0.3,0.1,0.4,0.1,0.6c0,0.1,0.1,0.1,0.1,0.2V75 C69.1,74.7,69,73.9,68.9,73.9 M70,80C70,80.6,70,80.6,70,80c0.1-0.2,0.1-0.4,0.1-0.4C70.1,79.6,70.1,79.8,70,80 M70.2,78.9 C70.3,79.1,70.3,79.1,70.2,78.9c0-0.2,0-0.3-0.1-0.3c0,0-0.1,0,0,0C70.1,78.6,70.1,78.8,70.2,78.9 M70.8,79.9 c-0.1-0.4-0.2-0.6-0.3-0.7c-0.1,0-0.1,0,0,0.2c0.1,0.2,0.1,0.2,0.1,0.1c0.1-0.2,0.1-0.2,0.1,0.1c0,0.2,0,0.3,0.1,0.4 C70.8,80.2,70.8,80.1,70.8,79.9 M70.8,79.8C70.8,79.8,70.8,79.8,70.8,79.8c0.1,0.1,0.1,0.2,0.2,0.1c0,0,0-0.1-0.1-0.2 c-0.1-0.1-0.1-0.1-0.1,0C70.8,79.8,70.8,79.9,70.8,79.8 M69.8,86.6c0,0.1,0.1,0.1,0.1,0.1c0.2,0,0.2-0.2,0-0.2 C69.9,86.5,69.8,86.5,69.8,86.6 M70.8,79.1c0.1,0.1,0.1,0.2,0.1,0.2c0,0.1,0,0.1,0.1,0.3c0.1,0.2,0.1,0.2,0.1-0.1 c-0.1-0.4-0.1-0.6-0.2-0.6C70.7,78.9,70.7,78.9,70.8,79.1 M70.6,79c-0.1-0.1-0.1-0.1-0.1,0C70.5,79,70.6,79,70.6,79 C70.6,79.1,70.7,79.1,70.6,79 M70.5,78.6c0-0.1-0.1-0.2-0.2-0.3c-0.2-0.1-0.4-0.5-0.3-0.8c0-0.1,0-0.3-0.1-0.5 c-0.1-0.3-0.1-0.3-0.2-0.3c-0.1,0-0.1,0-0.1,0.1c0,0.1,0,0.3,0.1,0.4c0,0.1,0,0.3,0,0.3c0,0,0,0.1,0.1,0.3c0.1,0.2,0.1,0.3,0.2,0.2 c0,0,0,0,0.1,0.1c0,0.1,0.1,0.2,0.1,0.2c0,0,0.1,0,0.2,0.1c0,0.1,0.1,0,0,0C70.3,78.4,70.3,78.5,70.5,78.6 C70.6,78.8,70.6,78.8,70.5,78.6 M70.1,68.9c0-0.3-0.1-0.3-0.2-0.7c-0.1-0.2-0.2-0.4-0.2-0.4c0,0,0,0.1,0.1,0.1c0,0.1,0,0.1,0,0 c-0.1-0.1-0.1,0.1,0.1,0.5c0.1,0.3,0.2,0.8,0.1,1c0,0.1-0.1,0.1-0.1,0c-0.1-0.2-0.1-0.2,0,0c0.1,0.5,0.1,0.6-0.1,0.6 c-0.2,0-0.3,0.2-0.3,0.7c0,0.2,0,0.5,0.1,0.4c0-0.1,0,0,0.1,0.3c0.1,0.5,0.2,0.5,0.2,0c-0.1-0.3-0.1-0.4-0.2-0.5 c-0.1-0.2-0.1-0.3,0-0.2c0,0,0,0,0,0c0,0,0-0.1,0-0.1c0.1,0,0.2,0.1,0.1,0.2c0,0.1,0,0.1,0,0.3c0.1,0.2,0.1,0.2,0.1,0 c0-0.1,0-0.1,0.1-0.1c0.1,0.1,0-0.1-0.1-0.3c-0.1-0.2-0.1-0.2,0-0.2c0.1,0,0.1,0,0.2,0.2c0.1,0.3,0.2,0.3,0.1,0c0-0.2,0-0.2,0.1-0.2 c0.1,0,0.2,0,0.2-0.1c0-0.1,0-0.1,0.1,0c0.1,0.2,0.1,0,0-0.4C70.1,69.3,70.1,69.1,70.1,68.9 M69.6,66.9c-0.1,0-0.2-0.2-0.2-0.3 c-0.3-0.4-0.3-0.4-0.2-0.1c0.1,0.4,0.2,0.6,0.1,0.6c-0.1,0,0,0.3,0.1,0.5c0.1,0.1,0.1,0.1,0.1,0c0-0.1,0-0.1-0.1-0.1 c0,0-0.1-0.1-0.1-0.1c0-0.1,0.1-0.1,0.3,0c0.1,0.1,0.1,0.1,0.1-0.1c0-0.1,0-0.1,0.1-0.1C70,67.3,69.8,66.9,69.6,66.9 M69.7,64.7 c0,0,0-0.1,0-0.1C69.6,64.6,69.6,64.6,69.7,64.7C69.7,64.8,69.7,64.8,69.7,64.7 M64.7,55.6c0.1,0.1,0.2,0.1,0.3,0.2 c-0.1,0-0.1-0.1-0.2-0.2C64.8,55.6,64.8,55.5,64.7,55.6C64.6,55.5,64.6,55.5,64.7,55.6 M63.6,55.2c0.1,0.1,0.8,0.4,0.8,0.3 c0-0.1-0.1-0.2-0.5-0.3c-0.2-0.1-0.4-0.2-0.4-0.2c0,0-0.1-0.1-0.1,0C63.4,54.9,63.5,55,63.6,55.2 M64.3,55.8c0,0,0,0.1,0.1,0.2 c0.2,0.1,0.3,0.2,0.2,0.1C64.5,55.8,64.3,55.7,64.3,55.8 M60,54C59.9,54,59.9,54,60,54c0,0.1,0,0.2,0.1,0.2c0,0,0,0,0-0.1 C60.1,54.1,60.1,54.1,60,54 M57.2,52.1c0.2,0,0.3,0.1,0.4,0.1c0.2,0,0.5,0.1,0.5,0c0-0.1-0.1-0.2-0.3-0.2c-0.1,0-0.2-0.1-0.2-0.2 c0-0.1-0.3-0.1-0.3,0.1C57.2,52,57.2,52.1,57.2,52.1 M55.8,51.2c0.2,0,0.3,0.1,0.2,0.1c0,0.1,0.2,0.3,0.7,0.4c0.4,0.2,0.4,0.1,0.3,0 c-0.1-0.2-0.1-0.2-0.3-0.3c-0.1,0-0.2-0.1-0.3-0.2c-0.1-0.2-0.8-0.5-0.9-0.3c0,0.1,0,0.1,0,0.2c0,0,0,0,0,0.1 C55.5,51.1,55.6,51.2,55.8,51.2 M50.2,49.7c0.1,0,0.2,0,0.2,0c0.1,0,0.1-0.1,0-0.1C50.4,49.6,50.3,49.6,50.2,49.7 C50.1,49.7,50.1,49.7,50.2,49.7 M49.5,49.6c0.1,0.1,0.5,0.1,0.5,0c0,0-0.1-0.1-0.3-0.1C49.5,49.5,49.4,49.5,49.5,49.6 M49.1,49.7 c0,0.1,0.1,0.2,0.2,0c0-0.1,0-0.1-0.1-0.1C49.1,49.6,49,49.6,49.1,49.7 M49.1,53.2c0.1,0,0.2,0.1,0.3,0.2c0.1,0.1,0.3,0.2,0.5,0.2 c0.1,0,0.2,0,0.3,0c-0.1-0.1-0.2-0.2-0.3-0.3c-0.2-0.2-0.3-0.3-0.3-0.4c0-0.2,0.5-0.9,0.6-0.9c0,0,0.1,0,0.1-0.1 c0-0.1,0.3-0.2,1.1-0.3c0.2,0,0.4-0.1,0.4-0.2c0-0.1-0.5-0.2-0.6-0.1c-0.1,0-0.3,0.1-0.4,0c-0.5-0.1-1.2,0.2-1.3,0.4 c-0.1,0.2-0.2,0.3-0.2,0.2c-0.1,0-0.1,0.1-0.1,0.2c0,0.1,0,0.2,0,0.2c0,0-0.1,0.1-0.1,0.2c0,0.1-0.1,0.2-0.2,0.2 C48.7,52.8,48.9,53.1,49.1,53.2 M48.4,54c0,0.1,0,0.1,0,0.2c0.1,0.1,0.3,0,0.3-0.2C48.7,53.8,48.4,53.8,48.4,54 M47.2,49.4 c0,0.2,0.1,0.2,0.4,0c0.1,0,0.2-0.1,0.3-0.1c-0.1,0-0.2,0-0.3,0C47.4,49.3,47.2,49.3,47.2,49.4 M40.3,48.7c0.2,0,0.4,0.1,0.5,0.2 c0.2,0.1,0.9-0.1,0.9-0.3c-0.1-0.1-0.9-0.2-0.9-0.2c0,0-0.2,0-0.5,0C39.6,48.3,39.7,48.5,40.3,48.7 M38.1,48.7c0,0,0.1,0.1,0.1,0.1 c0.1,0,0.1,0,0.1,0.1c-0.1,0.2,0.4,0.3,0.6,0.2c0.1-0.1,0.2-0.1,0.3,0c0.1,0.1,0.1,0.1-0.2,0.2c-0.3,0.1-0.3,0.1-0.2,0.2 c0.1,0.1,0.2,0.1,0.1,0.1c-0.1,0,0,0.1,0.2,0.2c0.3,0.2,0.3,0.2,0.4,0c0-0.1,0.1-0.2,0.1-0.2s0.1-0.1,0.2-0.2 c0.1-0.1,0.2-0.2,0.2-0.2c0.2,0,0.4,0.2,0.3,0.4c-0.1,0.2,0.5,0.2,0.6,0c0-0.1,0-0.1,0-0.1c0,0-0.2,0-0.4-0.2 c-0.2-0.1-0.4-0.2-0.6-0.3c-0.1,0-0.3-0.1-0.3-0.2c0,0-0.1-0.1-0.1,0c-0.1,0-0.1,0-0.1-0.1c0-0.1-0.3-0.2-0.3-0.1c0,0.1,0,0.2,0,0.2 c0,0-0.1,0-0.1,0C39,48.6,38.1,48.5,38.1,48.7 M32.9,61c-0.2,0.2-0.2,0.2-0.1,0.3c0,0.1,0.2,0.1,0.3,0c0.1,0,0.3-0.1,0.5-0.2 c0.2-0.1,0.5-0.5,0.4-0.7c0-0.1,0-0.2,0.1-0.3c0.1,0,0.1-0.2,0.1-0.3c0-0.3-0.6-0.3-0.7,0c0,0.1-0.2,0.2-0.3,0.2 c-0.1,0-0.2,0.1-0.2,0.2c0,0.1,0,0.3,0,0.3C33,60.7,33,60.8,32.9,61 M34.1,58.6c0,0,0.1-0.1,0.1-0.1c0-0.1,0-0.1,0-0.1 c0,0-0.1,0.1-0.1,0.2C34.1,58.5,34.1,58.6,34.1,58.6 M34.1,62c0.1,0,0.4-0.1,0.6-0.2c0.3-0.1,0.6-0.1,0.7-0.1c0.2,0,0.3,0,0.4,0 c0.1,0,0.1-0.1,0.1-0.2c0-0.1,0-0.2,0.1-0.3c0.2-0.2,0.2-0.5-0.1-0.5c-0.1,0-0.2-0.1-0.2-0.3c0-0.2-0.1-0.3-0.2-0.4 c-0.1,0-0.1-0.2-0.1-0.3c0-0.1-0.1-0.3-0.2-0.3c-0.1-0.1-0.1-0.1,0-0.3c0.3-0.4,0.2-0.5-0.1-0.5c-0.3,0.1-0.3,0-0.1-0.2 c0.1-0.1,0.1-0.2-0.1-0.2c-0.1,0-0.3,0.1-0.3,0.1c0,0.1-0.2,0.3-0.3,0.5c-0.2,0.3-0.2,0.4-0.1,0.4c0.1,0,0.1,0,0,0.2 c0,0.2-0.1,0.2,0,0.1c0.1-0.3,0.2-0.2,0.1,0.2c-0.1,0.3-0.1,0.3,0.1,0.3c0.2-0.1,0.3,0,0.2,0.1c0,0.1,0,0.2,0,0.2c0,0,0,0.1,0,0.2 c0,0.1-0.2,0.2-0.3,0.2c-0.2,0-0.2,0-0.1,0.2c0.1,0.2,0.1,0.2-0.1,0.3c-0.1,0-0.2,0.1-0.2,0.2c0,0.1,0,0.1,0.1,0c0,0,0.2,0,0.3,0 c0.2,0.1,0.2,0.1,0.1,0.1c-0.1,0-0.3,0.2-0.5,0.3C33.9,62,33.9,62,34.1,62 M38,55.3c0-0.1-0.5-0.6-0.6-0.6c0,0-0.1,0-0.1,0.1 c0,0.1-0.2,0.1-0.5,0.2c-0.2,0-0.5,0.1-0.5,0.2c-0.1,0-0.2,0-0.2-0.1c-0.1-0.1-0.1-0.2-0.3-0.1c-0.3,0.1-0.4,0.3-0.1,0.3 c0.2,0,0.2,0,0.1,0.2c-0.1,0.1-0.1,0.2,0,0.2c0.1,0,0.1,0.2,0,0.3c0,0,0.1,0.1,0.4,0.1C36.7,56,37.8,55.8,38,55.3 M30.4,47.8 c0,0.1,0.4,0.1,0.4,0c0-0.1,0-0.1-0.2-0.1C30.6,47.8,30.5,47.8,30.4,47.8 M21.7,51.1C21.9,51,21.9,51,21.7,51.1 c-0.2,0.2-0.2,0.2,0,0.3c0.1,0,0.3,0,0.9-0.3c0.1-0.1,0.1-0.1,0,0c-0.2,0.1-0.1,0.2,0.1,0.1c0.1,0,0.2,0,0.1,0c0,0,0,0.1,0,0.1 c0,0-0.1,0.1-0.3,0.1c-0.2,0-0.3,0.1-0.3,0.1c0,0,0,0.1-0.2,0.2c-0.6,0.3-0.3,0.3,0.6,0.1c1.2-0.3,1.3-0.3,1.1-0.4 c-0.1,0-0.1-0.1,0-0.2c0.1-0.1,0.2-0.1,0.2-0.2c0-0.1,0.2-0.1,0.3-0.1c0.1,0,0.3-0.1,0.4-0.2c0.2-0.2,0.2-0.2,0.1-0.2 c-0.2,0-0.1-0.1,0.1-0.2c0.2,0,0.8-0.3,1.3-0.6c0.2-0.1,0.5-0.3,0.7-0.3c0.2-0.1,0.3-0.2,0.3-0.2c0,0,0.2-0.1,0.4-0.2 c0.3-0.1,0.5-0.2,0.5-0.2c-0.8-0.3-2.4,0.2-3.1,0.4c-0.3,0.1-0.6,0.2-0.7,0.3c-0.1,0.1-0.2,0.1-0.3,0.1c-0.1,0-0.2,0-0.4,0.1 c-0.1,0.1-0.3,0.2-0.5,0.2c-0.3,0.1-0.4,0.2-0.4,0.3c0.1,0.1,0.3,0.1,0.5,0c0-0.1,0.1-0.1,0.2-0.1c0.1,0,0.1,0-0.1,0.1 c-0.1,0.1-0.1,0.1,0.1,0c0.5-0.1,0.7-0.2,0.7-0.1c0,0-0.3,0.1-0.5,0.2c-0.3,0.1-0.5,0.1-0.5,0.2c0,0.1,0,0.1-0.1,0.1 c0,0-0.1-0.1-0.2-0.1c0,0-0.1,0-0.1,0c-0.1-0.1-0.4-0.2-0.5-0.1c-0.3,0.1-0.4,0.1-0.4,0.2c0,0-0.1,0.1-0.1,0.1 c-0.1,0-0.2,0.1-0.2,0.2C21.3,51.1,21.4,51.1,21.7,51.1 M21.8,51.7c0.1,0,0.1,0,0.1-0.1C21.9,51.5,21.8,51.5,21.8,51.7 C21.7,51.7,21.7,51.7,21.8,51.7 M21.7,51.9c0,0.1,0,0.1,0,0.1C21.7,52,21.7,51.9,21.7,51.9c0.1-0.1,0.1-0.1,0.1-0.1 C21.7,51.8,21.7,51.8,21.7,51.9 M20.7,51.2c0,0,0.1,0,0.1,0C20.9,51.1,20.9,51.1,20.7,51.2C20.8,51.1,20.7,51.2,20.7,51.2 M20.9,51.7C20.9,51.7,20.9,51.7,20.9,51.7c0,0.1,0.1,0.1,0.3,0c0.2-0.1,0.2-0.1,0.1-0.1c-0.1,0-0.1,0,0-0.2c0.1-0.1,0.1-0.1,0-0.1 c-0.1,0-0.2,0-0.2,0c0,0-0.1,0-0.2,0.1C20.7,51.6,20.7,51.7,20.9,51.7 M20.9,52.2c0.1,0,0.2,0,0.2,0.1c0,0.1,0,0.1,0,0.1 c0,0,0,0.1-0.1,0.2c0,0.1,0.2,0.1,1-0.1c0.5-0.1,1.1-0.2,1.2-0.3c0.1,0,0.1-0.1,0.1-0.1c0,0,0-0.1,0-0.1c0-0.1-0.3,0-0.8,0.1 c-0.7,0.2-0.8,0.2-0.8,0c0-0.1-0.2-0.1-0.4-0.1c-0.2,0-0.3,0-0.4,0c0,0-0.1,0-0.2,0.1C20.6,52.2,20.7,52.2,20.9,52.2 M20.5,52.6 c-0.1,0.1-0.1,0.1-0.2,0.1c0,0,0,0,0.1,0.1c0.2,0.1,0.5-0.1,0.4-0.3C20.7,52.4,20.7,52.4,20.5,52.6 M19.8,51.7 C19.9,51.7,19.9,51.7,19.8,51.7c-0.2,0.2-0.1,0.2,0.1,0.1c0.2,0,0.3-0.1,0.3,0c0,0.1,0.2,0,0.2-0.1c0.1-0.1,0-0.3-0.2-0.2 c-0.1,0-0.2,0-0.3,0C19.8,51.6,19.7,51.6,19.8,51.7C19.6,51.7,19.7,51.8,19.8,51.7 M19.3,52.3C19.3,52.3,19.3,52.4,19.3,52.3 c0.1,0.1,0.1,0,0.1,0C19.4,52.1,19.3,52.2,19.3,52.3 M19.2,52.6C19.2,52.7,19.2,52.7,19.2,52.6c0.1,0,0.2,0.1,0.1,0.1 c0,0.1,0.1,0,0.2,0c0.2-0.1,0.2-0.1,0.1,0c-0.1,0.1-0.1,0.2,0,0.1c0.2-0.1,0.4-0.3,0.6-0.5c0.1-0.2,0-0.2-0.2-0.1 c-0.2,0-0.2,0.1-0.2,0.1c0,0.1-0.1,0.1-0.1,0c0-0.1,0-0.1-0.1,0.1c-0.1,0.1-0.1,0.1-0.2,0C19.4,52.5,19.3,52.5,19.2,52.6 M18.9,53 C18.9,53.1,18.9,53.1,18.9,53c0.2-0.1,0.2-0.1,0.1-0.1C19,52.9,19,53,18.9,53 M18.9,53.7c0,0-0.1,0-0.1,0c0,0,0,0.1,0,0.1 c0.1,0,0.1,0.1,0.2,0.2c0.1,0.1,0.1,0.1,0.2,0.1c0.1-0.1,0.2-0.1,0.2-0.2c0.2,0,0.4-0.3,0.3-0.4c-0.1,0-0.1,0,0.1-0.2 c0.2-0.1,0.2-0.2,0.1-0.2c0,0-0.3,0-0.5,0.1c-0.2,0.1-0.3,0.3-0.2,0.2c0.1,0,0,0,0,0.1C19,53.7,19,53.8,18.9,53.7 M18.6,52.2 c0.2-0.1,0.3-0.1,0.3-0.1c0,0,0,0-0.1,0C18.8,52.1,18.7,52.1,18.6,52.2C18.3,52.3,18.3,52.3,18.6,52.2 M18.1,52.6c0,0,0,0.1,0.2,0 c0.1,0,0.3-0.1,0.3-0.2c0.1-0.1,0-0.1-0.1,0C18.3,52.4,18.2,52.5,18.1,52.6 M17.9,52.6C17.9,52.6,18,52.6,17.9,52.6 C18,52.5,18,52.5,17.9,52.6C18,52.6,17.9,52.6,17.9,52.6 M17.6,53.1c-0.2,0-0.3,0.1-0.5,0.3l-0.2,0.2c0,0,0.1,0,0.1,0 c0,0,0.1,0,0.2,0c0,0,0.1-0.1,0.2-0.1c0.1-0.1,0.1-0.1,0.1,0c0,0.1,0,0.1-0.1,0.1c-0.1,0-0.1,0-0.1,0.1c0,0,0.1,0,0.5-0.1 c0.2-0.2,0.5-0.3,0.6-0.3c0.2,0,0.5-0.2,0.6-0.4c0-0.1,0-0.1-0.1,0c-0.2,0.1-0.2,0-0.2-0.1c0.1-0.2,0-0.2-0.2,0 c-0.1,0.1-0.1,0.1-0.1,0.2c0,0.1,0,0.1-0.2,0.2c-0.1,0-0.2,0-0.2,0C17.9,53.1,17.7,53.1,17.6,53.1 M16.9,53.5 C17,53.4,17,53.4,16.9,53.5c0-0.1-0.1,0-0.2,0C16.7,53.7,16.8,53.6,16.9,53.5 M16.3,53.6c0.1,0,0.1,0,0.2,0c0.1,0,0.2-0.1,0.3-0.1 c0-0.1,0.1-0.1,0,0c0,0,0.1,0,0.2-0.1c0.1-0.1,0.2-0.2,0.2-0.1c-0.1,0.1,0.3-0.1,0.4-0.3c0.2-0.2-0.3,0-0.8,0.4 C16.6,53.4,16.5,53.5,16.3,53.6 M15,55.1c0,0,0.1,0,0.1,0.1c0.1,0.1,0.5,0,0.6-0.2c0.1-0.1,0.3-0.3,0.6-0.5c0.1,0,0.1,0,0.2-0.1 c-0.1,0.1-0.2,0.1-0.3,0.2c-0.1,0.1-0.2,0.1-0.2,0.2c0,0,0.1,0,0.1,0c0.2,0,0.2,0,0,0.1c-0.1,0-0.2,0.1-0.2,0.2c0,0,0.2,0,0.4,0 c0.2-0.1,0.4-0.1,0.4,0c0,0-0.1,0.1-0.2,0.1c-0.1,0-0.3,0.1-0.4,0.2c-0.1,0.1-0.2,0.1-0.3,0.1l0,0.1c0,0.1,0.1,0.1,0.2,0.1 c0.1,0,0.1,0,0.1,0.1c0,0.2,0.8-0.2,1.1-0.4c0.1-0.1,0.2-0.1,0.2-0.1c0.2,0.1,0.8-0.1,0.6-0.3c0,0,0-0.1,0.2-0.1 c0.1,0,0.1,0,0.2-0.1c0,0,0-0.1-0.1-0.1c0-0.1-0.1-0.1-0.2-0.1c0,0,0-0.1,0-0.3c0.1-0.3,0.1-0.4,0.3-0.5c0.1-0.1,0.2-0.2,0.2-0.2 c0.1-0.1-0.3,0-0.4,0.1c0,0.1-0.1,0.1-0.2,0.1c-0.1,0-0.1,0-0.2,0.3c-0.1,0.3-0.2,0.4-0.2,0.1c0.1-0.2,0-0.2-0.2,0 c-0.1,0.1-0.1,0.1-0.1,0c0-0.1,0-0.1-0.2,0c-0.2,0.1-0.2,0.1-0.1,0c0.1-0.1,0-0.1-0.1,0c-0.1,0-0.1,0-0.1,0c0.1-0.1,0-0.2-0.2-0.2 c-0.1,0-0.2,0.1-0.3,0.1c-0.1,0-0.3,0.1-0.4,0.1c-0.1,0.1-0.2,0.2-0.2,0.2c0,0-0.1,0.2-0.3,0.4C15.1,54.9,15.1,55,15,55.1 M3.5,74.9 c0,0,0,0.1-0.1,0.2c0,0.1-0.1,0.2,0,0.2c0,0,0.1-0.1,0.1-0.2C3.5,75,3.5,74.9,3.5,74.9 M8.6,84.6c0-0.1,0-0.2-0.1-0.2c0,0,0,0,0,0.1 c0,0.1,0,0.2,0.1,0.2C8.6,84.7,8.6,84.6,8.6,84.6 M17.9,105.9c0.1,0,0.1,0,0.1,0.2c0,0.1,0,0.1,0.1,0.1c0.1,0,0.1,0,0,0.2 c0,0.1-0.1,0.1-0.1,0.1c0,0-0.1,0-0.1,0c0,0,0.1,0.1,0.2,0.1c0.1,0,0.2,0.1,0.2,0.1c0,0,0.1,0.1,0.2,0.1c0.1,0,0.2,0,0.1-0.1 c-0.1-0.1-0.1-0.1,0,0c0.1,0.1,0.3,0.1,0.4,0.1c0.3,0,0.4-0.1,0.1-0.2c-0.2,0-0.8-0.5-0.8-0.6c0,0-0.1-0.1-0.2-0.2 c-0.2-0.1-0.2-0.1-0.1-0.1c0.1,0,0.1,0,0-0.2c-0.2-0.3-0.2-0.4,0-0.4c0.1,0,0.1-0.1,0.1-0.2c0-0.1,0.1-0.3,0.1-0.3 c0.2-0.1,0.2-0.4,0-0.5c-0.4-0.1-0.6-0.6-0.2-0.7c0.1,0,0.2-0.1,0.2-0.2c0-0.2,0-0.5,0-0.6c0,0,0-0.1,0.1-0.1c0,0,0,0,0-0.1 c0,0-0.2-0.2-0.2-0.3c-0.1-0.2-0.1-0.2,0.2-0.1c0.3,0.1,0.4,0.1,0.4-0.1c0-0.1,0-0.3-0.1-0.4c0-0.1,0-0.1,0.2-0.1 c0.5,0.1,0.8,0,1-0.3c0.1-0.2,0.1-0.5,0-0.5c0,0-0.1-0.1-0.1-0.2c0-0.1-0.1-0.3-0.2-0.4c-0.1-0.1-0.2-0.2-0.2-0.2c0-0.1,0-0.1,0.1,0 c0.1,0.1,0.4,0.2,0.6,0.3c0.4,0.1,0.5,0.1,0.7-0.1c0.1-0.2,0.2-0.4,0.2-0.6c0.1-0.4,0.2-0.8,0.3-0.7c0,0,0.1,0.1,0,0.2 c0,0.1,0,0.1,0,0c0-0.1,0.2-0.3,0.2-0.5c0.1-0.2,0.2-0.5,0.1-0.8c0-0.3,0-0.6,0-0.7c0.2-0.3,1-0.7,1.4-0.7c0.3,0,0.6-0.2,0.6-0.4 c0-0.1,0-0.3,0.1-0.5c0.1-0.2,0.1-0.4,0.1-0.5c0,0,0-0.3,0-0.5c0-0.2,0-0.8,0-1.2c-0.1-0.5,0-0.8,0.1-1c0.4-0.6,0.8-1.2,1-1.9 c0-0.2,0-0.6-0.1-0.9c-0.1-0.4-0.2-0.5-0.4-0.6c-0.1,0-0.5-0.3-0.8-0.6c-0.5-0.5-0.7-0.6-1-0.6c-0.2,0-0.5-0.1-0.6-0.2 c-0.1-0.1-0.3-0.1-0.4-0.1c-0.2,0.1-0.2,0.1-0.2-0.2c0-0.2-0.1-0.3-0.6-0.6c-0.2-0.1-0.3-0.2-0.6-0.3c-0.1,0.1-0.1,0.2-0.2,0.4 c-0.1,0.2-0.2,0.3-0.3,0.3c0,0,0-0.2,0.1-0.3c0.2-0.3,0.1-0.5-0.2-0.6c-0.2-0.1-0.3,0-0.4,0.2c-0.1,0.3-0.1,0.3-0.2,0.1 c0-0.2,0.1-0.4,0.2-0.7c0.2-0.3,0.2-0.4,0-0.6c-0.1-0.1-0.2-0.4-0.3-0.6c-0.1-0.2-0.3-0.7-0.4-0.9c-0.2-0.4-0.3-0.5-0.8-0.6 c-0.5-0.1-0.6-0.2-0.8-0.7c-0.1-0.4-0.3-0.6-0.4-0.6c-0.2,0-0.2-0.1-0.1-0.3c0.1-0.2,0.1-0.3-0.1-0.4c-0.1,0-0.2-0.2-0.2-0.3 c0-0.2,0-0.2-0.4-0.1c-0.3,0.1-0.4,0.1-0.5,0c-0.1-0.1-0.2-0.1-0.3-0.1c-0.2,0-0.3-0.1-0.3-0.2c0-0.2-0.1-0.3-0.2-0.3 c0,0-0.1-0.1-0.1-0.1c0,0,0,0,0,0.1c0,0.1-0.1,0.2-0.1,0.1c-0.1,0-0.2,0-0.3,0.1c-0.2,0.2-0.2,0,0-0.3c0.2-0.4,0.2-0.4-0.2-0.1 c-0.2,0.1-0.3,0.2-0.4,0.2c-0.1,0-0.1,0-0.2,0.1c0,0-0.1,0.1-0.2,0.1c0,0-0.1,0-0.1,0c0,0-0.1,0.1-0.1,0.2c0,0.1-0.2,0.3-0.4,0.5 c-0.3,0.4-0.3,0.4-0.4,0.1c-0.1-0.4-0.3-0.5-0.6-0.3c-0.2,0.2-0.3,0.1-0.4,0c-0.1-0.1-0.1-0.3-0.1-0.5c0-0.3,0-0.4,0.3-1.2 c0.3-0.8,0.4-0.8,0.3-1.1c0-0.2-0.1-0.2-0.5-0.3c-0.6,0-0.6,0-0.5-0.2c0.1-0.1,0.2-0.4,0.3-0.6c0.1-0.2,0.2-0.4,0.2-0.4 c0,0,0.1-0.1,0.2-0.3c0.1-0.2,0.2-0.4,0.3-0.5c0.3-0.4,0.3-0.5-0.1-0.5c-0.4,0.1-0.6,0.2-0.7,0.6c-0.1,0.3-0.5,0.7-0.5,0.6 c0,0-0.1,0-0.3,0c-0.4,0.2-0.5-0.1-0.4-0.8c0-0.5,0.1-0.7,0.4-1.4c0.2-0.4,0.3-0.8,0.4-0.8c0,0,0.1-0.2,0.2-0.4c0.1-0.4,0.5-1,0.7-1 c0,0,0.2-0.1,0.3-0.2c0.2-0.2,0.6-0.2,1,0c0.2,0.1,0.2,0.1,0.3-0.2c0.1-0.3,0.1-0.3,0.5-0.3c0.2,0,0.4,0.1,0.4,0.2 c0,0.1,0.1,0.1,0.2,0.1c0.2-0.1,0.3,0.3,0.1,0.7c-0.1,0.1-0.1,0.4-0.1,0.5c0,0.2,0,0.4,0,0.4c0,0.1,0,0.4,0.1,0.4 c0,0,0.2-0.1,0.2-0.3c0.2-0.3,0.2-0.6,0.4-1.5c0-0.2,0.1-0.5,0.1-0.5c0.1-0.2,0.5-0.8,0.5-0.8c0,0,0.2-0.1,0.4-0.3 c0.1-0.2,0.3-0.3,0.4-0.3c0,0,0.2-0.1,0.2-0.2c0.1-0.1,0.2-0.2,0.3-0.2c0.1,0,0.1-0.1,0.2-0.2c0-0.1,0.1-0.2,0.1-0.1 c0,0,0.1,0,0.1,0c0-0.1,0.1-0.1,0-0.1c0,0,0,0,0.1-0.2c0.1-0.1,0.1-0.2,0.1-0.3c0-0.2,0.2-0.7,0.3-0.9c0.1-0.1,0.1-0.1,0,0.2 c-0.1,0.4-0.1,0.4,0,0.2c0.1-0.1,0.2-0.3,0.2-0.4c0-0.1,0.1-0.2,0.2-0.2c0.1,0,0.2-0.1,0.3-0.3c0.1-0.2,0.2-0.3,0.3-0.3 c0.1,0,0.2,0,0.1-0.1c0-0.1,0.1-0.1,0.3-0.2c0.3-0.1,0.4-0.1,0.4-0.2c0-0.3,0.4-0.8,0.8-1c0.2-0.1,0.4-0.2,0.5-0.3 c0.1-0.1,0.2-0.2,0.3-0.2c0,0,0.2-0.1,0.3-0.1c0.2-0.1,0.2-0.1,0,0.1c-0.1,0.1-0.2,0.2-0.3,0.2c-0.1,0-0.2,0.4-0.2,0.4 c0,0.1,0.1,0,0.3-0.1c0.2-0.1,0.3-0.2,0.4-0.3c0.3-0.1,0.8-0.4,0.8-0.6c0-0.1,0.1-0.1,0.1,0c0,0.1,0,0.1,0.1,0 c0.1-0.1,0.1-0.1,0.1-0.1c0,0,0-0.1,0-0.2c0.1-0.2,0-0.2-0.2,0.1c-0.2,0.3-0.3,0.3-0.5,0.3c-0.3,0-0.4-0.3-0.3-0.7 c0.1-0.2,0.1-0.2,0-0.3c-0.1,0-0.1,0,0.1-0.1c0.1,0,0.3-0.2,0.3-0.3c0.1-0.1,0-0.2-0.3-0.2c-0.4,0-0.8,0.3-1.3,0.7 c-0.2,0.2-0.2,0.2,0.1-0.2c0.2-0.2,0.5-0.5,0.7-0.6c0.2-0.1,0.4-0.3,0.5-0.4c0.2-0.2,0.4-0.2,0.9-0.1c0.6,0,0.7,0,1-0.2 c0.2-0.2,0.5-0.3,0.7-0.4c0.3-0.1,0.4-0.2,0.5-0.5c0.1-0.3,0.1-0.4-0.1-0.5c-0.1-0.1-0.2-0.2-0.1-0.3c0.1-0.1,0.1-0.1,0.1-0.1 c-0.1,0-0.2-0.1-0.2-0.1c0,0-0.1,0-0.2,0c-0.1,0-0.2-0.1-0.1-0.1c0-0.1,0-0.2-0.1-0.2c0-0.1,0-0.2,0-0.3c0-0.1,0.1-0.5,0-0.9 c0-0.3,0-0.4,0-0.7c-0.1,0.2-0.2,0.2-0.3,0.4c-0.4,0.4-0.7,0.6-0.8,0.4c0-0.1-0.1-0.1-0.2-0.1c-0.1,0-0.1,0,0.1-0.4 C23,58,23,58,22.8,58c-0.1,0-0.2-0.1-0.2-0.2c0.1-0.2-0.1-0.3-0.3-0.3c-0.1,0-0.3,0-0.4,0c-0.1,0-0.2,0-0.3,0c0,0-0.2,0.3-0.3,0.6 c-0.2,0.4-0.2,0.5-0.4,0.7c-0.2,0.2-0.2,0.2-0.1,0.4c0.1,0.2,0,0.6-0.2,0.9c-0.1,0.1-0.3,0.3-0.5,0.4c-0.2,0.1-0.2,0.2-0.4,0.3 c-0.1,0.2-0.1,0.2-0.1,0.4c-0.2,0.6-0.3,0.7-0.5,0.9c-0.2,0.1-0.2,0.1-0.3-0.2c0-0.2,0-0.5,0-0.5c0.4-0.8,0.4-0.8,0.1-0.8 c-0.2,0-0.3,0-0.3-0.1c0-0.1,0-0.1-0.1-0.1c-0.1,0-0.2-0.1-0.2-0.2c-0.1-0.1-0.2-0.2-0.4-0.2c-0.3,0-0.3,0-0.2-0.3 c0-0.2,0-0.3,0-0.3c-0.1-0.1,0-0.3,0.4-0.8c0.4-0.4,0.9-0.9,1-0.9c0.1,0,0.1-0.1,0.1-0.1c0-0.2,0.3-0.4,0.5-0.4c0.2,0,1.1-0.9,1-1 c0,0,0,0,0.1,0c0.1,0,0.2,0.1,0.2,0.2c0,0.1,0,0.1,0.1,0c0-0.1,0.1-0.2,0.2-0.2c0.1,0,0.3-0.1,0.4-0.2c0.1,0,0.1-0.1,0.2-0.1 c0,0,0-0.1,0-0.2c0-0.1,0-0.3,0.1-0.3c0,0,0.1,0,0.1-0.1c0-0.1,0-0.2-0.1-0.2c-0.1-0.1-0.2-0.1-0.2-0.1c0,0,0.2,0,0.5-0.1 c0.4,0,0.5-0.1,0.6-0.2c0.1-0.2,0.1-0.2,0.2,0c0,0.1,0.1,0.2,0,0.3c0,0,0,0,0.1,0c0.1,0,0.1,0,0.1,0c0,0.1,0,0.2,0.2,0.2 c0.3,0.2,0.2,0.6-0.3,0.9c-0.1,0.1-0.2,0.1-0.2,0.2c0,0.1-0.1,0.2-0.3,0.2c-0.2,0.1-0.3,0.1-0.4,0c-0.1-0.1-0.4,0.1-0.5,0.4 c0,0,0.2,0,0.4,0c0.3-0.1,0.5-0.1,0.5,0.1c0,0.1,0.1,0.2,0.1,0.1c0.1,0,0.1,0,0,0.1c-0.1,0.1,0,0.4,0.2,0.3c0.1-0.1,0.1,0,0.1,0 c0,0,0.1,0.1,0.2,0.2c0.1,0,0.2,0.1,0.3,0.1c0.2,0.1,0.2-0.2,0-0.4c-0.2-0.3-0.1-0.4,0.2-0.1c0.2,0.2,0.2,0.2,0.4,0 c0.1-0.2,0.2-0.2,0.2-0.5c0-0.1,0-0.2-0.1-0.2c0,0-0.1-0.1-0.1-0.2c-0.1-0.2,0-0.2,0.1-0.4c0.2-0.2,0.3-0.1,0.4,0.2 c0,0.2,0.2,0.2,0.3,0c0-0.1,0.1-0.1,0.1-0.1c0,0,0.2-0.1,0.3-0.2c0.1-0.1,0.2-0.2,0.3-0.3c-0.1,0-0.1,0-0.2,0 c-0.1,0-0.2-0.1-0.2-0.2c0-0.1-0.1-0.1-0.2-0.2c-0.5-0.1-0.6-0.4-0.2-0.5c0.1,0,0.1,0,0-0.1c-0.1-0.1-0.1-0.1,0-0.1 c0.1,0,0.1-0.1,0.2-0.2c0-0.1-0.1-0.1-0.2,0c-0.1,0.1-0.1,0-0.1,0c0.1-0.1,0.1-0.1-0.2-0.1c-0.1,0-0.1,0-0.1-0.1 c0.1-0.1-0.2-0.3-0.3-0.1c-0.1,0.1-0.2,0-0.2-0.2c0-0.1-0.1-0.2-0.2-0.2c-0.1,0-0.1,0,0-0.1c0.1-0.2-0.1-0.3-0.4-0.2 c-0.2,0-0.3,0.1-0.3,0.2c-0.1,0.1-0.1,0.1,0,0c0-0.1,0-0.1-0.3,0c-0.4,0.1-0.6,0.3-0.7,0.6c0,0.1-0.1,0.2,0,0.2c0,0,0,0,0,0.1 c-0.1,0.1-0.1,0.1-0.2,0c0-0.1,0-0.2,0-0.2c0-0.1,0.1-0.2,0.1-0.2c0,0,0.1-0.1,0.2-0.2c0.2-0.1,0.2-0.1,0-0.1 c-0.3,0.1-0.6,0.2-0.9,0.6c-0.2,0.3-0.2,0.3-0.2,0.5c0,0.2,0.1,0.2,0.3,0.3c0.2,0,0.3,0.1,0.2,0.1c-0.2,0.1-0.3,0.3-0.2,0.2 c0,0,0,0.1-0.2,0.2c-0.1,0.1-0.3,0.2-0.3,0.2c0,0-0.1,0-0.1,0.1c-0.1,0.2-0.2,0.3-0.2,0.1c0-0.1,0-0.2,0.1-0.2 c0.1-0.1,0.1-0.1,0.1-0.2c-0.1-0.1-0.1-0.1-0.3,0.1c-0.3,0.3-0.3,0.2-0.2,0c0.1-0.1,0.1-0.2,0-0.2c-0.1,0-0.1-0.1,0.1-0.2 c0.1-0.1,0.1-0.6,0-0.5c0,0,0-0.1,0.2-0.2c0.1-0.1,0.3-0.2,0.3-0.2c0.1,0,0.6-0.4,0.7-0.5c0.1-0.1-0.8,0.1-0.9,0.2 c-0.1,0.1-0.2,0.2-0.2,0.3c-0.1,0.3-0.2,0.4-0.4,0.5c-0.1,0.1-0.2,0.2-0.3,0.3c-0.1,0.2-0.1,0.3,0.2,0.3c0,0,0,0-0.1,0.1 c-0.1,0.1-0.1,0.1,0,0.1c0.1,0-0.1,0.2-0.3,0.3c-0.1,0.1-0.2,0.1-0.3,0.3c-0.1,0.2-0.1,0.2-0.1,0.2c0,0,0-0.1,0-0.2 c0-0.1,0.1-0.2,0.1-0.2c0-0.1,0-0.1,0-0.1c0,0,0.1,0,0.2,0c0.1,0,0.1,0,0.1-0.2c0-0.2-0.2-0.2-0.4,0c-0.2,0.2-0.2,0.2-0.1,0.2 c0.1,0,0.1,0.1-0.1,0.3c-0.2,0.2-1,0.3-1.1,0.1c0-0.1-0.5,0-0.6,0.2c0,0,0.1,0,0.2-0.1c0.2-0.1,0.3-0.1,0.2-0.1c0,0-0.1,0.1-0.2,0.2 c-0.2,0.1-0.2,0.1-0.3,0.3c-0.1,0.1-0.1,0.2-0.2,0.3c0,0,0,0,0-0.1c0.1-0.2-0.1-0.3-0.6-0.1c-0.3,0.1-0.4,0.1-0.3,0 c0.1-0.1,0.1-0.1,0.2-0.2c0.2,0,0-0.2-0.2-0.1c-0.1,0-0.3,0-0.4,0c-0.1-0.1-0.3,0-0.4,0c-0.1,0.1-0.2,0.1-0.2,0c0-0.1,0-0.1-0.1,0 c-0.2,0.2-0.2,0.2-0.2,0c0-0.1,0-0.1-0.1,0c-0.1,0.1-0.2,0.2-0.4,0.2c-0.4,0.1-0.8,0.3-0.9,0.5C13.3,57,13.3,57,13.2,57 c-0.2,0,0-0.3-0.6-0.1c-0.1,0-0.2,0-0.2,0c0,0-0.1,0-0.2,0c-0.1,0-0.1,0-0.2,0c0,0-0.1,0-0.1,0.1c-0.1,0.1-0.2,0.1-0.3,0.2 c-0.2,0.1-0.3,0.2-0.4,0.3c-0.3,0.4-0.6,0.7-0.9,1.1c0,0,0,0,0.1-0.1c0.1-0.1,0,0.1-0.1,0.2c0,0-0.1,0.1-0.1,0.1l-0.3,0.5 c0,0,0.1-0.1,0.1-0.1c0.1-0.1,0.1-0.1,0,0c-0.1,0.1-0.1,0.2-0.2,0.2c0,0.1-0.2,0.2-0.3,0.3c-0.3,0.4-0.5,0.7-0.8,1.1 c0,0,0,0-0.1,0.2c-0.1,0.2-0.1,0.2,0,0.1c0.1,0,0.1,0,0.1,0c0,0,0,0,0,0c0,0,0.1-0.1,0.2-0.1c0.1,0,0.1,0-0.1,0.2 c-0.1,0.1-0.3,0.4-0.5,0.5C8.2,62,8,62.1,7.9,62.2c0,0-0.1,0.1-0.1,0c0,0,0,0-0.1,0.1c0,0.1-0.1,0.1-0.1,0.1c0.1,0,0.1-0.1,0.2-0.1 c0.1-0.1,0.3-0.2,0.4-0.3c0.1-0.1,0.3-0.2,0.3-0.2c0,0,0.1-0.1,0.1-0.1c0,0,0.2-0.2,0.3-0.2c0.1-0.1,0.3-0.3,0.4-0.3 c0.1-0.1,0.2-0.2,0.1-0.2c-0.1,0,0.1-0.2,0.2-0.2c0.1,0,0.1-0.1,0.2-0.2c0.1-0.1,0.5-0.5,0.6-0.5c0.1,0,0.1,0,0,0 c-0.1,0.1-0.5,0.5-0.4,0.5c0,0,0,0-0.1,0.1c-0.2,0.2,0,0.1,0.2-0.1c0.1-0.1,0.2-0.2,0.3-0.2c0,0,0.1-0.1,0.2-0.2 c0.1-0.2,0.1-0.2,0.2-0.1c0,0,0,0.1,0.1,0.1c0.1,0-0.1,0.3,0,0.4c0,0.1,0.1,0.1,0.2,0c0-0.1,0,0-0.1,0.1c-0.2,0.2-0.4,0.7-0.3,0.7 c0,0,0.3-0.5,0.3-0.6c0,0,0-0.1,0.1-0.1c0,0,0.1-0.1,0.1-0.1c0-0.1,0-0.1,0,0c0,0.1-0.1,0.2-0.1,0.2c0,0.1-0.1,0.1-0.1,0.2 c0,0,0,0.1,0,0.1c0,0,0.1-0.1,0.1-0.2c0-0.1,0.1-0.1,0.1-0.1c0,0.1-0.1,0.4-0.2,0.4c0,0-0.1,0.1-0.1,0.1c0,0,0,0.1,0,0 c0,0,0,0,0,0.2c-0.1,0.1-0.1,0.3-0.1,0.3c0,0.1,0,0.1,0.1-0.1c0.1-0.1,0.1-0.2,0.1-0.2c0,0,0,0,0-0.1c0-0.2,0.1-0.2,0.1-0.2 c0.1,0,0.1,0,0,0.1c-0.1,0.1-0.1,0.5,0,0.5c0,0,0,0.1-0.2,0.3c-0.2,0.4-0.2,0.5,0,0.2c0.1-0.1,0.1-0.1-0.1,0.1 c-0.2,0.2-0.2,0.2-0.1,0.2c0.1-0.1,0.1,0,0,0.2c0,0.1-0.1,0.2-0.1,0.2c-0.1,0.1-0.1,0.2,0,0.2c0.1,0,0.1,0,0,0.1 c-0.1,0.1-0.1,0.1-0.2,0c0,0,0,0-0.1,0c-0.1,0.1,0.1,0.8,0.2,0.8c0.1,0,0.1-0.1,0.1-0.2c0-0.2,0.1-0.5,0.1-0.5c0,0,0,0,0,0.1 c0,0,0,0.1,0,0.1c0.1,0.1,0,0.2-0.1,0.5c-0.1,0.2-0.1,0.2-0.3,0c0,0,0,0-0.1,0.2c-0.1,0.2-0.2,0.4-0.5,1c-0.4,0.7-0.8,1.3-1.1,2 c0,0,0,0.1-0.1,0.2c-0.1,0.2-0.2,0.6-0.1,0.5c0.1-0.1,0,0,0,0.1c-0.1,0.1-0.2,0.4-0.2,0.6c0,0.3-0.1,0.5-0.1,0.6c0,0,0,0.1,0.1,0.2 c0.2,0.1,0.2,0.3,0,1.1c-0.1,0.4-0.2,0.9-0.2,1c0,0.3,0,0.3-0.1,0.5c-0.2,0.2-0.2,0.1,0,0.7c0,0.1,0,0.3,0,0.4c-0.1,0.2-0.1,1,0,0.9 c0.1-0.1,0.1-0.4,0.1-0.5c0,0,0-0.3,0.1-0.5c0.1-0.2,0.1-0.5,0.1-0.5c0,0,0-0.3,0-0.6c0-0.3,0.1-0.6,0.1-0.6c0-0.1,0.1-0.3,0.2-0.5 c0.1-0.4,0.1-0.4,0.2-0.3c0.1,0.1,0,0.3,0,0.6c-0.1,0.2-0.1,0.7-0.1,1c0,0.3,0,0.6,0,0.7c0,0,0,0.3,0,0.7c0,0.7,0,1.2-0.2,1.5 c-0.1,0.1-0.1,0.3-0.1,0.3c0,0.2,0.1,0.7,0.2,0.8c0.1,0,0.1,0.2,0.2,0.2c0,0.1,0.2,0.3,0.3,0.5c0.3,0.3,0.3,0.4,0.5,0.2 c0.2-0.2,0.3-0.1,0.4,0.5c0,0.3,0.5,0.8,0.7,0.8c0,0,0.1,0.1,0.1,0.1c0,0.1,0,0.3,0,0.5c0,0.2,0,0.5,0,0.7c0,0.1-0.1,0.3,0,0.3 c0.2,0.1,0.3,0.3,0.2,0.5c0,0.2,0,0.2,0.2,0.3c0.1,0,0.2,0.1,0.2,0.3c0.1,0.3,0.3,0.3,0.3,0.1c0-0.2,0.4-0.6,0.4-0.5 c0,0,0,0.3,0,0.6c0,0.5-0.2,2.2-0.4,2.2c0,0-0.1,0.1-0.1,0.3c0,0.2,0,0.3-0.1,0.3c-0.1,0-0.2,1-0.2,1.4c0,0.2,0.1,0.3,0.2,0.3 c0.2,0,0.2,0.3,0,0.5c-0.2,0.3-0.1,1,0.2,1.4c0.1,0.2,0.4,0.7,0.6,1.2c0.2,0.5,0.5,1.1,0.7,1.4c0.1,0.3,0.3,0.6,0.3,0.7 c0,0.2,0.5,0.8,1,1.2c0.6,0.5,0.9,1,1,1.8c0.1,0.9,0.3,1.8,0.4,2.8c0,0.3,0,0.6,0.1,0.7c0.1,0.1,0.1,0.2,0,0.2c-0.1,0,0,0.2,0.1,0.5 c0.2,0.5,0.2,1,0.1,1.7c0,0.4,0,0.6,0.1,0.9c0.1,0.2,0.1,0.4,0.1,0.4c0,0.1,0,0.3,0,0.5c0,0.2,0.1,0.5,0.1,0.6c0,0.1,0,0.2,0.1,0.1 c0,0,0-0.1,0-0.3c0-0.2,0-0.3,0-0.3c0.1,0,0.2,0.3,0.3,0.9c0,0.1,0,0.2,0,0.4c0,0.2,0,0.3-0.1,0.2c-0.1-0.1-0.2,0-0.3,0 c-0.1,0.1-0.1,0.1,0,0.1c0.3,0,0.4,0.2,0.5,0.8c0,0-0.1-0.1-0.2-0.2c-0.1-0.1-0.2-0.2-0.2-0.1c0,0,0,0.1,0.1,0.2 c0.1,0.1,0.1,0.2,0.2,0.4c0,0.2,0,0.3,0.1,0.1c0-0.1,0.1-0.2,0.1-0.1c0.1,0,0.1,0.4,0.1,0.5c0,0,0,0.1,0.1,0.1 c0.1,0,0.2,0.1,0.4,0.5c0.2,0.2,0.2,0.4,0.2,0.4c0,0,0,0,0,0.1c0,0.1,0.2,0.1,0.2,0.1c0.1,0,0.2,0,0.2,0.1c0,0,0,0.1,0.1,0.1 c0,0,0.1-0.1,0.1-0.2C17.8,106,17.9,105.9,17.9,105.9 M9.3,61.2C9.3,61.3,9.3,61.2,9.3,61.2c0.2-0.2,0.2-0.2,0.1-0.2 C9.4,61.1,9.3,61.1,9.3,61.2c0,0-0.1,0.1-0.2,0.1c-0.2,0.1-0.3,0.3-0.1,0.2C9.1,61.4,9.3,61.2,9.3,61.2 M10.1,62.6 c0,0,0.1-0.1,0.2-0.3c0.1-0.2,0.1-0.3,0.1-0.3c0,0-0.1,0.1-0.1,0.1C10.1,62.3,10.1,62.6,10.1,62.6 M23.5,55c0,0-0.1,0.1-0.2,0.1 c-0.3,0.1-0.6,0.5-0.3,0.5c0.2,0,0.3-0.1,0.5-0.4C23.5,55.1,23.5,55,23.5,55 M23.5,55.3c0,0,0.1,0,0.1,0 C23.7,55.2,23.7,55.2,23.5,55.3C23.5,55.2,23.5,55.2,23.5,55.3 M22.9,54.8c-0.1,0.1-0.2,0.2-0.1,0.2S22.9,54.9,22.9,54.8 C23.2,54.5,23.2,54.6,22.9,54.8 M21.8,57.1C21.8,57.1,21.7,57.1,21.8,57.1C21.8,57.2,21.9,57.2,21.8,57.1 C21.9,57.1,21.9,57.1,21.8,57.1 M21.4,57C21.4,56.9,21.4,56.9,21.4,57c-0.1-0.1-0.2-0.1-0.1-0.2c0.1-0.1-0.1-0.3-0.3-0.3 c0,0,0-0.1,0-0.2c0-0.1,0.1-0.1,0-0.1c0,0-0.1,0-0.1,0.1c-0.1,0-0.2,0.2-0.3,0.4c-0.1,0.2-0.3,0.4-0.4,0.5c-0.2,0.2-0.2,0.2,0,0.1 c0.1-0.1,0.2,0,0.2,0c0,0.1,0.1,0.1,0.3-0.1c0.2-0.2,0.3-0.2,0.4-0.1C21.2,57.2,21.3,57.2,21.4,57 M21.1,57.7c0,0,0,0.1,0,0.1 c0,0,0.1-0.1,0.2-0.1c0.1-0.1,0.1-0.1,0-0.1C21.2,57.6,21.1,57.6,21.1,57.7 M20.8,57.4c-0.1,0-0.2,0.1-0.2,0.1c-0.1,0.1,0,0.1,0,0.1 c0.1,0,0.2-0.1,0.2-0.1C20.9,57.4,20.9,57.4,20.8,57.4 M20.1,60c0,0-0.1,0-0.1,0.1c0,0.1,0,0.1,0,0C20,60.1,20.1,60.1,20.1,60 C20.1,60,20.1,60,20.1,60 M19,61.4c-0.1,0-0.1,0-0.1,0.1c0,0,0,0.1,0,0.1c0,0,0.1,0,0.1,0C19,61.4,19,61.4,19,61.4 M24.5,63.8 c0,0,0-0.1,0-0.2c0.1-0.2,0-0.1-0.2,0.1c-0.2,0.2-0.2,0.2-0.1,0.3c0.1,0,0.1,0,0.2-0.1C24.5,63.9,24.5,63.8,24.5,63.8 M24.5,62.9 c-0.2,0-0.3,0-0.3-0.1c0-0.1-0.1-0.1-0.2-0.1c-0.1,0.1,0-0.2,0.3-0.5c0.3-0.4,0-0.3-0.3,0.1c-0.2,0.2-0.4,0.4-0.4,0.6 c-0.1,0.1-0.2,0.2-0.2,0.2c0,0-0.1,0.1-0.1,0.2c0,0.1-0.1,0.2-0.2,0.2c0,0-0.1,0-0.1,0.1c0,0.1,0.2,0.1,0.5,0.1c0.5,0,0.5,0,0.4,0.1 c-0.3,0.3,0,0.2,0.4-0.2c0.2-0.2,0.3-0.3,0.3-0.3c-0.1,0.1-0.1,0,0-0.2C24.7,62.8,24.7,62.8,24.5,62.9 M22.5,62.9 c-0.1-0.2-0.3-0.3-0.3-0.1c0,0,0.1,0.1,0.2,0.2C22.5,63.1,22.6,63.1,22.5,62.9 M21.8,64.2c-0.1,0-0.2-0.1-0.2-0.2c0,0,0,0,0,0.1 c0,0.1,0.1,0.2,0.2,0.2C21.9,64.3,21.9,64.3,21.8,64.2 M16.5,80.4c0,0-0.1,0-0.1,0.1c0,0.1,0,0.1,0,0.1c0,0,0.1-0.1,0.1-0.1 C16.5,80.5,16.5,80.4,16.5,80.4 M16.1,76.8c-0.1,0-0.2,0-0.2,0.1c0,0.1,0,0.1,0.1,0.1c0.1,0,0.2,0,0.2-0.1 C16.3,76.9,16.2,76.8,16.1,76.8 M13.7,75.8c-0.1,0.2,0,0.2,0.2,0.2c0.3,0,0.6-0.1,0.4-0.3c0,0-0.2-0.2-0.3-0.3 c-0.7-0.9-0.8-1-1.2-0.8c-0.1,0-0.3,0.2-0.4,0.3c-0.1,0.2-0.1,0.2,0,0.1c0.1,0,0.2-0.1,0.3-0.2c0.1-0.1,0.4-0.1,0.3,0 c0,0.1,0,0.1,0.1,0.1c0.1,0,0.2,0.1,0.2,0.1c0,0.1,0.1,0.1,0.2,0.2c0.1,0,0.1,0.1,0.1,0.2c0,0.1,0,0.2,0.1,0.2 C13.7,75.6,13.7,75.6,13.7,75.8 M13.1,76.7c0,0.1,0.1,0.1,0.2,0.1c0.2,0,0.2,0,0.2-0.1C13.4,76.5,13.1,76.5,13.1,76.7 M14.2,73.9 c0,0,0.1,0,0.1-0.1c0-0.1,0-0.1,0-0.1c0,0-0.1,0.1-0.1,0.1C14.1,73.9,14.1,73.9,14.2,73.9 M14.1,76.7c0,0.1,0.6,0.3,0.8,0.2 c0,0,0.2-0.1,0.4-0.1c0.2,0,0.3,0,0.3,0c0,0,0-0.2-0.2-0.3c-0.2-0.3-0.9-0.5-0.8-0.2c0.1,0.3-0.1,0.5-0.3,0.4 C14.2,76.6,14.1,76.6,14.1,76.7 M24.2,111.4C24.2,111.5,24.2,111.5,24.2,111.4c0.1,0.1,0.1,0.1,0.1,0 C24.3,111.4,24.3,111.4,24.2,111.4 M23.5,113.2c-0.2,0-0.2,0.1,0.2,0.1c0.6,0.1,0.6,0,0-0.7c-0.3-0.4-0.4-0.4-0.5-0.4 c-0.1,0-0.1,0.1,0,0.2c0,0.1,0.1,0.2,0,0.2c0,0,0,0.1,0.1,0.1c0.2,0.1,0.2,0.1-0.1,0.1c-0.1,0-0.2,0-0.3,0c0,0-0.1,0-0.2,0 c-0.1,0-0.1,0,0,0.1c0.1,0.1,0.2,0.1,0.3,0.1c0.1,0,0.2,0,0.3,0.1C23.5,113.2,23.5,113.2,23.5,113.2 M22.5,112.6 c0,0,0.1,0.1,0.2,0.1c0.3,0,0.3,0,0-0.1C22.6,112.6,22.5,112.5,22.5,112.6 M22.6,112.4c0.1,0,0.1,0.1,0.1,0 C22.7,112.4,22.6,112.4,22.6,112.4C22.5,112.3,22.5,112.4,22.6,112.4 M23.6,112.1c0,0,0.1-0.1,0-0.1c0-0.1-0.1-0.1-0.2,0 C23.5,112,23.5,112.1,23.6,112.1 M22.3,112.9C22.2,112.8,22.1,112.8,22.3,112.9c-0.1,0.1,0,0.2,0.1,0.2c0,0,0.1,0,0.1,0 C22.4,112.9,22.4,112.9,22.3,112.9 M20.9,106.1c-0.1,0-0.2,0-0.2,0.1c0,0.1,0,0.1,0.1,0.1C21.1,106.3,21.1,106.1,20.9,106.1 M20.5,106c-0.1,0-0.1,0-0.1,0.1c0,0.1,0,0.1,0.1,0.1C20.6,106.1,20.6,106.1,20.5,106 M19.9,112.1C19.9,112,19.9,112.1,19.9,112.1 c0,0.1,0,0.1,0.1,0.1C20,112.2,20,112.2,19.9,112.1C20,112.1,19.9,112.1,19.9,112.1 M18.5,102.6C18.5,102.6,18.4,102.7,18.5,102.6 c0,0.1,0,0.2,0.1,0.2c0,0,0.1,0,0-0.1C18.6,102.7,18.5,102.7,18.5,102.6 M18.4,111.4c-0.3-0.1-0.4-0.1-0.3-0.1 c0.1,0,0.2,0.1,0.2,0.1c0,0,0.1,0.1,0.1,0.1c0.1,0,0.2,0.1,0.4,0.1C19.3,111.8,18.9,111.6,18.4,111.4 M24.6,115.1 c-0.1,0-0.2,0-0.2,0.1c0.1,0,0.2,0.1,0.3,0.1c0.1,0,0.2,0,0.2,0C25.1,115.2,25,115.2,24.6,115.1 M26,114.2c-0.1-0.1-0.1-0.1-0.2-0.2 c-0.1-0.1-0.2-0.2-0.2-0.2c0,0,0-0.1,0-0.1c0,0-0.1-0.1-0.1-0.2c0-0.1-0.1-0.2-0.2-0.2c-0.1-0.1-0.1-0.1-0.1-0.2 c0-0.1-0.5-0.5-0.6-0.6c-0.1,0-0.1,0-0.2-0.2c0-0.1-0.1-0.2-0.1-0.2c0.1-0.2,0.3-0.2,0.3-0.2c0.1,0,0.1,0,0.1-0.1 c0-0.2,0.3-0.3,0.5-0.3c0.1,0,0.1,0,0.1,0c0,0,0-0.1,0.1-0.1c0.1,0,0.1,0,0.2,0c-0.1,0-0.1,0-0.2-0.1c-0.1,0-0.2,0-0.2,0 c0,0-0.1,0.1-0.2,0.1c-0.3,0-0.7,0.2-0.7,0.2c0,0.1-0.2,0.1-0.3,0.2c-0.1,0.1-0.2,0.2-0.2,0.2c0,0.1,0.1,0.1,0.1,0.1 c0,0,0.1,0,0.1,0.2c0.1,0.2,0,0.2-0.1,0.2c-0.2,0-0.2-0.1,0.3,0.6c0.1,0.2,0.2,0.3,0.2,0.3c0.1,0.1-0.2,0.2-0.7,0.1 c-0.5-0.1-0.6-0.1-0.7-0.3c-0.1-0.1-0.1-0.2-0.2-0.1c-0.1,0-0.1,0.1,0,0.1c0,0,0.1,0.1,0.1,0.1c0,0.1,0,0.1-0.2,0 c-0.1-0.1-0.3-0.2-0.4-0.2c-0.1,0-0.2-0.1-0.3-0.2c-0.1-0.1-0.2-0.1-0.2,0c0,0.1-0.1,0.1-0.4-0.1c-0.2-0.1-0.4-0.2-0.4-0.2 c0,0-0.2-0.1-0.3-0.1c-0.1-0.1-0.3-0.1-0.3-0.2c0,0-0.1-0.1-0.2-0.1c-0.8-0.2-1.5-0.5-2.2-0.9c-0.1-0.1-0.2-0.1-0.1,0 c0,0.1,0.2,0.1,0.3,0.2c0.2,0,0.3,0.1,0.3,0.2c0,0-0.1,0-0.2,0c-0.1-0.1-0.2-0.1-0.2-0.1c0.1,0.1,0.2,0.1,0.2,0.2 c0,0,0.1,0.1,0.1,0.1c0,0,0.1,0,0.1,0.1c1.4,0.9,2.9,1.8,4.5,2.6c0.1,0,0.1,0,0.1,0c-0.1-0.1-0.2-0.2-0.4-0.2 c-0.1,0-0.3-0.1-0.3-0.2c0-0.1,0-0.1,0.2,0c0.6,0.3,1.2,0.5,1.2,0.5c0,0,0-0.1-0.3-0.2c-0.4-0.2-0.9-0.5-0.8-0.6 c0,0,0.2,0.1,0.4,0.2c0.5,0.3,1,0.4,1.2,0.4c0.1,0,0.4,0,0.6,0c0.3,0,0.4,0,0.4-0.1c0-0.1,0-0.1,0.1,0c0,0,0.1,0,0.2-0.1 c0-0.1,0-0.2,0-0.2c-0.1,0-0.1-0.1-0.1-0.1c0,0,0.1,0,0.2,0C25.9,114.1,25.9,114.1,26,114.2 M25.4,111.6 C25.4,111.6,25.3,111.6,25.4,111.6c-0.1,0.1,0,0.2,0.1,0.2c0,0,0.1,0,0.1-0.1C25.5,111.6,25.5,111.6,25.4,111.6 M26.6,116.1 C26.6,116.1,26.6,116,26.6,116.1c-0.1-0.2-0.3-0.2-0.3-0.1c0,0,0,0,0,0C26.4,116,26.5,116,26.6,116.1 M27.8,57.2c0.1,0,0.2,0,0.2,0 c0,0.1,0,0.1,0.1,0.1c0.1,0,0.1,0,0.1,0.1c0,0.1,0,0.1,0.1,0.1c0.2,0,0.2-0.1,0.5-0.4c0.2-0.2,0.3-0.5,0.3-0.5 c0-0.1,0.1-0.2,0.3-0.3c0.3-0.2,0.4-0.3,0.3-0.5c0,0,0-0.1,0.1-0.1c0.1,0,0.1,0,0.1-0.2c0-0.1,0-0.2,0.3-0.3c0.2,0,0.4-0.2,0.5-0.3 c0.2-0.2,0.2-0.2,0.1,0c-0.1,0.2-0.1,0.2,0.1,0.1c0.1-0.1,0.3-0.2,0.5-0.2c0.2,0,0.4-0.2,0.6-0.4c0.2-0.2-1-0.3-1-0.3 c0,0,1.4-0.1,1.4-0.2c0-0.2,0-0.2,0.1-0.1c0.1,0.2,1,0,1.8-0.4c0.5-0.2,0.5-0.3,0.4-0.4c-0.1,0-0.3-0.1-0.4-0.1 c-0.2,0-0.2,0-0.1-0.1c0.1,0,0.2-0.1,0.2-0.2c0-0.1,0-0.2,0.2-0.1c0.1,0.1,0.1,0.2,0.1,0.2c0,0.2,0.6,0.2,0.6,0.1 c0-0.2-0.2-0.6-0.4-0.6c-0.2-0.1-0.4-0.4-0.2-0.4c0.1,0,0.1,0.1,0.1,0.1c0,0.1,0.3,0.4,0.4,0.3c0.1-0.1,0.1-0.2-0.1-0.4 c-0.1-0.1-0.2-0.2-0.2-0.2c0,0,0.1,0,0.2,0.1c0.2,0.1,0.7,0,0.7-0.2c0-0.1,0.1-0.1,0.2-0.2c0.1,0,0.1,0,0.2-0.1c-0.1,0-0.1,0-0.2,0 c-0.2,0-0.2-0.2,0-0.2c0.1,0,0.2,0,0.2-0.1c0-0.2-0.1-0.4-0.3-0.4c-0.3,0-0.3-0.2,0-0.2c0,0,0,0.1,0,0.1c0,0,0.1,0,0.1-0.1 c0.2,0,0.3,0,0.3,0.1c0,0.1,0,0.1,0.1,0c0.2-0.2,0.1-0.3-0.1-0.3c-0.1,0-0.2-0.1-0.2-0.2s-0.1-0.1-0.2-0.1c0,0-0.1,0.1-0.2,0.1 c0.1-0.1,0.1-0.1,0.2-0.2c0.1-0.1,0.2-0.2,0.3-0.2c0.1,0,0.1-0.1,0.2-0.2c0-0.1,0.1-0.2,0.2-0.2c0.1,0,0.2,0,0.3-0.1 c0.3-0.2,0.5-0.4,0.8-0.5c0.2-0.1,0.2-0.1,0.4-0.1c-0.2,0-0.2-0.1-0.4-0.1c-0.2-0.1-0.5,0-0.7,0c-0.2,0.1-0.4,0.1-0.5,0.1 c-0.1,0-0.3,0-0.5,0.1c-0.2,0.1-0.3,0.1-0.3,0.1c0,0,0,0,0,0c0,0,0.1-0.1,0.2-0.2c0.1-0.2,0.1-0.2-0.2-0.1c-0.2,0-0.4,0-0.3,0 c0-0.1,0.2-0.1,0.4-0.1c0.1,0,0.3-0.1,0.3-0.1c0-0.1,0-0.1-0.2-0.1c-0.1,0-0.3,0-0.5-0.1c-0.7-0.2-1.5-0.1-2.2,0 c-0.2,0-0.4,0.1-0.4,0.2c0,0-0.4,0.1-0.8,0.1c-0.5,0-0.7,0-0.6,0.1c0.2,0,0.2,0.2,0.1,0.2c0,0-0.1,0-0.1,0.1c0,0.2,0,0.1-0.5,0 c-0.5-0.1-0.6-0.1-0.6,0.1c0,0.2-0.1,0.2-0.3,0.1c-0.1-0.1-0.2,0-0.2,0c0,0.1-0.1,0.1-0.1,0c-0.1-0.2-1.4,0.2-1.5,0.4 c0,0.1-0.1,0.2-0.3,0.2c-0.3,0-0.9,0.3-1.1,0.5c0,0,0,0.1,0.1,0.1c0.1,0,0.2,0,0.2,0.1c-0.1,0.1-0.2,0.2-0.7,0.4 c-0.8,0.3-1,0.3-1.1,0.4c0,0.1,0.5,0.3,0.6,0.2c0.1,0,0.1,0,0,0c0,0.1-0.2,0.2-0.3,0.2c-0.2,0-0.3,0.1-0.2,0.1 c0.1,0,0.2,0.1,0.2,0.2c0,0.1,0.3,0.1,0.7,0c0.7-0.1,1.2-0.1,1.2,0.2c0,0.1,0.1,0.1,0.1,0.1c0,0,0.1,0.2,0.1,0.4 c0.1,0.4,0,0.4-0.1,0.6c-0.3,0.3-0.3,0.4,0,0.3c0.2-0.1,0.3,0,0.5,0.1c0.1,0.2,0.1,0.5,0,0.3c0,0-0.2-0.1-0.3-0.1 c-0.1,0-0.2,0-0.1-0.1c0-0.1,0-0.1,0,0c-0.1,0-0.1,0.1-0.1,0.2c0,0.1-0.1,0.1-0.1,0.1c0,0-0.1,0.1-0.1,0.2c-0.1,0.2,0.1,0.3,0.3,0.2 c0.1,0,0.1,0,0.2-0.1c0-0.1-0.1-0.1-0.1-0.2c-0.1-0.1-0.1-0.1,0.1-0.1c0.1,0,0.2,0.1,0.2,0.2c0,0,0,0,0.1,0c0.1-0.1,0.1-0.1,0,0.1 C28,53.8,27.9,54,27.8,54c-0.1,0-0.3,0.1-0.4,0.3c-0.2,0.2-0.3,0.3-0.2,0.4c0,0.1,0,0.2,0,0.2c-0.1,0-0.1,0.1,0,0.3 c0,0.2,0,0.3,0,0.5c-0.1,0.2-0.1,0.2,0.2,0c0.2-0.1,0.2-0.1,0,0.1c-0.2,0.3-0.2,0.3-0.1,0.8C27.3,57.1,27.5,57.3,27.8,57.2 M29.7,116.7c-0.1-0.1-0.1-0.2-0.2-0.2c0-0.2-0.6-0.4-1-0.3c-0.1,0-0.2,0.1-0.2,0.2c0,0.1-0.1,0.2-0.3,0.2c-0.1,0-0.1,0-0.2,0 c0.5,0.2,1,0.3,1.5,0.4c0.1,0,0.2,0,0.3,0C29.8,116.9,29.8,116.9,29.7,116.7 M30.2,107.5c0,0-0.2-0.1-0.3-0.1 c-0.2-0.1-0.2-0.1,0,0.1C30.1,107.6,30.3,107.7,30.2,107.5 M60.7,111.2c-0.2,0.1-0.3,0.1-0.4,0.1c0,0-0.1,0-0.2,0 c-0.1,0-0.2,0-0.1,0c0-0.1,0-0.1-0.1,0c0,0-0.1,0.1-0.1,0.1c-0.1,0-0.1,0-0.1,0c0,0,0,0-0.1,0c-0.2,0-0.3,0-0.3-0.1c0,0,0-0.1,0,0 c-0.1,0-0.2,0.1-0.5,0.1c-0.2,0-0.3,0.1-0.4,0.1c0,0,0,0,0-0.1c0.1-0.1,0.1-0.1,0.1-0.1c0,0-0.1,0.1-0.2,0.2 c-0.1,0.1-0.1,0.1-0.3,0.3c-0.2,0.1-0.3,0.1-0.4,0.2c-0.1,0.2-0.3,0.2-0.3,0.1c0-0.1,0-0.1-0.1,0c-0.1,0.1-0.7,0.3-1.1,0.4 c-0.2,0.1-0.4,0.1-0.5,0c0-0.1-0.4,0.1-0.5,0.2c-0.1,0.1-0.2,0.1-0.6,0.1c-0.4,0-0.5,0-0.7,0.1c-0.1,0.1-0.1,0.1-0.1,0.1 c0,0,0,0,0,0c-0.1,0.1-0.2,0.1-0.3,0.2c-0.5,0.1-0.7,0.2-0.9,0.3c-0.1,0.1-0.2,0.1-0.3,0.1c0,0-0.2,0.1-0.4,0.2 c-0.2,0.1-0.5,0.3-0.7,0.4c-0.2,0.1-0.4,0.2-0.5,0.3c-0.1,0.1-0.1,0.1-0.1,0.1c0,0-0.1,0-0.2,0.2c-0.2,0.2-0.6,0.5-0.7,0.4 c-0.1,0,0-0.3,0.2-0.3c0,0,0.1-0.1,0.2-0.2c0.1-0.1,0.1-0.1,0-0.1c-0.1,0.1-0.2,0-0.1-0.1c0,0,0.1-0.1,0.1-0.1 c0.1,0,0.4-0.4,0.5-0.5c0,0-0.2-0.1-0.5,0c-0.8,0-1.5,0-1.5-0.1c0,0,0-0.1-0.1-0.1c-0.2-0.2-1,0.1-1.1,0.3c0,0.1-0.1,0.1-0.2,0.1 c-0.1,0-0.2,0-0.2,0.1c0,0.1,0,0.1-0.2,0.1c-0.1,0-0.3,0-0.4,0.1c-0.1,0.1-0.3,0.1-0.4,0.1c-0.4,0.1-0.8,0.3-0.9,0.4 c-0.1,0.2-0.4,0.2-0.4,0.1c0,0,0,0-0.1,0c-0.1,0-0.2,0-0.3-0.1c-0.1-0.1-0.2-0.2-0.3-0.1c-0.3,0.2-0.5,0.3-1.2,0.4 c-0.5,0.1-0.9,0.1-1.2,0.1c-0.5-0.1-1.1-0.1-1.6,0c0,0-0.2,0-0.3,0c-0.2-0.1-1.4-0.1-1.6,0c-0.3,0.1-0.6,0.2-1.1,0.1 c-0.3,0-0.5-0.1-0.5-0.1c0.1-0.2-0.2-0.1-0.3,0.1c-0.1,0.2-0.1,0.2-0.3,0c-0.1-0.1-0.1-0.2-0.3-0.1c-0.1,0-0.2,0.1-0.3,0 c-0.1-0.1-0.1-0.1,0,0.1c0.1,0.1,0.1,0.2,0,0.2c-0.1,0-0.2,0.1-0.2,0.1c0,0-0.1,0-0.1,0.1c0,0-0.1,0.1-0.2,0.1 c-0.1,0-0.2,0.1-0.2,0.1c0,0.1,0,0.1,0.2,0.1c0.2,0,0.2,0-0.1,0.1c-0.2,0.1-0.3,0.2-0.3,0.2c0,0.1-0.2,0.1-0.4,0 c-0.7-0.1-2.8-0.1-2.9,0.3c0,0,0.7,0.4,0.8,0.4c0,0,0.2,0,0.4,0c0.3,0,0.3,0,0.2,0.1c0,0-0.1,0.1-0.1,0.1c0.1,0,0.1,0,0.2,0 c0.1,0,0.2,0.1,0.2,0.1c0,0-0.1,0-0.1,0.1c2.1,0.4,4.3,0.6,6.5,0.6C47.1,118.2,54.6,115.6,60.7,111.2 M33.8,116.2 C33.9,116.2,33.9,116.2,33.8,116.2c0-0.1,0-0.2-0.1-0.2c0,0,0,0,0,0.1C33.8,116.2,33.8,116.2,33.8,116.2 M37.1,115.5 c0,0,0.1-0.1,0-0.1c0-0.1,0-0.1,0-0.1s0,0-0.1,0.1C37.1,115.4,37.1,115.5,37.1,115.5 M50.9,94c-0.2,0.3-0.3,0.4-0.3,0.9 c0,0.7,0.2,0.9,0.6,0.8c0.2,0,0.4-0.1,0.4-0.2c0.5-0.7,0.9-1.9,1.2-2.8c0-0.1,0.1-0.2,0.2-0.3c0-0.1,0.1-0.2,0.1-0.4 c0-0.2,0-0.2,0.1-0.1c0.1,0.1,0.1,0,0.2-0.4c0-0.4-0.1-1-0.2-1c0,0,0,0-0.1,0.1c0,0-0.1,0.2-0.1,0.3c0,0.1-0.1,0.3-0.2,0.4 c-0.1,0.1-0.3,0.3-0.4,0.5c-0.1,0.1-0.3,0.3-0.5,0.4c-0.5,0.2-0.8,0.6-0.7,1.2C51.2,93.6,51.2,93.7,50.9,94 M54.2,105.6 c0,0.2,0.1,0.1,0.3,0c0.1-0.1,0.1-0.1-0.1-0.1C54.4,105.4,54.3,105.5,54.2,105.6 M54.5,93.9c0.1,0,0.1-0.1,0.1-0.1 c0-0.1,0-0.1-0.1-0.1c0,0,0,0,0,0.1C54.4,93.8,54.5,93.9,54.5,93.9 M54.9,79.6c0,0.1,0.1,0.1,0.2,0.1c0.1-0.1,0.1-0.2-0.1-0.2 C54.9,79.5,54.9,79.6,54.9,79.6 M58.4,108.7C58.5,108.7,58.5,108.7,58.4,108.7c-0.1,0-0.1,0-0.1,0C58.4,108.8,58.4,108.8,58.4,108.7 M63.1,81.1c-0.3-0.5-0.3-0.6-0.3-0.3c0,0.3,0.2,1.1,0.3,1.2c0.1,0.2,0.1,0.2,0.2,0C63.5,81.9,63.4,81.7,63.1,81.1 M65.9,77.7 c0.1,0.3,0.3,0.7,0.4,0.9c0.1,0.3,0.2,0.7,0.4,1.4c0.1,0.5,0.2,0.9,0.3,0.9c0.1,0,0.5,0.8,0.6,1c0.1,0.6,0.4,1.5,0.6,1.5 c0.1,0,0.1,0,0-0.3c0-0.2,0-0.5,0-0.7c0.1-0.4-0.4-0.9-0.7-1.1c-0.1,0-0.1-0.2-0.2-0.3c0-0.1-0.1-0.4-0.2-0.5 c-0.2-0.3-0.2-0.4-0.3-1.2c-0.1-0.6,0-0.9,0.1-0.5c0,0.1,0.1,0.2,0.1,0.2c0,0,0.2,0.2,0.4,0.4c0.2,0.2,0.4,0.5,0.4,0.5 c0.1,0.1,0.1,0.2,0.2,0.4c0,0.2,0.1,0.3,0.1,0.3c0.1,0,0.2-0.5,0.1-0.6c0-0.1,0-0.1,0.1-0.1c0.1,0,0.1-0.1,0.2-0.3 c0.1-0.2,0-0.3-0.1-0.8c-0.2-0.6-0.2-0.8-0.8-1.6c-0.5-0.7-0.5-0.9-0.4-1.4c0.1-0.4,0.4-0.5,0.5-0.2c0,0.1,0.1,0.3,0.2,0.3 c0.1,0.1,0.1,0.2,0,0.2c-0.2,0-0.2,0.5,0,0.6c0.1,0.1,0.2,0,0.2-0.3c0-0.2,0-0.3-0.1-0.4c-0.2-0.3-0.2-0.5,0-0.7 c0.1-0.1,0.2-0.2,0.2-0.4c0-0.1,0-0.1,0,0c0.1,0.2,0.4,0,0.5-0.4c0.1-0.4,0.1-0.7,0.1-0.9c0,0,0-0.1,0-0.2c0-0.1,0-0.2,0-0.4 c0-0.7-0.1-1-0.3-1.1h-0.1c0-0.1,0-0.1,0.1-0.1c0.1-0.1-0.1-0.5-0.4-1c-0.3-0.5-0.4-0.7-0.5-0.7c-0.1-0.1,0-0.7,0.1-0.8 c0.1-0.1,0.1-0.2-0.2-0.3c-0.1,0-0.2,0-0.2,0.1c0,0.2-0.1,0.1-0.2-0.1c0-0.1-0.1-0.2-0.2-0.2c-0.1-0.1-0.3-0.4-0.2-0.4 c0.1,0,0.1-0.2,0.2-0.4c0-0.2,0.1-0.3,0.2-0.3c0.1,0.1,0.1,0.1,0.1,0.3c0,0.3,0.1,0.5,0.2,0.3c0-0.1,0.1-0.1,0.2-0.1 c0.2,0.1,0.2,0.1,0.2,0.4c0.1,0.3,0.1,0.4,0.3,0.4c0.1,0,0.2,0.2,0.2,0.3c0,0,0.2,0.7,0.3,0.9c0,0,0.1,0,0.2,0 c0.1-0.1,0.1-0.1,0-0.5c-0.1-0.3-0.2-0.5-0.4-0.9c-0.2-0.3-0.3-0.5-0.3-0.5c0.1-0.1,0.1-0.5,0.1-0.6c0-0.1,0-0.3,0-0.4 c0.1-0.2,0.1-0.2,0.2-0.1c0.2,0.2,0.3,0,0.2-1.1c0-0.8-0.1-1-0.2-1.4c-0.1-0.2-0.2-0.5-0.2-0.6c-0.1-0.5-0.7-1.4-0.7-1 c0,0.1,0,0.2-0.1,0c-0.1-0.2-0.1-0.3-0.1-0.2c0,0.1,0,0.1,0,0c-0.1-0.1-0.1-0.2-0.2-0.2c-0.1,0-0.1,0-0.1-0.1c0-0.1,0-0.1,0.1-0.2 c0-0.1,0.1-0.3,0.1-0.4c0.1-0.9-0.3-1.1,0.2-0.8c0.2,0.1,0.2,0.1,0.2,0c0-0.1,0.3,0.1,0.4,0.2c0,0.1,0.1,0.1,0.2,0.1 c0.1,0,0.2,0,0.2,0c0.1,0,0.1,0,0-0.1C68,61.2,68,61.1,68,60.9c0-0.3,0-0.3,0.2-0.2c0.1,0,0.2,0.1,0.2,0.2c0.1,0.2,0.2,0.3,0.2,0.1 c0-0.1,0-0.1,0.1-0.1c0,0,0,0-0.1-0.1c0-0.1,0-0.2,0-0.2c0.1,0,0.2,0.5,0.2,0.7c0,0.1,0,0.3,0,0.4c0,0.1,0,0.2,0,0.2 c-0.1,0.1,0,0.5,0.2,0.9c0.1,0.2,0.3,0.6,0.4,0.9c0.2,0.3,0.3,0.6,0.3,0.7c0.1,0.2,0.1-0.2,0-0.4c0-0.1,0-0.2,0-0.2c0,0,0-0.1,0-0.2 c0-0.1,0-0.2,0-0.2c0,0,0-0.1,0-0.2c-0.1-0.2-0.1-0.4,0-0.3c0,0,0,0,0,0c0-0.1-0.1-0.1-0.1-0.1c0,0-0.1-0.1-0.1-0.2 c0-0.2-0.1-0.2-0.1-0.2c-0.1,0-0.1-0.1-0.2-0.4c0-0.2,0-0.3,0-0.3c0,0,0.1,0,0.1,0c0,0,0,0,0,0.1c0,0.1,0.1,0,0.1,0 c0-0.1,0.1-0.1,0.2,0.1c0,0,0.1,0.1,0.1,0c-0.7-1.2-1.6-2.3-2.4-3.4c0,0,0,0-0.1-0.1c0,0,0,0,0,0c0,0-0.1-0.1-0.1-0.1c0,0,0,0,0,0 c0,0-0.1-0.1-0.1-0.2v0c-0.1-0.1-0.2-0.2-0.2-0.3c-0.1-0.1-0.2-0.2-0.4-0.2c-0.5-0.2-0.2-0.2-0.4-0.4c-0.2-0.2-0.6-0.4-0.5-0.2 c0,0.1,0,0,0,0c-0.1-0.1-0.1-0.2-0.3-0.3c-0.1-0.1-0.3-0.1-0.3-0.2c0,0-0.1,0-0.2-0.1c-0.1,0-0.1,0,0,0.2c0.1,0.2,0.1,0.2,0,0.1 c-0.1,0-0.1-0.1-0.1,0c0,0,0,0.1-0.1,0c-0.1-0.1-0.3-0.2-0.4-0.2c-0.2-0.1-0.3-0.1-0.3,0c0,0.2-0.2,0.1-0.5-0.3 c-0.1-0.2-0.1-0.2-0.1-0.2c0.1,0-0.1-0.2-0.2-0.2c-0.1,0-0.1,0,0-0.1c0,0,0-0.1-0.1-0.1c-0.1,0-0.3-0.2-0.5-0.3 c-0.3-0.1-0.3-0.1-0.3,0c0.1,0.1,0,0.2-0.2,0.1c-0.1-0.1-0.4-0.2-0.5-0.2c-0.1-0.1-0.4-0.2-0.6-0.3c-0.2-0.1-0.6-0.2-0.7-0.3 c-0.2-0.1-0.3-0.1-0.2,0c0.1,0.1,0,0.1-0.1,0.1c-0.3,0-0.4-0.1-0.2-0.2c0,0,0.2-0.1,0.3-0.1c0.1,0,0.2-0.1,0.3-0.1 c0.1,0,0.1-0.1,0-0.3c0,0-0.1-0.1-0.1-0.1c-0.1,0-0.2-0.1-0.3-0.2c-0.1-0.1-0.3-0.2-0.4-0.2c-0.3,0-0.6-0.2-0.7-0.3 c0-0.2-0.4-0.3-0.6-0.2c-0.1,0-0.1,0.1-0.1,0.1c0,0.1,0,0.1-0.1,0.1c-0.1,0-0.1,0-0.1,0c0,0.1-0.1,0-0.3,0c-0.6-0.2-1.6-0.1-1.7,0.1 c0,0,0,0.1-0.1,0.1c0.1,0,0.1,0.1,0.2,0.1c0.1,0.1,0,0.1-0.4,0.1c-0.3,0-0.6,0-0.6,0c-0.1,0,0.3,0.4,0.4,0.6 c0.2,0.1,0.2,0.1,0.1,0.2c0,0-0.2,0-0.4-0.1c-0.1-0.1-0.4-0.2-0.5-0.3c-0.2-0.1-0.2-0.1-0.1,0.1c0.2,0.2,0.2,0.2,0,0.1 c-0.3-0.1-0.3,0,0,0.2c0.1,0.1,0.1,0.1,0,0.1c-0.2,0-0.2-0.1-0.3-0.3c-0.1-0.1-0.1-0.3-0.2-0.3c0-0.1,0,0,0,0.1c0,0.1,0,0.2,0,0.2 c0,0-0.1,0-0.1,0.1c0,0.1,0,0.1,0.1,0.3c0.1,0.2,0.2,0.2,0.2,0.3c0,0.3,0.1,0.4,0.4,0.5c0.3,0.1,0.6,0.3,0.6,0.5c0,0.2,0,0.1-0.1,0 c-0.1-0.2-0.3-0.4-0.5-0.4c-0.1,0-0.1,0.1,0,0.3c0.1,0.2,0.1,0.3-0.1,0.5c-0.2,0.2-0.7,0.2-0.8,0c-0.1-0.1,0-0.1,0.2,0 c0.2,0.1,0.3,0,0.3-0.2c0.1-0.3,0.1-0.3-0.1-0.5c-0.1-0.1-0.2-0.3-0.3-0.5c-0.1-0.2-0.2-0.4-0.2-0.5c-0.1-0.1-0.1-0.2-0.1-0.3 c0-0.2-0.1-0.4-0.3-0.5c-0.2,0-0.2-0.1-0.2-0.1c0-0.1,0-0.1-0.1-0.1c-0.1,0-0.1,0-0.1,0.1c0,0,0,0.1-0.1,0.1c-0.1,0-0.1,0.1-0.1,0.2 c0,0.1,0,0.3-0.1,0.4c-0.1,0.1-0.1,0.2,0,0.2c0,0,0.1,0.1,0.1,0.2c0,0.1,0,0.2,0,0.2c0,0,0.1,0.1,0.3,0.3c0.5,0.4,0.4,0.5-0.2,0.2 c-0.3-0.2-0.7-0.4-1-0.5c-0.3-0.1-0.6-0.2-0.7-0.2c-0.1-0.1-0.1,0,0.1,0.1c0.3,0.3,0.4,0.4,0.3,0.6c-0.1,0.1-0.1,0.1-0.2,0 c-0.1-0.1-0.2-0.1-0.6-0.1c-0.4,0-0.5,0-0.6-0.1c0-0.1-0.1-0.1-0.2-0.1c0,0-0.2,0.1-0.3,0.1c-0.4,0-0.8,0.3-0.8,0.4 c0,0.2-0.3,0.2-0.5,0c-0.2-0.1-0.1-0.3,0-0.3c0.2,0,0.1-0.2,0-0.3c-0.2-0.1-0.6-0.1-0.5,0c0,0.1,0.1,0.2,0.1,0.3 c0,0.1,0,0.2,0.1,0.3c0.2,0.2,0,0.4-0.2,0.3c-0.1,0-0.3,0-0.5,0.1c-0.3,0.2-0.3,0.2-0.1,0.5c0.1,0.2,0.1,0.2-0.2,0.1 c-0.2,0-0.4-0.1-0.5-0.2c-0.1-0.1-0.2,0-0.2,0.1c0,0.1,0.1,0.2,0.2,0.2c0.2,0.1,0.2,0.3,0.1,0.3c-0.2,0-0.6-0.3-0.7-0.5 c-0.1-0.1-0.1-0.3-0.1-0.4c0-0.1-0.1-0.2-0.2-0.2c-0.4-0.2-0.1-0.2,0.6,0c0.6,0.2,0.7,0.2,0.9,0c0.1-0.1,0.2-0.2,0.2-0.3 c0-0.1-0.4-0.3-0.8-0.5c-0.6-0.3-0.8-0.4-1.8-0.6c-0.4-0.1-0.4-0.1-0.3-0.2c0.2-0.1,0.2-0.1-0.1-0.2C43.8,53,43.7,53,43.6,53 c-0.1,0-0.1,0-0.1-0.1c0-0.1-0.1-0.1-0.1-0.1c-0.1,0-0.2,0.1-0.3,0.1c-0.1,0-0.2,0.1-0.2,0.2c0,0.1-0.1,0.1-0.1,0.1 c0,0,0-0.2,0.1-0.2c0.1-0.1,0.1-0.2-0.2-0.1c-0.1,0.1-0.3,0.2-0.3,0.2c0,0.1-0.1,0.1-0.2,0c-0.1,0-0.3,0-0.3,0.1 c-0.1,0.1-0.2,0.1-0.3,0c-0.2-0.1-0.3-0.1-0.2,0c0,0.1,0,0.1,0,0.1c0,0-0.2,0-0.3,0c-0.1,0-0.2,0-0.1,0.1c0.2,0.2-0.1,0.3-0.3,0.1 c-0.1-0.1-0.2-0.1-0.1,0c0,0.1,0,0.1-0.1,0.1c-0.1-0.1-0.2-0.1-0.1,0c0,0.1,0.2,0.1,0.2,0.1c0.3-0.1,0.1,0.2-0.3,0.5 c-0.2,0.2-0.5,0.5-0.6,0.7c-0.1,0.2-0.2,0.3-0.3,0.3c-0.1,0-0.1,0.1-0.1,0.1c0,0.1,0,0.1-0.1,0.1c0-0.1-0.2,0-0.3,0.2 c-0.1,0.2-0.3,0.2-0.3,0.2c-0.1,0-0.1,0-0.1,0.1c0,0.1-0.1,0.2-0.1,0.2c-0.1,0-0.3,0.1-0.5,0.2c-0.4,0.2-0.5,0.6-0.3,0.9 c0.1,0.1,0.1,0.2,0,0.3c-0.1,0.1-0.1,0.1,0.1,0.1c0.2-0.1,0.2-0.1,0,0.1c-0.2,0.2-0.1,0.3,0.2,0.4c0.2,0.1,0.4,0,0.6-0.2 c0.2-0.1,0.3-0.3,0.4-0.4c0-0.1,0-0.1,0.1,0c0.1,0.1,0.1,0.2,0.1,0.3c0,0.1,0,0.2,0.1,0.2c0,0,0.1,0.1,0.1,0.2 c0,0.1,0.1,0.3,0.1,0.4c0.1,0.1,0.1,0.2,0.1,0.3c0,0,0,0.2,0,0.3c0.1,0.2,0.4,0.2,0.4,0c0,0,0.1-0.1,0.2-0.1c0.4,0,0.5-0.2,0.5-0.6 c0-0.3,0-0.4,0.2-0.5c0.1-0.1,0.3-0.2,0.3-0.3c0.1-0.2,0.1-0.2,0-0.3c-0.1-0.1-0.2-0.2-0.3-0.2c0,0-0.1-0.1-0.1-0.2 c0-0.4,0.2-0.7,0.6-1c0.4-0.2,0.6-0.4,0.5-0.6c-0.1-0.2,0.3-0.5,0.7-0.4c0.4,0,0.5,0.2,0.3,0.4c-0.8,0.7-0.9,0.8-0.9,1 c0,0.1,0.1,0.3,0.1,0.5c0,0.4,0.4,0.6,1,0.5c0.3,0,0.6-0.1,0.7-0.1c0.2-0.1,0.5,0.1,0.4,0.3c0,0-0.3,0.1-0.6,0.1 c-0.7,0-0.9,0.1-0.9,0.3c0,0.1,0.1,0.2,0.2,0.2c0.1,0,0.2,0.1,0.1,0.3c0,0.3-0.1,0.4-0.3,0.2c-0.3-0.3-0.6,0-0.6,0.6 c0,0.3,0,0.4-0.2,0.4c-0.1,0-0.2,0-0.2,0.1c0,0.2-0.4,0.2-0.5,0c-0.1-0.1-0.3,0-0.7,0.1c-0.3,0.1-0.7,0.2-0.7,0.1 c-0.1,0-0.3-0.1-0.6-0.1c-0.5,0-0.8-0.2-0.7-0.5c0-0.1,0.1-0.2,0.2-0.3c0.1-0.1,0.2-0.1,0.1-0.2c0-0.1-0.1-0.2,0-0.3 c0.1-0.2-0.2-0.2-0.3,0.1c-0.1,0.1-0.2,0.2-0.2,0.1c-0.1-0.1-0.1,0-0.1,0.4c0.1,0.9,0,1-0.2,1c-0.6,0-0.7,0-0.8,0.3 c0,0.2-0.1,0.2-0.1,0.1c0-0.1-0.1-0.1-0.3,0.2c-0.1,0.2-0.4,0.4-0.5,0.5c-0.1,0.1-0.3,0.2-0.3,0.3c0,0.1-0.2,0.3-0.4,0.4 c-0.2,0.2-0.4,0.2-0.5,0.1C35,62.2,35,62.2,35,62.4c0,0.2-0.1,0.3-0.3,0.3c-0.5,0-0.6,0-0.6,0.2c0,0.1,0,0.2,0.1,0.2 c0.4,0,0.8,0.6,0.7,1.1c0,0.2-0.1,0.5-0.2,0.7c-0.1,0.3-0.1,0.3-1,0.3c-0.4,0-0.8,0-0.9-0.1s-0.2,0-0.3,0.1 c-0.2,0.1-0.2,0.2-0.3,0.7c0,0.3-0.1,0.7-0.2,1c-0.1,0.3-0.2,0.5-0.1,0.6c0,0.1,0,0.3,0,0.5c0,0.3,0,0.3,0.3,0.2 c0.2-0.1,0.3,0,0.5,0.2c0.1,0.2,0.2,0.3,0.4,0.1c0.2-0.1,0.5-0.2,0.6-0.2c0.2,0,0.4-0.1,0.4-0.2c0-0.1,0.1-0.2,0.2-0.2 c0.2,0,0.5-0.6,0.5-0.8c0-0.3,0.5-0.8,0.9-1c0.2-0.1,0.3-0.2,0.4-0.5c0.1-0.4,0.4-0.6,0.7-0.4c0.2,0.1,0.3,0,0.7-0.2 c0.3-0.2,0.5-0.3,0.6-0.3c0.1,0,0.3,0.2,0.5,0.6c0.2,0.3,0.7,0.8,1.1,1c0.7,0.4,0.8,0.7,0.7,1.2c-0.1,0.3-0.1,0.3,0.2-0.1 c0.3-0.3,0.3-0.4,0.1-0.5c-0.1-0.1-0.1-0.2,0-0.3c0.1-0.1,0.2-0.1,0.3,0c0.1,0.1,0.2,0.1,0.3,0.1c0.1-0.1-0.6-0.6-0.8-0.6 c-0.1,0-0.1-0.1-0.1-0.1c0-0.1-0.1-0.1-0.1-0.1c-0.1,0-0.3-0.2-0.5-0.5c-0.2-0.3-0.4-0.5-0.5-0.5c-0.1,0-0.1-0.1-0.1-0.3 c0-0.4,0.4-0.6,0.5-0.3c0,0.1,0.1,0.2,0.2,0.1c0.1,0,0.2,0.1,0.3,0.3c0.1,0.2,0.3,0.4,0.4,0.5c0.1,0,0.4,0.2,0.7,0.4 c0.3,0.2,0.4,0.4,0.4,0.7c0,0.2,0.2,0.5,0.4,0.9c0.2,0.3,0.4,0.5,0.3,0.6c-0.1,0.1,0.3,0.6,0.5,0.6c0.1,0,0.1-0.1,0.1-0.2 c0-0.1,0-0.2,0.2-0.3c0.4-0.2,0.2-0.5-0.2-0.4c0,0-0.1-0.1,0-0.2c0-0.1,0-0.2,0-0.3c-0.2-0.2-0.1-0.4,0.1-0.2c0.1,0,0.2,0,0.3-0.1 c0.2-0.4,0.9-0.1,0.8,0.3c0,0.1,0,0.2,0.1,0.2c0.1,0,0.1,0.1,0.1,0.3c0,0.2,0,0.3,0.1,0.3c0,0,0.1,0.1,0.1,0.2 c0,0.1,0.1,0.3,0.3,0.4c0.2,0.1,0.4,0.2,0.5,0.3c0.2,0.1,0.3,0.1,0.4-0.1c0.1-0.2,0.2-0.2,0.5,0c0.3,0.2,0.7,0.3,0.8,0.1 c0-0.1,0.2-0.2,0.4-0.2c0.1,0,0.2,0,0.3,0c0,0.2,0,0.3,0,0.5c0,0.3-0.1,0.9-0.1,1.3c-0.2,0.8-0.5,1.1-1,0.8c-0.2-0.2-0.3-0.2-0.6,0 c-0.3,0.2-0.6,0.2-1.1,0c-0.2-0.1-0.6-0.2-1-0.3c-0.3-0.1-0.6-0.2-0.6-0.3c0-0.1-0.1-0.1-0.3-0.2c-0.4-0.1-0.9,0.2-0.8,0.5 c0,0.2-0.1,0.4-0.1,0.5c-0.1,0.2-0.2,0.2-0.6-0.1c-0.3-0.1-0.6-0.2-0.7-0.2c-0.1,0-0.3-0.1-0.4-0.2c-0.1-0.2-0.8-0.6-1-0.5 c-0.1,0.1-1-0.4-1-0.5c0,0,0.1-0.2,0.2-0.3c0.2-0.2,0.2-0.3,0.1-0.5c-0.1-0.2-0.1-0.2,0-0.4c0.1-0.2,0.1-0.2,0-0.1 c-0.1,0-0.2,0-0.2-0.1c0-0.1-0.1-0.1-0.4,0c-0.2,0-0.9,0.1-1.5,0.2c-0.8,0.1-1.8,0.2-2.3,0.8c-0.1,0.1-1.1,0.1-1.2-0.1 c-0.1-0.2-0.2-0.1-0.4,0.3c-0.1,0.3-0.3,0.5-0.5,0.7c-0.4,0.3-0.9,1-0.9,1.4c0,0.3-0.3,0.8-0.9,1.1c-0.4,0.2-1.1,1.2-1.2,1.4 c0,0.1-0.1,0.3-0.2,0.4c-0.1,0.2-0.4,0.5-0.5,0.9c-0.3,0.5-0.3,0.6-0.2,0.8c0.1,0.2,0.1,0.5,0,1.3c-0.1,0.5-0.4,1.4-0.5,1.4 c-0.1,0-0.1,0.1,0,0.3c0.1,0.2,0.1,0.5,0,0.7c-0.1,0.3,0,0.4,0.1,0.4c0.1,0,0.2,0.1,0.2,0.2c0,0,0.1,0.3,0.3,0.7 c0.2,0.3,0.3,0.7,0.3,0.8c0,0.6,0.9,1.2,1.4,1.7c0.3,0.2,0.3,0.2,1.4,0c0.3-0.1,0.7-0.1,1,0c0.4,0.1,0.6,0.1,1.1-0.2 c0.6-0.3,1.5-0.6,2.1-0.3c0.2,0.1,0.3,0.3,0.3,0.4c0,0.3,0.2,0.5,0.8,0.4c0.5-0.1,0.6,0,0.9,0.2c0.2,0.2,0.3,0.4,0.3,0.5 c-0.1,0.1-0.1,0.5-0.1,0.8c0,0.3-0.1,0.7-0.1,0.8c-0.2,0.2,0.1,0.6,0.8,1.3c0.6,0.7,1.1,1.5,1.3,2.4c0,0.2,0.1,0.6,0.2,0.9 c0.1,0.4,0,0.5-0.1,0.7c-0.3,0.3-0.6,1.3-0.5,1.7c0.1,0.6,0.6,1.3,1,1.9c0.1,0.2,0.2,0.6,0.3,1c0.1,0.8,0.3,1.3,0.6,1.5 c0.2,0.2,0.9,1.4,0.8,1.5c-0.1,0.2,0.2,0.6,0.4,0.7c0.2,0.1,0.3,0.1,0.5,0c0.1-0.1,0.5-0.2,0.8-0.2c1-0.1,1.9-0.4,2.5-1.3 c0.2-0.2,0.5-0.5,0.6-0.7c0.2-0.2,0.3-0.4,0.4-0.8c0.1-0.5,0.1-0.5,0.5-0.7c0.5-0.2,0.5-0.3,0.5-0.7c0-0.2,0-0.6,0-0.8 c-0.1-0.4,0-0.4,0.2-0.6c0.1-0.1,0.4-0.3,0.5-0.5c0.1-0.2,0.4-0.4,0.6-0.5c0.2-0.1,0.5-0.3,0.6-0.4c0.3-0.3,0.3-0.4,0.4-1.3 c0.1-0.8,0.1-1,0-1.2c-0.1-0.1-0.1-0.4-0.1-0.7c0-0.3,0-0.7-0.1-0.8c-0.1-0.2,0-0.4,0.2-0.9c0.2-0.4,0.5-0.8,0.7-1 c0.2-0.2,0.6-0.6,0.9-1c0.3-0.4,0.7-0.8,0.9-0.9c0.7-0.6,1.1-1.3,1.3-2.2c0.1-0.5,0.2-0.9,0.3-1c0-0.1,0-0.4,0-0.8 c0-0.6-0.1-0.6-0.2-0.5c-0.1,0.1-0.6,0.2-1.1,0.4c-0.4,0.1-0.6,0.2-1,0.3c-0.1-0.1-0.2-0.2-0.3-0.3c-0.2-0.2-0.2-0.4-0.2-0.4 c0.1-0.1-0.6-0.9-1.2-1.4c-0.3-0.2-0.5-0.5-0.6-0.8c-0.1-0.3-0.3-0.7-0.5-0.8c-0.2-0.2-0.3-0.4-0.5-0.9c-0.1-0.4-0.2-0.8-0.4-1 c-0.2-0.2-0.3-0.4-0.3-0.6c0-0.1-0.1-0.4-0.3-0.7c-0.2-0.3-0.4-0.7-0.5-0.9c-0.1-0.2-0.3-0.6-0.5-0.9c-0.1-0.2-0.2-0.4-0.2-0.4 c0,0,0.2,0.2,0.3,0.4c0.3,0.5,0.5,0.6,0.5,0.2c0-0.2,0-0.2,0-0.1c0.1,0.1,0.3,0.5,0.5,0.9c0.2,0.4,0.5,0.7,0.5,0.8 c0,0.1,0.2,0.2,0.3,0.4c0.3,0.2,0.6,0.7,0.6,1.2c0,0.2,0.2,0.4,0.4,0.7c0.2,0.2,0.4,0.4,0.4,0.5c0,0.1,0.2,0.4,0.4,0.7 c0.2,0.3,0.4,0.6,0.4,0.8c0.1,0.5,0.5,1.5,0.6,1.6c0.1,0,0.2,0,0.4-0.1c0.1-0.1,0.3-0.2,0.4-0.2c0.1,0,0.2-0.1,0.4-0.1 c0.1,0,0.2-0.1,0.2-0.1c0,0,0.2-0.1,0.3-0.2c0.1-0.1,0.4-0.3,0.5-0.4c0.2-0.1,0.4-0.3,0.5-0.5c0.1-0.2,0.3-0.3,0.5-0.4 c0.2,0,0.3-0.2,0.3-0.3c0-0.1,0-0.2,0.1-0.2c0.1,0,0.2-0.1,0.2-0.1c0-0.1,0.1-0.2,0.2-0.3c0.1-0.1,0.2-0.2,0.1-0.2 c-0.1-0.1,0-0.5,0.1-0.5c0,0,0.1-0.2,0.2-0.4c0-0.2,0.1-0.2,0.1-0.4c-0.1-0.1-0.1-0.2-0.2-0.3c-0.1-0.2-0.3-0.3-0.5-0.4 c-0.3-0.1-0.5-0.3-0.6-0.8c0-0.1-0.1-0.2-0.1-0.4c-0.1,0.2-0.1,0.3-0.2,0.5c-0.4,0.7-1.1,0.7-1.1,0c0-0.4-0.2-0.5-0.3-0.1 c0,0.3,0,0.3-0.2-0.2c-0.1-0.3-0.3-0.5-0.3-0.6c-0.1,0-0.3-0.3-0.4-0.6c-0.3-0.5-0.3-0.5-0.1-0.7c0.3-0.3,0.5-0.2,0.8,0.4 c0.3,0.5,1,1.3,1.6,1.1c0.1-0.1,0.2-0.1,0.2,0c0,0,0.1,0,0-0.1c-0.1-0.3,0.1-0.2,0.3,0.2c0.1,0.2,0.2,0.3,0.2,0.4 c0.7,0.3,1.7,0.4,2.4,0.2c0,0,0.2,0.1,0.4,0.4c0.5,0.6,0.8,0.9,0.9,0.8c0,0,0.1,0,0.1,0c0,0.1,0,0.1-0.1,0.1c-0.2,0-0.2,0,0.1,0.4 c0.4,0.5,0.6,0.4,0.6,0c0-0.3,0-0.3,0.2,0.1c0.1,0.2,0.2,0.4,0.2,0.5c0.1,0.8,0.5,1.6,0.9,2.4c0.2,0.3,0.3,0.6,0.3,0.7 c0,0.1,0.2,0.4,0.3,0.7c0.1,0.3,0.4,0.7,0.5,1c0.3,0.7,0.4,0.7,0.6,0.1c0.2-0.7,0-1.5-0.2-2.2c-0.1-0.5-0.1-0.6,0-0.7 c0.1,0,0.1-0.1,0.1-0.2c0-0.1,0-0.1,0-0.1c0.1,0,0.3-0.4,0.4-1.1c0.1-0.2,0.2-0.4,0.2-0.4c0.1,0,0.2-0.3,0.1-0.5c0-0.1,0-0.2,0-0.2 c0,0,0.2,0,0.3-0.1c0.1,0,0.2-0.1,0.3-0.1c0,0,0.1-0.1,0-0.2c0-0.3,0.2-0.1,0.4,0.4c0.1,0.2,0.3,0.5,0.4,0.6 c0.1,0.1,0.2,0.2,0.2,0.3c0,0.1,0,0.2,0.1,0.2c0.1,0,0.4,0.6,0.4,0.9c0,0.2,0,0.3,0.1,0.3c0.2,0.1,0.2,0.1,0.3-0.2 c0-0.1,0-0.2,0.1-0.3C65.8,77.4,65.9,77.5,65.9,77.7 M36,66.9c0.2-0.1,0.1-0.2,0-0.2c-0.1,0-0.1,0.1-0.1,0.1 C35.9,66.9,36,66.9,36,66.9 M37.8,66.6c0,0.2,0,0.5,0,0.5c0.2,0,0.4-0.2,0.4-0.5c0-0.4,0-0.5-0.3-0.4C37.9,66.1,37.8,66.3,37.8,66.6 M38.1,65.9c0,0,0.1-0.1,0.1-0.3c0-0.2-0.1-0.3-0.2-0.2C37.9,65.6,38,65.9,38.1,65.9 M39.6,67.9c0.2,0.1,0.4,0.2,0.5,0.2 c0,0,0.1-0.1,0.1-0.3c0.1-0.3,0-0.3-0.4-0.3c-0.3,0-0.5,0.1-0.5,0.1C39.2,67.6,39.4,67.8,39.6,67.9 M43.8,68.9c0.1,0,0.2,0,0.3,0 c0.1,0,0-0.1-0.2-0.1C43.7,68.9,43.6,68.9,43.8,68.9 M46.6,69.2c0.1,0,0.3-0.1,0.3-0.1c0-0.1-0.1-0.1-0.2-0.1c-0.1,0-0.3,0-0.3,0.1 C46.3,69.1,46.4,69.2,46.6,69.2 M38.8,59.5c-0.1,0-0.1,0.1-0.1,0.1c0,0.1,0.1,0.1,0.1,0.1C39,59.6,39,59.5,38.8,59.5 M39.1,59.7 c0.1,0.1,0.3-0.1,0.3-0.3c0-0.1,0-0.1-0.3,0C39,59.4,39,59.6,39.1,59.7 M41.2,58.8c0.1,0,0.1-0.1,0.1-0.1c0-0.1,0-0.1-0.1-0.1 c0,0-0.1,0-0.1,0.1C41.1,58.7,41.1,58.8,41.2,58.8 M42.5,58.3c0.1-0.1,0.1-0.1,0-0.1c-0.1,0-0.2,0-0.2,0.1 C42.3,58.5,42.4,58.5,42.5,58.3 M69.2,61.8C69.2,61.8,69.1,61.8,69.2,61.8c0,0.1,0,0.2,0.1,0.2c0,0,0,0,0-0.1 C69.2,61.8,69.2,61.8,69.2,61.8 M67.2,62.5c0-0.1-0.1-0.1-0.1-0.1C67.1,62.4,67.1,62.4,67.2,62.5C67.1,62.5,67.2,62.6,67.2,62.5 C67.2,62.6,67.2,62.5,67.2,62.5 M69.3,95.4C69.3,95.4,69.3,95.3,69.3,95.4C69.2,95.4,69.2,95.4,69.3,95.4 C69.2,95.4,69.3,95.4,69.3,95.4 M69.7,96.6c-0.1,0.1-0.1,0.1-0.2,0.1c0,0.1,0,0.2-0.1,0.3c-0.1,0.4-0.1,0.5,0.1,0.3 c0.1-0.1,0.1-0.2,0.1-0.1c0,0,0.1-0.1,0.1-0.2C69.9,96.6,69.9,96.5,69.7,96.6 M71.7,95.7C71.7,95.7,71.6,95.6,71.7,95.7 c0-0.1-0.1,0-0.2,0.3c-0.1,0.3-0.3,0.6-0.5,0.7c-0.3,0.4-0.5,0.7-0.6,0.9c0,0.1,0,0.1,0.1,0.1c0.1,0,0.3-0.2,0.5-0.6 c0.1-0.3,0.3-0.6,0.3-0.5c0,0,0,0,0-0.1c0-0.1,0.1-0.2,0.2-0.4C71.7,95.8,71.8,95.6,71.7,95.7 M72.5,94.3 C72.6,94.2,72.5,94.3,72.5,94.3c-0.1,0.1-0.2,0.1-0.2,0c0-0.1,0-0.1,0-0.1c0,0,0-0.1,0-0.2c0-0.1,0.1-0.3,0.1-0.3 c0-0.1,0-0.1-0.1,0.1c0,0.1,0,0.2,0,0.2c0,0.1-0.1,0.5-0.2,0.7C72.1,94.8,72,94.9,72,95c0,0-0.1,0.2-0.1,0.2c0,0.1,0,0.1-0.1,0.3 c-0.1,0.2-0.1,0.2-0.1,0.2c0,0,0.3-0.5,0.4-0.8c0-0.1,0.1-0.1,0.1-0.2C72.3,94.7,72.5,94.4,72.5,94.3 M72.6,87 c0.1-0.5,0.1-0.6,0-0.4c0,0.1-0.2,0.6-0.4,1.3c-0.1,0.3-0.2,0.6-0.3,0.8c-0.1,0.3-0.2,0.4-0.2,0.2c0,0,0-0.2-0.1-0.3 c-0.2-0.3-0.2-0.4,0-0.7c0.1-0.2,0.1-0.3,0.1-0.4c0,0,0.1-0.1,0.1-0.2c0-0.1,0-0.1-0.1-0.1c-0.1,0-0.2,0-0.2-0.1 c-0.1-0.1-0.2-0.1-0.1,0c0,0.1,0,0.3-0.2,0.3c-0.1,0-0.2,0.2-0.2,0.3c0,0-0.1,0.2-0.1,0.3c0,0.1-0.1,0.2-0.1,0.3 c0,0.1-0.1,0.2-0.2,0.2c-0.1,0.1-0.1,0-0.1,0c0-0.1,0-0.2,0-0.2c-0.1-0.1-0.2,0-0.2,0.2c0,0.1,0,0.1-0.1,0.1c0,0-0.3,0.4-0.3,0.5 c0,0.1-0.1,0.1-0.1,0.1c0,0-0.1,0.1-0.1,0.2c0,0.1,0,0.1-0.1,0.1s0,0,0-0.1c0-0.2-0.1,0.1-0.2,0.3c-0.1,0.2-0.3,0.6-0.4,0.7 c0,0-0.3,0.2-0.5,0.4c-0.2,0.2-0.5,0.4-0.5,0.5c-0.1,0.1-0.2,0.2-0.2,0.2c0,0-0.1,0.1-0.1,0.1c0,0.1,0,0.1-0.1,0.1 c-0.1-0.1-0.4,0.9-0.4,1.1c0,0.2,0,0.2-0.1,0.3c-0.1,0.1-0.1,0.2-0.2,0.6c0,0.3-0.1,0.6-0.2,0.8c0,0.1,0,0.3,0,0.3 c0,0.1-0.2,0.7-0.3,0.8c-0.2,0.1-0.2,0.2,0,0.3c0.1,0.1,0.2,0.1,0.5-0.2c0.2-0.2,0.3-0.3,0.6-0.4c0.2-0.1,0.3-0.1,0.4-0.2 c0.1-0.3,0.4-0.5,1.1-0.9c0.2-0.1,0.3-0.2,0.3-0.1c0,0,0.1,0.1,0.1,0c0.1,0,0.1,0.5,0,0.7c-0.1,0.2,0,0.1,0.3-0.3 c0.3-0.4,0.3-0.4,0.1,0.1c-0.2,0.4-0.2,0.5-0.1,0.2c0.1-0.2,0.1-0.1,0,0.2c-0.1,0.1-0.1,0.2,0,0.1c0.1-0.1,0.1,0,0,0.3 c-0.1,0.3-0.1,0.4,0,0.4c0.1,0,0.1,0,0.1,0.1c0,0,0.1,0,0.2-0.1c0.1-0.2,0.2-0.2,0.2-0.1c0,0.1,0,0.1,0.2-0.1 c0.1-0.2,0.3-0.3,0.3-0.3c0.1,0,0.1-0.1,0.2-0.2c0.1-0.2,0.7-1.4,0.8-1.7c0.1-0.1,0.2-0.3,0.2-0.5c0.1-0.1,0.2-0.4,0.2-0.6 c0.1-0.2,0.1-0.4,0.2-0.6c0-0.1,0.1-0.4,0.1-0.5c0-0.2,0.1-0.4,0.1-0.6c0-0.2,0-0.4,0-0.4c0-0.1,0-0.1,0-0.2c0,0,0-0.2,0-0.3 c0-0.2,0-0.4,0-0.5c0-0.1,0-0.2,0-0.4c0-0.1,0.1-0.3,0.1-0.4c0-0.1,0-0.3,0.1-0.4c0-0.2,0-0.3,0-0.3C72.5,87.6,72.5,87.4,72.6,87 M71.6,87.8C71.6,87.9,71.6,87.9,71.6,87.8C71.6,87.9,71.7,87.8,71.6,87.8c0.1-0.1,0.1-0.1,0-0.1C71.7,87.7,71.7,87.7,71.6,87.8 M72,85.3c0.1-0.2,0.1-0.4,0.1-0.4c0,0,0,0.1,0,0.1C72,85.1,72,85.2,72,85.3C71.9,85.5,71.9,85.5,72,85.3 M73.3,86 c0,0,0.1,0,0.1,0.1c0,0,0,0,0-0.2c0-0.1,0-0.2,0-0.2c0,0,0,0,0,0s0-0.2,0-0.3c0-0.2,0-0.4,0.1-0.5c0.1,0,0-0.1,0-0.2 c0-0.1-0.1-0.2-0.1-0.2c0-0.2-0.1-0.4-0.3-0.6c-0.1-0.1-0.3-0.2-0.3-0.3c0-0.1-0.1,0-0.3,0.3c-0.2,0.4-0.2,0.4-0.2,0.2 c0-0.1,0-0.3,0-0.4c0-0.2,0-0.3,0-0.3c0-0.1-0.2-0.1-0.3,0.1c-0.1,0.1-0.1,0.1-0.1,0.1c0,0,0.1,0,0.1,0.1c0.1,0,0.1,0.1,0.1,0.2 c0,0.1,0,0.1,0.1,0.1c0.1,0,0,0,0,0.1s-0.1,0.1-0.1,0.1c0,0,0,0.2,0,0.2c0,0.1,0,0.2,0,0.2c0,0,0-0.1,0-0.1c0,0,0.1,0,0.2,0.1 c0.1,0.1,0.2,0.2,0.2,0.2c0.1,0,0.1,0.5,0.1,0.7c0,0.1-0.1,0.1-0.1,0.2c0,0-0.1,0.1-0.1,0.2c0,0.2,0,0.2,0.1,0.1 c0.1-0.1,0.2-0.1,0.2,0.1c0,0.2,0.3,0.1,0.3-0.1c0-0.1,0.1-0.2,0.1-0.3c0.1-0.2,0.2-0.1,0.2,0.3C73.2,85.8,73.3,85.9,73.3,86 M73.5,89.2C73.5,88.8,73.4,88.9,73.5,89.2c0,0.2,0,0.3,0,0.3S73.5,89.3,73.5,89.2 M74,84c0-0.2,0-0.1-0.1,0.1 c0,0.1-0.1,0.2-0.2,0.3c-0.1,0-0.1,0.1-0.1,0.1c0,0,0,0.1,0.1,0.1c0,0.1,0.1,0.1,0.1,0C73.9,84.5,74,84.1,74,84 M74.1,83.9 c0-0.1,0-0.1,0-0.1c0,0,0,0,0,0C74.1,83.8,74.1,83.9,74.1,83.9C74.1,84,74.1,84,74.1,83.9 M74.2,84.3C74.2,84.2,74.2,84.2,74.2,84.3 c-0.1,0.1,0,0.3,0,0.3C74.2,84.6,74.3,84.4,74.2,84.3 M74.5,85.3C74.5,85.3,74.5,85.3,74.5,85.3C74.4,85.2,74.4,85.3,74.5,85.3 C74.4,85.4,74.4,85.4,74.5,85.3C74.5,85.3,74.5,85.3,74.5,85.3 M74.5,85.1c0,0.1,0,0.1,0,0.1C74.5,85.2,74.5,85.2,74.5,85.1 C74.6,85,74.6,84.9,74.5,85.1 M74.8,87.5C74.9,87.4,74.8,87.4,74.8,87.5C74.8,87.4,74.8,87.4,74.8,87.5 C74.7,87.6,74.8,87.6,74.8,87.5 M75,87C75,86.9,75,86.9,75,87C75,86.9,75,87,75,87c0,0.1,0,0.1,0,0.1C75,87.1,75,87.1,75,87 M61.8,62.9C61.9,63,61.9,63.1,61.8,62.9c0.1,0,0-0.1,0-0.2C61.8,62.7,61.8,62.8,61.8,62.9 M62.6,55.6c0,0,0,0,0-0.1 c0-0.1-0.1-0.1-0.1-0.1c0,0,0,0,0,0.1C62.6,55.6,62.6,55.6,62.6,55.6 M60.4,62.9c0,0,0,0,0,0.1c0,0.1,0.1,0.1,0.1,0.1 c0,0,0-0.1,0-0.1C60.5,62.9,60.4,62.9,60.4,62.9 M47.3,84.6c0,0-0.1,0-0.2,0.1c-0.1,0.1-0.1,0.2-0.1,0.3c0,0,0.1,0,0.2-0.1 C47.2,84.8,47.3,84.7,47.3,84.6 M49.5,67.4C49.4,67.4,49.4,67.5,49.5,67.4c0,0.1,0.1,0.1,0.1,0.1C49.7,67.5,49.6,67.4,49.5,67.4 M51.3,58.5c0-0.1,0-0.1-0.1-0.1C51.2,58.4,51.2,58.4,51.3,58.5c-0.1,0-0.1,0.1,0,0.1C51.3,58.6,51.3,58.6,51.3,58.5 M46.5,67.3 c0,0.1,0.1,0.1,0.1,0.1c0,0,0-0.1,0-0.1c0-0.1-0.1-0.1-0.1-0.1C46.4,67.2,46.4,67.2,46.5,67.3 M52.6,67.1c0-0.1,0-0.1-0.1-0.1 c-0.1,0-0.1-0.1-0.1-0.2c0-0.1,0-0.2,0.1-0.2c0.1,0,0.2,0,0.2,0c0.1-0.1,0.1-0.1-0.1-0.4c-0.2-0.2-0.2-0.3-0.4-0.2 c-0.1,0.2-0.1,0.1-0.1-0.1c0-0.2,0-0.3-0.1-0.3c0,0-0.2-0.2-0.5-0.5c-0.2-0.3-0.3-0.5-0.3-0.5c0.1,0,0.1-0.1,0.2-0.2 c0-0.1,0.1-0.2,0.2-0.1c0.2,0,0.2-0.2,0.2-0.4c-0.1-0.4-0.6-0.4-1,0c-0.5,0.4-0.6,0.7-0.3,1.1c0.1,0.2,0.2,0.3,0.2,0.4 c0,0,0.2,0.3,0.4,0.7l0.4,0.5l-0.1,0.4c0,0.2,0,0.5,0,0.7c0.2,0.5,1.1,0.9,1.4,0.6c0.1-0.1,0-0.9-0.2-1 C52.6,67.3,52.5,67.2,52.6,67.1 M50.3,67.7c0,0,0,0.1,0,0.2c0.1,0.1,0.1,0.2,0.2,0.2c0,0,0-0.1,0-0.2C50.4,67.8,50.3,67.7,50.3,67.7 M44.8,66.2c-0.2,0-0.3,0-0.4,0.1c0,0.1,0.1,0.1,0.3,0.1c0.2,0,0.3,0,0.4-0.1C45.1,66.3,45,66.2,44.8,66.2 M49.9,60.2 C50,60.1,50,60,50,60C50,59.9,49.9,60,49.9,60.2c-0.2,0.2,0,0.6,0.1,0.5c0-0.1,0-0.1-0.1-0.2C49.9,60.4,49.9,60.4,49.9,60.2 M46.2,87.7c0,0.3,0.1,0.7,0.2,0.9c0.1,0.1,0.2,0.4,0.2,0.5c0,0.1,0.1,0.3,0.2,0.3c0.1,0,0.1-0.2-0.1-0.6c-0.1-0.2-0.2-0.6-0.2-0.8 C46.4,87.2,46.2,87,46.2,87.7 M45,57.6c0.3,0,0.2-0.3-0.1-0.5c-0.3-0.2-0.3-0.2-0.4-0.1C44.4,57.2,44.7,57.6,45,57.6 M54.1,64.6 c-0.1-0.1-0.1-0.2-0.1-0.4c0-0.2,0-0.2-0.2-0.2c-0.3,0-0.6,0.4-0.5,0.9c0.1,0.3,0.1,0.4,0.6,0.5c0.2,0.1,0.3,0.1,0.3,0 c0-0.1,0-0.2,0-0.3C54.2,64.8,54.2,64.7,54.1,64.6 M46.1,57.2c0-0.1,0-0.2-0.2-0.4c-0.1-0.2-0.2-0.2-0.2-0.1c0,0.1,0,0.1-0.1,0.1 c-0.2-0.1-0.1,0.1,0.1,0.4C45.9,57.2,46,57.3,46.1,57.2 M46.9,58.5c0-0.1-0.1-0.2-0.2-0.3c-0.1-0.1-0.2-0.1-0.1,0 C46.7,58.5,47,58.7,46.9,58.5 M47.6,64.7c-0.2-0.2-0.4-0.3-0.4-0.4c0,0,0-0.1,0.1,0c0.1,0.1,0.2-0.3,0.1-0.4c0,0,0-0.1,0.2-0.2 c0.1-0.1,0.1-0.1,0.2-0.2c-0.1,0-0.1,0-0.2,0c-0.1,0-0.3,0-0.4,0.1c-0.1,0-0.3,0.2-0.5,0.2c-0.3,0.1-0.3,0.2-0.2,0.3 c0.1,0.1,0.3,0.2,0.4,0.1c0.1,0,0.2,0,0.2,0.1c0,0.1-0.1,0.2-0.2,0.2c-0.1,0-0.2,0-0.3,0.1c-0.1,0.1-0.2,0.1-0.4-0.1 c-0.2-0.2-0.2-0.3-0.1-0.4c0.1-0.1,0.1-0.1-0.1-0.1c-0.2,0-0.3-0.1-0.3-0.2c0-0.4-0.6,0.1-0.7,0.6c0,0.1-0.1,0.2-0.1,0.2 c-0.1-0.1-0.4,1.1-0.3,1.3c0.2,0.4,1,0.5,1.5,0.2c0.3-0.2,0.7-0.2,1.1,0.1c0.4,0.3,1.4,0.4,1.6,0.2C49.2,65.6,48,65,47.6,64.7 M191.9,48.2h-35.1v114.8h35.1V48.2z M157.9,16.4c0,9.1,7.4,16.4,16.3,16.4c9.2,0,16.6-7.4,16.6-16.4S183.4,0,174.2,0 C165.3,0,157.9,7.4,157.9,16.4"></path> </svg> 