<?xml version="1.0" encoding="UTF-8"?> <svg xmlns="http://www.w3.org/2000/svg" xmlns:xlink="http://www.w3.org/1999/xlink" version="1.1" x="0px" y="0px" viewBox="0 0 600 108.2" style="enable-background:new 0 0 600 108.2;" xml:space="preserve"> <style type="text/css"> .st0{display:none;} .st1{display:inline;fill:#1E1E1E;} .st2{fill:#FFFFFF;} </style> <g id="BACKGROUND" class="st0"> <rect x="-78.1" y="-178" class="st1" width="400" height="400"></rect> </g> <g id="LOGOS"> <g> <polygon class="st2" points="593.2,101.8 593.2,102.5 591,102.5 591,108.2 590.1,108.2 590.1,102.5 587.9,102.5 587.9,101.8 593.2,101.8 "></polygon> <path class="st2" d="M593.8,101.8h1.3l1.9,5.5l1.9-5.5h1.2v6.5h-0.8v-3.8c0-0.2,0-0.4,0-0.7c0-0.3,0-0.6,0-1l-1.9,5.5h-0.9 l-1.9-5.5v0.2c0,0.1,0,0.4,0,0.7c0,0.3,0,0.5,0,0.8v3.8h-0.8V101.8L593.8,101.8z"></path> <path class="st2" d="M51.5,41.5c0.1-5.6,1.7-8.9,7.1-8.9c4.3,0,6.1,2.5,6.1,6.5c0,4.9-1.1,5.9-6.9,7.4c-5.4,1.4-12.6,2.6-17.4,5.3 c-4.8,2.6-7.9,9-7.9,16.5c0,14,6.3,19.7,17.2,19.7c6.5,0,12.6-3.4,15.2-9.1h0.2c0.1,2.5,0.4,5.1,1.1,7.4h18.7 c-2.3-2.9-2.3-9.1-2.3-14V39.1c0-13.6-7.1-19.1-23-19.1c-8,0-13.5,1.1-18.1,4.2c-4.5,3.1-7.2,8.5-7.3,17.4H51.5L51.5,41.5z M51.2,66.4c0-3.6,1-5.6,3-7.2c1.8-1.4,4.4-1.6,10.5-4.8c0,2.6-0.1,6-0.1,11.4c0,6.5-3.7,8.9-7.8,8.9 C53.2,74.7,51.2,71.6,51.2,66.4L51.2,66.4z"></path> <path class="st2" d="M123.6,86.4h18.7V1h-19.4v27.8h-0.2c-3.2-6.9-9.1-8.7-14.5-8.7c-15.9,0-18.8,14.5-18.8,34.6 c0,24.2,6.9,33.5,20,33.5c8.6,0,12.6-5.1,14-9.6h0.2V86.4L123.6,86.4z M123.2,54.5c0,12.6-1.2,19.5-6.9,19.5 c-7.3,0-7.5-9.9-7.5-20.3c0-11.7,0.4-19.5,7.4-19.5C122.7,34.1,123.2,43,123.2,54.5L123.2,54.5z"></path> <path class="st2" d="M202.2,86.4h-18.7v-7.7h-0.2c-2.8,5.7-8.4,9.3-15.6,9.3c-11,0-16.9-5.5-16.9-18V21.7h19.4v44.2 c0,4.7,2,7.4,5.6,7.4c3.7,0,6.9-2.9,6.9-9.2V21.7h19.4V86.4L202.2,86.4z"></path> <polygon class="st2" points="211.3,1 230.7,1 230.7,86.4 211.3,86.4 211.3,1 "></polygon> <path class="st2" d="M244.4,35.1h-8V21.7h8v-19h19.4v19h9v13.4h-9v32.7c0,4.5,1.7,6,6.2,6c0.8,0,1.9-0.1,2.8-0.2v12.9 c-3.7,0.5-7.4,0.7-11.1,0.7c-13.4,0-17.2-2.4-17.2-17.5V35.1L244.4,35.1z"></path> <path class="st2" d="M313.1,65.8c0.1,2.9,0.4,5.4,1.3,7.3c1.1,1.8,2.9,3,6,3c4.5,0,6.9-2.9,6.9-6.6c0-3-1.4-5.9-7.4-7.9 c-15.9-5.4-23.6-8.5-23.6-22.1c0-12.9,9.1-19.5,24.7-19.5c18.2,0,23.5,8.9,23.5,18.2v2.2h-17.2v-1.2c0-5.6-2.3-7.2-6.3-7.2 c-5.1,0-6.6,2.5-6.6,6c0,11.5,31,3.8,31,29c0,13-8.7,21.2-24.8,21.2c-17.4,0-24.7-6.5-24.7-19.4v-2.9H313.1L313.1,65.8z"></path> <polygon class="st2" points="347.6,21.7 367,21.7 373.2,69.4 373.4,69.4 380.7,21.7 401.6,21.7 408.4,69.4 408.6,69.4 415.4,21.7 434.1,21.7 420.1,86.4 398.2,86.4 391.2,38.7 390.9,38.7 383.4,86.4 361.1,86.4 347.6,21.7 "></polygon> <path class="st2" d="M439.9,0h19.4v14.8h-19.4V0L439.9,0z M439.9,21.7h19.4v64.7h-19.4V21.7L439.9,21.7z"></path> <path class="st2" d="M468.1,21.7h18.7v7.7h0.2c2.8-5.7,8.4-9.3,15.6-9.3c5.6,0,13,1.1,15.9,9.9c4.5-7.5,8.9-9.9,16-9.9 c11,0,16.9,5.5,16.9,18v48.5H532V42.2c0-4.7-2-7.4-5.6-7.4c-3.7,0-6.9,2.9-6.9,9.2v42.4h-19.4V42.2c0-4.7-2-7.4-5.6-7.4 c-3.7,0-6.9,2.9-6.9,9.2v42.4h-19.4V21.7L468.1,21.7z"></path> <polygon class="st2" points="0,0.8 30.3,0.8 30.3,14.2 18,14.2 18,94.8 30.3,94.8 30.3,108.2 0,108.2 0,0.8 "></polygon> <polygon class="st2" points="555.8,94.8 568.1,94.8 568.1,14.2 555.8,14.2 555.8,0.8 586.1,0.8 586.1,108.2 555.8,108.2 555.8,94.8 "></polygon> </g> </g> </svg> 