<?xml version="1.0" encoding="UTF-8"?> <svg xmlns="http://www.w3.org/2000/svg" xmlns:xlink="http://www.w3.org/1999/xlink" version="1.1" id="Layer_1" x="0px" y="0px" width="117.3px" height="68.8px" viewBox="0 0 117.3 68.8" style="enable-background:new 0 0 117.3 68.8;" xml:space="preserve"> <style type="text/css"> .st0{fill:#FFFFFF;} </style> <g id="Animal_Planet_Logo_1_"> <path id="Animal_Planet_1_" class="st0" d="M7.2,56.9v1.1c0,0-0.9-1.4-3-1.4c-2.4,0-4.3,2-4.3,4.5c0,2.6,1.9,4.6,4.3,4.6 c1.1,0,2.4-0.5,2.9-1.3h0.1v1h2.7v-8.5H7.2z M5.1,63.5c-1.4,0-2.3-1.2-2.3-2.3c0-1.3,1-2.3,2.3-2.3c1.3,0,2.3,1,2.3,2.3 C7.4,62.3,6.5,63.5,5.1,63.5z M51.2,56.9v1.1c0,0-0.9-1.4-3-1.4c-2.4,0-4.3,2-4.3,4.5c0,2.6,1.9,4.6,4.3,4.6c1.1,0,2.4-0.5,2.9-1.3 h0.1v1h2.7v-8.5H51.2z M49.1,63.5c-1.4,0-2.3-1.2-2.3-2.3c0-1.3,1-2.3,2.3-2.3c1.3,0,2.3,1,2.3,2.3C51.4,62.3,50.5,63.5,49.1,63.5z M21,60.2v5.3h-2.7c0,0,0-3.8,0-4.3c0-1.4-0.3-2.4-1.6-2.4c-1.3,0-1.9,1.1-1.9,2.9v3.8h-2.7v-8.5h2.7v1.1h0.1c0.7-1,1.8-1.4,3-1.4 C19.9,56.7,21,57.8,21,60.2z M42.9,60.2v5.3h-2.7c0,0,0-3.8,0-4.3c0-1.4-0.3-2.4-1.6-2.4c-1.3,0-1.9,1-1.9,2.9v3.8H34 c0,0,0-3.8,0-4.3c0-1.4-0.3-2.4-1.6-2.4c-1.3,0-1.9,1.1-1.9,2.9v3.8h-2.7v-8.5h2.7v1.1h0.1c0.7-1,1.8-1.4,3-1.4 c1.4,0,2.3,0.5,2.7,1.6l0,0c0.7-1,2.1-1.6,3.4-1.6C41.8,56.7,42.9,57.8,42.9,60.2z M25.8,53.8c0,0.8-0.7,1.5-1.5,1.5 s-1.5-0.7-1.5-1.5c0-0.8,0.7-1.5,1.5-1.5S25.8,53,25.8,53.8z M25.6,56.9v8.5h-2.7v-8.5H25.6z M58.8,53.6v11.9h-2.7V53.6H58.8z M86.3,56.9v1.1c0,0-0.9-1.4-3-1.4c-2.4,0-4.3,2-4.3,4.5c0,2.6,1.9,4.6,4.3,4.6c1.1,0,2.4-0.5,2.9-1.3h0.1v1H89v-8.5H86.3z M84.2,63.5c-1.4,0-2.3-1.2-2.3-2.3c0-1.3,1-2.3,2.3-2.3c1.3,0,2.3,1,2.3,2.3C86.5,62.3,85.6,63.5,84.2,63.5z M63.9,56.9v11.9h2.7 v-4.3h0.1c0.5,0.8,1.7,1.3,2.9,1.3c2.4,0,4.3-2,4.3-4.6c0-2.6-1.8-4.5-4.3-4.5c-2,0-3,1.4-3,1.4v-1.1H63.9z M66.4,61.2 c0-1.3,1-2.3,2.3-2.3c1.3,0,2.3,1,2.3,2.3c0,1.1-0.9,2.3-2.3,2.3C67.3,63.5,66.4,62.3,66.4,61.2z M100.1,60.2v5.3h-2.7 c0,0,0-3.8,0-4.3c0-1.4-0.3-2.4-1.6-2.4c-1.3,0-1.9,1.1-1.9,2.9v3.8h-2.7v-8.5h2.7v1.1h0.1c0.7-1,1.8-1.4,3-1.4 C99,56.7,100.1,57.8,100.1,60.2z M117.1,59.1v-2.1H115v-2h-2.7v2H111v2.1h1.3v3.3c0,2.2,0.9,3.4,3.2,3.4c0.5,0,1.1,0,1.8-0.2 l-0.2-2.1c-0.4,0.1-1,0.1-1.3,0.1c-0.5-0.1-0.8-0.4-0.8-1.2v-3.3H117.1z M77.8,53.6v11.9h-2.7V53.6H77.8z M110.4,61.9 c0.2-2.8-1.1-5.3-4.6-5.3c-3,0-4.5,2.2-4.5,4.6c0,2.6,1.9,4.5,5.1,4.5c1.3,0,2.2-0.3,3.1-0.7l-0.5-1.9c-0.7,0.2-1.3,0.5-2.4,0.5 c-1.3,0-2.2-0.7-2.4-1.8H110.4z M106,58.6c1.1,0,1.9,0.8,2,1.7h-4C104.2,59.2,105.1,58.6,106,58.6z"></path> <path id="Elephant_1_" class="st0" d="M89.5,1.4l-1.8,3c9.3,1.8,14.6,5.7,14.6,10.4c0,3.1-2.3,6-6.3,6c-6,0-10.5-9.5-10.5-9.5 c-1.3,0-3.5-0.1-3.5-0.1S75.7,2.9,65.8,0v13.5c0.9,0.7,2,1.8,3,3.1c-4.4-2.7-9.1-4.7-17.2-4.7c-8.9,0-19.7,3.6-25.7,13.4l0.6,1.1 c2.7-3.1,7-5,7.1-5c-5.9,5.2-9.3,13.7-11,19.3l5.2,5.2c5.8-6.5,15.5-12.7,28.6-12.7c9.8,0,19.8,4.1,26.8,11.2l5.6-5.6 c-4.7-8-10.4-13.7-10.6-13.9c0.2,0.1,5.3,3,14.1,3c8.2,0,15.5-4.6,15.5-11.4C108,8.3,101,3.2,89.5,1.4z"></path> </g> </svg> 