<?xml version="1.0" encoding="UTF-8"?> <svg xmlns="http://www.w3.org/2000/svg" xmlns:xlink="http://www.w3.org/1999/xlink" version="1.1" x="0px" y="0px" viewBox="0 0 600 243.6" style="enable-background:new 0 0 600 243.6;" xml:space="preserve"> <style type="text/css"> .st0{display:none;} .st1{display:inline;fill:#1E1E1E;} .st2{fill-rule:evenodd;clip-rule:evenodd;fill:#FFFFFF;} .st3{fill:#FFFFFF;} </style> <g id="BACKGROUND" class="st0"> <rect x="-116.2" y="-166" class="st1" width="400" height="400"></rect> </g> <g id="LOGOS"> <g> <path class="st2" d="M472.6,168.1c25.6,0,46.3-20.8,46.3-46.4c0-25.6-20.7-46.4-46.3-46.4c-25.6,0-46.3,20.8-46.3,46.4 C426.3,147.3,447,168.1,472.6,168.1L472.6,168.1L472.6,168.1z"></path> <path class="st2" d="M472.6,184.9c-34.9,0-63.2-28.3-63.2-63.3c0-35,28.3-63.3,63.2-63.3s63.2,28.3,63.2,63.3 C535.8,156.6,507.5,184.9,472.6,184.9L472.6,184.9L472.6,184.9z M353.2,138.2c-4.7-6.2-11.6-12.1-21.5-17.8 c11.2-5.8,18.4-12.9,22.7-22.4c-1.5,7.7-2.3,15.6-2.3,23.7C352,127.3,352.4,132.8,353.2,138.2L353.2,138.2L353.2,138.2z M295.3,184.3c-5.3,4.4-12.6,4.1-19.2,4.1h-28.6v-44h26.1c15.8,0,29.3,4.1,30,22.6C303.6,173,300,180.9,295.3,184.3L295.3,184.3 L295.3,184.3z M247.5,55.5h25.7c12.5,0,25.7,2.2,25.7,18.2c0.9,14.5-7.7,23-25.1,23l-26.4,0.1V55.5L247.5,55.5L247.5,55.5z M473.2,0c-53.1,0-98.3,34.1-114.8,81.7c0.6-4.7,0.9-9.8,0.9-15.3c0-17.6-10.1-36.7-24.5-47.1c-13.5-9.8-27.2-15.7-43.5-15.7 H186.1v239.6h98.6c19.5,0,36.2-7.2,52.8-19.1c15.4-11,25.2-30.6,25.2-49.2c0-0.9,0-1.7,0-2.6c19.2,41.9,61.4,71,110.5,71 c67.1,0,121.5-54.5,121.5-121.6S540.3,0,473.2,0L473.2,0L473.2,0z"></path> <polygon class="st2" points="110.9,91.5 61.2,91.5 61.2,3.1 0,3.1 0,243.6 60.9,243.6 60.9,149.7 110.6,149.7 110.6,243.6 172.6,243.6 172.6,3.1 110.9,3.1 110.9,91.5 110.9,91.5 "></polygon> <path class="st3" d="M585.7,26.9l2.4,0c1.1,0,1.9-0.2,2.3-0.5c0.4-0.3,0.6-0.8,0.6-1.3c0-0.4-0.1-0.7-0.3-1 c-0.2-0.3-0.5-0.5-0.8-0.6c-0.4-0.2-1-0.2-2-0.2l-2.3,0L585.7,26.9L585.7,26.9L585.7,26.9z M583.8,33.7l0-12.2l4.2,0 c1.4,0,2.5,0.1,3.1,0.3c0.6,0.2,1.2,0.6,1.5,1.2c0.4,0.6,0.6,1.1,0.6,1.8c0,0.9-0.3,1.7-0.9,2.3c-0.7,0.7-1.5,1-2.5,1.1 c0.4,0.2,0.8,0.4,1,0.7c0.5,0.5,1.1,1.3,1.8,2.4l1.5,2.4l-2.4,0l-1.1-1.9c-0.8-1.5-1.5-2.5-2.1-2.8c-0.4-0.3-0.9-0.4-1.6-0.4 l-1.1,0l0,5.2L583.8,33.7L583.8,33.7L583.8,33.7z M588.7,18.1c-1.6,0-3.1,0.4-4.6,1.2c-1.5,0.8-2.7,2-3.5,3.5 c-0.9,1.5-1.3,3.1-1.3,4.7c0,1.6,0.4,3.2,1.2,4.7c0.8,1.5,2,2.6,3.5,3.5c1.5,0.8,3.1,1.3,4.7,1.3c1.6,0,3.2-0.4,4.7-1.2 c1.5-0.8,2.7-2,3.5-3.5c0.8-1.5,1.2-3.1,1.2-4.7c0-1.6-0.4-3.2-1.3-4.7c-0.8-1.5-2-2.7-3.5-3.5C591.8,18.4,590.3,18,588.7,18.1 M588.7,16.2c1.9,0,3.8,0.5,5.6,1.5c1.8,1,3.2,2.4,4.2,4.2c1,1.8,1.5,3.7,1.5,5.7c0,1.9-0.5,3.8-1.5,5.6c-1,1.8-2.4,3.2-4.2,4.2 c-1.8,1-3.7,1.5-5.6,1.5c-2,0-3.8-0.5-5.6-1.5c-1.8-1-3.2-2.4-4.2-4.2c-1-1.8-1.5-3.7-1.5-5.6c0-2,0.5-3.8,1.5-5.7 c1-1.8,2.4-3.2,4.2-4.2C584.9,16.7,586.8,16.2,588.7,16.2"></path> </g> </g> </svg> 