<?xml version="1.0" encoding="UTF-8"?> <svg xmlns="http://www.w3.org/2000/svg" xmlns:xlink="http://www.w3.org/1999/xlink" version="1.1" id="Discovery_Plus_Logo" x="0px" y="0px" viewBox="0 0 600 380.9" style="enable-background:new 0 0 600 380.9;" xml:space="preserve"> <style type="text/css"> .st0{fill:#FFFFFF;} </style> <g id="Discovery_Plus_Logo_1_"> <path id="Discovery" class="st0" d="M46.5,283.2v31c-4.2-5.4-10.2-10.2-19.7-10.2C13,304.1,0,314.9,0,334.2 c0,19.2,13.2,30.1,26.8,30.1c9.4,0,15.4-4.8,19.7-10.8v9.6h13.2v-79.8H46.5z M29.9,352.8c-9,0-16.6-7.2-16.6-18.6 c0-11.6,7.5-18.6,16.6-18.6c8.9,0,16.7,7.3,16.7,18.6C46.7,345.4,38.8,352.8,29.9,352.8z M75.7,305.3V363H89v-57.7H75.7z M75.2,283.2v12.6h14.2v-12.6H75.2z M145.9,346v-0.2c0-10.4-9.5-14.2-17.9-16.8c-6.8-2.2-13-3.9-13-8.1v-0.2c0-3.4,3-5.8,8.1-5.8 c4.8,0,10.7,2.1,16.3,5.5l5.2-9.4c-6.1-4-14-6.6-21.2-6.6c-11.5,0-20.5,6.7-20.5,17.6v0.2c0,11,9.5,14.5,18,16.9 c6.8,2.1,12.9,3.6,12.9,8.1v0.2c0,3.8-3.3,6.2-9,6.2c-5.9,0-12.7-2.4-18.9-7.1l-5.9,9c7.2,5.7,16.3,8.6,24.5,8.6 C136.5,364.1,145.9,358.1,145.9,346z M207.9,353.5l-8-7.9c-4.2,4.3-8.7,7.2-15,7.2c-10.2,0-17.3-8.3-17.3-18.7 c0-10.2,7-18.5,16.6-18.5c6.7,0,10.9,3,15,7.2l8.2-8.9c-5.4-5.9-12.1-9.9-23.1-9.9c-17.3,0-30,13.8-30,30.3c0,16.5,12.7,30,29.8,30 C195.6,364.4,202.2,359.9,207.9,353.5z M244.5,304.1c-17.7,0-30.8,13.7-30.8,30.3c0,16.5,13,29.9,30.6,29.9 c17.8,0,30.9-13.7,30.9-30.2C275.2,317.6,262.2,304.1,244.5,304.1z M244.5,352.9c-10.3,0-17.6-8.4-17.6-18.7 c0-10.2,6.8-18.5,17.4-18.5c10.4,0,17.7,8.4,17.7,18.7C262,344.6,255.2,352.9,244.5,352.9z M324.2,305.3l-15.6,42.4L293,305.3 h-14.2l23.7,58.2h11.9l23.6-58.2H324.2z M397.7,335.3c0-16.7-9.3-31.2-27.7-31.2c-16.5,0-28.2,13.6-28.2,30.2 c0,17.9,12.9,30.1,29.6,30.1c10.6,0,18.1-4.3,23.6-10.8l-7.8-6.9c-4.6,4.5-9.2,6.9-15.6,6.9c-8.5,0-15.1-5.2-16.6-14.6h42.4 C397.6,337.6,397.7,336.5,397.7,335.3z M355,330.1c1.2-9,6.9-15.2,15-15.2c8.7,0,13.8,6.7,14.6,15.2H355z M423.4,341.1 c0-15.3,8.1-22.8,19.7-22.8h0.8v-14c-10.2-0.4-16.8,5.5-20.4,14.1v-13h-13.2V363h13.2V341.1z M510.1,305.3h-13.8l-15,42.8 l-16.4-42.8h-14.1l24,57.7c-2.2,5-4.5,6.7-8.2,6.7c-2.7,0-5.4-0.9-7.8-2.2l-4.5,9.8c4,2.2,8.1,3.5,13.7,3.5c9.3,0,14.4-4.4,19-16.2 L510.1,305.3z M566.3,329.3H600v-11.7h-33.7v-34.4h-11.7v34.4h-33.7v11.7h33.7V363h11.7V329.3z"></path> <path id="Mark_1_" class="st0" d="M313,157.5c0,38.6-31.3,69.9-69.9,69.9s-69.9-31.3-69.9-69.9s31.3-69.9,69.9-69.9 S313,118.9,313,157.5z M408.2,35c-23.8-22.6-55.1-35-88-35h-86.8l-0.1,68.2c-44.8,5.1-79.6,43.7-79.6,89.1 c0,25.6,10.2,49,28.6,65.8c16.7,15.2,39,23.9,61.1,23.9h76.7c33.3,0,64.6-12.1,88.1-34.1c24.5-22.9,38-54.7,38-89.4 C446.3,89.7,432.8,58.3,408.2,35z M437.5,123.5c0,32.2-12.5,61.7-35.2,82.9c-21.9,20.5-51.1,31.7-82.1,31.7h-77.1 c-44.6,0-80.8-36.2-80.8-80.8c0-44.3,35.7-80.2,79.8-80.7c0,0,0-45.5,0-67.9h78c30.7,0,59.8,11.6,82,32.6 C425,63,437.5,92.1,437.5,123.5z M394.7,49.2c-20.2-19.1-46.6-29.6-74.5-29.6H253l0,57.7c39.9,4.9,70.8,38.9,70.8,80.1 c0,29.9-16.2,55.9-40.3,69.9h36.7c28.3,0,54.8-10.2,74.7-28.8c20.5-19.2,31.8-45.8,31.8-75C426.7,95.2,415.3,68.8,394.7,49.2z"></path> </g> </svg> 