<?xml version="1.0" encoding="UTF-8"?> <svg xmlns="http://www.w3.org/2000/svg" xmlns:xlink="http://www.w3.org/1999/xlink" version="1.1" x="0px" y="0px" viewBox="0 0 600 347.5" style="enable-background:new 0 0 600 347.5;" xml:space="preserve"> <style type="text/css"> .st0{display:none;} .st1{display:inline;fill:#1E1E1E;} .st2{fill:#FFFFFF;} </style> <g id="BACKGROUND" class="st0"> <rect x="-122.9" y="-155.3" class="st1" width="400" height="400"></rect> </g> <g id="LOGOS"> <g> <g> <defs> <rect id="SVGID_4_" width="600" height="347.5"></rect> </defs> <clipPath id="SVGID_00000085210796641781485600000002983759253109967243_"> <use xlink:href="#SVGID_4_" style="overflow:visible;"></use> </clipPath> </g> <g> <rect x="435.6" y="-145.2" class="st2" width="0" height="290.4"></rect> <path class="st2" d="M290.4,290.4h290.4V0H290.4V290.4z M311.1,20.7h83l83,103.7V20.7h83v248.9h-83l-83-103.7v103.7h-83V20.7z"></path> <path class="st2" d="M153.3,98.5c17.3,0,32.5,9.5,40.5,23.5l72.1-41.2c-22.3-39-64.4-65.3-112.6-65.3 c-71.6,0-129.6,58-129.6,129.7c0,71.6,58,129.7,129.6,129.7c48.2,0,90.2-26.3,112.6-65.3l-72.1-41.2c-8,14-23.2,23.5-40.5,23.5 c-25.8,0-46.7-20.9-46.7-46.7C106.6,119.4,127.5,98.5,153.3,98.5z"></path> </g> <polygon class="st2" points="437.2,337.2 441.4,346.7 451.3,346.7 458.1,311.2 446.1,311.2 443.2,326.8 437.2,312.4 431.3,326.8 428.3,311.2 416.4,311.2 423.2,346.7 433,346.7 437.2,337.2 "></polygon> <polygon class="st2" points="413.5,311.2 378,311.2 378,321.5 389.1,321.5 389.1,346.7 402.4,346.7 402.4,321.5 413.5,321.5 413.5,311.2 "></polygon> <path class="st2" d="M477.4,335.6c-3.7,0-6.7-3-6.7-6.7c0-3.7,3-6.7,6.7-6.7c3.7,0,6.7,3,6.7,6.7 C484.1,332.6,481.1,335.6,477.4,335.6L477.4,335.6z M477.4,310.4c-10.2,0-18.5,8.3-18.5,18.5c0,10.2,8.3,18.5,18.5,18.5 c10.2,0,18.5-8.3,18.5-18.5C495.9,318.7,487.7,310.4,477.4,310.4L477.4,310.4z"></path> <polygon class="st2" points="338,346.7 338,311.2 326.1,311.2 326.1,326 314.2,311.2 302.4,311.2 302.4,346.7 314.2,346.7 314.2,331.9 326.1,346.7 338,346.7 "></polygon> <polygon class="st2" points="374.1,321.5 374.1,311.2 343,311.2 343,346.7 374.1,346.7 374.1,337.1 354.8,337.1 354.8,333.5 371.1,333.5 371.1,324.6 354.8,324.6 354.8,321.5 374.1,321.5 "></polygon> <path class="st2" d="M511.3,321.5h7.4c1.6,0,3,1.3,3,3c0,1.6-1.3,3-3,3h-7.4V321.5L511.3,321.5z M533.5,323.8 c0-6.5-5.1-12.6-13.3-12.6h-20.7v35.6h11.9v-10.4h3.8l5.2,10.4h13.2l-7-11.8C530.6,332.8,533.5,328.6,533.5,323.8L533.5,323.8z"></path> <polygon class="st2" points="573.2,311.2 557.9,311.2 549.1,322.8 549.1,311.2 537.2,311.2 537.2,346.7 549.1,346.7 549.1,333.5 557.9,346.7 573.2,346.7 559.3,328.3 573.2,311.2 "></polygon> <path class="st2" d="M61.6,331.9l3.1-10.9l3.1,10.9H61.6L61.6,331.9z M72.1,346.8h12.6l-11.1-35.6H55.8l-11.1,35.6h12.7l1.7-5.9 h11.4L72.1,346.8L72.1,346.8z"></path> <polygon class="st2" points="161,311.2 125.4,311.2 125.4,321.6 136.5,321.6 136.5,346.8 149.9,346.8 149.9,321.6 161,321.6 161,311.2 "></polygon> <path class="st2" d="M34.4,332.5c-1.3,2.2-3.6,3.7-6.4,3.7c-4.1,0-7.3-3.3-7.3-7.3s3.3-7.3,7.3-7.3c2.7,0,5.1,1.5,6.4,3.7l9.7-5.6 c-3.2-5.6-9.2-9.3-16.1-9.3c-10.2,0-18.5,8.3-18.5,18.5c0,10.2,8.3,18.5,18.5,18.5c6.9,0,12.9-3.8,16.1-9.3L34.4,332.5L34.4,332.5 z"></path> <path class="st2" d="M181,335.6c-3.7,0-6.7-3-6.7-6.7c0-3.7,3-6.7,6.7-6.7c3.7,0,6.7,3,6.7,6.7C187.7,332.7,184.7,335.6,181,335.6 L181,335.6z M181,310.4c-10.2,0-18.5,8.3-18.5,18.5c0,10.2,8.3,18.5,18.5,18.5c10.2,0,18.5-8.3,18.5-18.5 C199.5,318.7,191.2,310.4,181,310.4L181,310.4z"></path> <path class="st2" d="M221,335.6c-3.7,0-6.7-3-6.7-6.7c0-3.7,3-6.7,6.7-6.7c3.7,0,6.7,3,6.7,6.7C227.7,332.7,224.7,335.6,221,335.6 L221,335.6z M221,310.4c-10.2,0-18.5,8.3-18.5,18.5c0,10.2,8.3,18.5,18.5,18.5c10.2,0,18.5-8.3,18.5-18.5 C239.5,318.7,231.2,310.4,221,310.4L221,310.4z"></path> <polygon class="st2" points="278.6,346.8 278.6,311.2 266.7,311.2 266.7,326 254.9,311.2 243,311.2 243,346.8 254.9,346.8 254.9,331.9 266.7,346.8 278.6,346.8 "></polygon> <path class="st2" d="M100,321.6h7.4c1.6,0,3,1.3,3,3c0,1.6-1.3,3-3,3H100V321.6L100,321.6z M122.3,323.8c0-6.5-5.1-12.6-13.3-12.6 H100h-7.4h-4.4v35.6H100v-10.4h3.8l5.2,10.4h13.2l-7.1-11.8C119.3,332.8,122.3,328.6,122.3,323.8L122.3,323.8z"></path> <polygon class="st2" points="588.2,339.1 588.2,346.7 586.9,346.7 586.9,339.1 584.4,339.1 584.4,337.9 590.7,337.9 590.7,339.1 588.2,339.1 "></polygon> <polygon class="st2" points="598.7,346.7 598.7,340.8 596.6,345.1 595.6,345.1 593.5,340.8 593.5,346.7 592.2,346.7 592.2,337.9 593.5,337.9 596.1,343.4 598.7,337.9 600,337.9 600,346.7 598.7,346.7 "></polygon> </g> </g> </svg> 