<?xml version="1.0" encoding="UTF-8"?> <svg xmlns="http://www.w3.org/2000/svg" xmlns:xlink="http://www.w3.org/1999/xlink" version="1.1" x="0px" y="0px" viewBox="0 0 600 450" style="enable-background:new 0 0 600 450;" xml:space="preserve"> <style type="text/css"> .st0{display:none;} .st1{display:inline;fill:#1E1E1E;} .st2{fill:#FFFFFF;} </style> <g id="BACKGROUND" class="st0"> <rect x="-137.1" y="-152.9" class="st1" width="400" height="400"></rect> </g> <g id="LOGOS"> <g> <g id="Logo_8_"> <polygon class="st2" points="120,120 120,202.5 163.2,202.5 180,185.7 180,136.8 163.2,120 "></polygon> <polygon class="st2" points="420,120 420,202.5 463.2,202.5 480,185.7 480,136.8 463.2,120 "></polygon> <polygon class="st2" points="120,247.5 120,330 163.2,330 180,313.2 180,264.3 163.2,247.5 "></polygon> <path class="st2" d="M0,0v450h600V0H0z M225,204.3L204.3,225l20.7,20.7v86.1L181.8,375H75V75h106.8l43.2,43.2V204.3z M337.5,214 l-75,75v-53l75-75V214z M485.6,375l-34.2-127.5H420V375h-45V75h106.8l43.2,43.2v86.1L493.4,236l37.3,139H485.6z"></path> </g> </g> </g> </svg> 