<?xml version="1.0" encoding="UTF-8"?> <svg xmlns="http://www.w3.org/2000/svg" xmlns:xlink="http://www.w3.org/1999/xlink" version="1.1" id="Layer_1" x="0px" y="0px" viewBox="0 0 401 398.7" style="enable-background:new 0 0 401 398.7;" xml:space="preserve"> <style type="text/css"> .st0{fill:#FFFFFF;} </style> <g> <g> <g> <path class="st0" d="M244.8,179.9c0,2.2-0.3,4.5-0.6,7.1c-0.2,1.4-0.4,2.7-0.7,4.1c-0.2,1.3-0.4,2.5-0.7,3.8 c-0.5,2.8-1.1,5.4-1.7,8c-0.3,1.2-0.6,2.3-0.9,3.4c-0.4,1.3-0.8,2.6-1.2,3.8c-0.8,2.2-1.7,4.3-2.9,6.2c-1.1,1.9-2.4,3.5-3.9,4.9 c-0.8,0.8-1.7,1.5-2.6,2.1c-0.9,0.6-1.9,1.1-2.9,1.6c-1,0.4-2,0.7-3.2,0.9c-1.1,0.2-2.2,0.3-3.4,0.4c-1.2,0-2.3-0.1-3.4-0.3 c-1-0.2-2-0.5-2.8-0.9c-0.8-0.4-1.6-0.9-2.3-1.5c-0.7-0.6-1.3-1.3-1.9-2c-0.9-1.4-1.6-3.1-2-4.9c-0.4-1.9-0.5-3.9-0.5-6.2 c0.1-2.2,0.3-4.7,0.7-7.2c0.4-2.6,0.9-5.3,1.4-8c0.5-2.8,1.1-5.5,1.7-8c0.6-2.5,1.3-4.9,2.1-7.1c0.8-2.2,1.8-4.2,2.9-6.1 c1.1-1.8,2.4-3.4,4-4.8c0.8-0.8,1.7-1.4,2.6-2c0.9-0.6,1.8-1.1,2.8-1.5c1-0.4,2-0.7,3-0.9c1.1-0.2,2.2-0.3,3.4-0.3 c1.2,0,2.3,0.1,3.3,0.3c1,0.2,2,0.5,2.8,0.9c0.8,0.4,1.6,0.9,2.3,1.4c0.7,0.6,1.3,1.2,1.9,2c1,1.4,1.6,3,2,4.8 C244.7,175.7,244.9,177.7,244.8,179.9z"></path> <path class="st0" d="M156.3,179.9c0,2.2-0.3,4.5-0.6,7.1c-0.2,1.4-0.4,2.8-0.7,4.2c-0.2,1.2-0.4,2.5-0.7,3.8 c-0.5,2.8-1.1,5.4-1.7,8c-0.3,1.1-0.6,2.3-0.9,3.3c-0.4,1.3-0.8,2.6-1.2,3.8c-0.8,2.2-1.7,4.3-2.8,6.2c-1.1,1.9-2.4,3.5-3.9,4.9 c-0.8,0.8-1.7,1.5-2.6,2.1c-0.9,0.6-1.9,1.1-2.9,1.6c-1,0.4-2.1,0.7-3.2,1c-1.1,0.2-2.3,0.3-3.4,0.4c-1.2,0-2.3-0.1-3.4-0.3 c-1-0.2-2-0.5-2.8-0.9c-0.8-0.4-1.6-0.9-2.3-1.5c-0.7-0.6-1.3-1.3-1.9-2c-1-1.4-1.6-3.1-2-4.9c-0.4-1.9-0.5-3.9-0.4-6.2 c0.1-2.3,0.3-4.7,0.7-7.2c0.4-2.5,0.9-5.2,1.4-8c0.5-2.8,1.1-5.5,1.7-8c0.6-2.5,1.3-4.9,2.1-7.1c0.8-2.2,1.8-4.2,2.9-6.1 c1.1-1.8,2.4-3.4,4-4.8c0.9-0.8,1.7-1.4,2.6-2s1.8-1.1,2.8-1.5c1-0.4,2-0.7,3-0.9c1.1-0.2,2.2-0.3,3.4-0.3c1.2,0,2.3,0.1,3.3,0.3 c1,0.2,2,0.5,2.8,0.9c0.9,0.4,1.7,0.9,2.4,1.4c0.7,0.6,1.3,1.2,1.9,2c1,1.4,1.6,3,2,4.8C156.2,175.7,156.4,177.7,156.3,179.9z"></path> <path class="st0" d="M332.6,179.8c0,2.2-0.3,4.6-0.6,7.1c-0.2,1.4-0.4,2.8-0.7,4.2c-0.2,1.2-0.4,2.4-0.6,3.7 c-0.4,2.5-0.9,4.8-1.4,7.1c-0.4,1.6-0.8,3.1-1.3,4.6c-0.4,1.3-0.8,2.6-1.2,3.8c-0.8,2.3-1.8,4.3-2.9,6.3c-1.1,1.9-2.4,3.5-4,5 c-0.8,0.8-1.8,1.5-2.7,2.1c-0.9,0.6-1.9,1.1-2.9,1.6c-1,0.4-2.1,0.7-3.2,1c-1.1,0.2-2.3,0.3-3.5,0.4c-1.2,0-2.4-0.1-3.4-0.3 c-1-0.2-2-0.5-2.9-0.9c-0.9-0.4-1.6-0.9-2.3-1.5c-0.7-0.6-1.4-1.3-1.9-2.1c-1-1.4-1.6-3.1-2-4.9c-0.4-1.9-0.5-4-0.4-6.2 c0.1-2.3,0.3-4.7,0.7-7.3c0.4-2.6,0.9-5.3,1.4-8.1c0.5-2.8,1.1-5.5,1.7-8.1c0.6-2.6,1.3-5,2.1-7.2c0.8-2.2,1.8-4.3,2.9-6.1 c1.1-1.8,2.5-3.5,4-4.9c0.8-0.8,1.7-1.5,2.6-2.1c0.9-0.6,1.9-1.1,2.8-1.5c1-0.4,2-0.7,3.1-0.9c1.1-0.2,2.2-0.3,3.4-0.3 c1.2,0,2.3,0.1,3.3,0.3c1,0.2,2,0.5,2.9,0.9c0.9,0.4,1.7,0.9,2.4,1.5c0.7,0.6,1.4,1.3,1.9,2c1,1.4,1.6,3,2,4.9 C332.5,175.5,332.6,177.6,332.6,179.8z"></path> <path class="st0" d="M157.4,277.5c-0.6-1.4-1.9-2.4-3.9-2.4c-2,0-3.3,1-3.9,2.4c-0.4,0.9-0.5,1.5-0.6,2.5h8.9 C157.9,279,157.7,278.3,157.4,277.5z M157.4,277.5c-0.6-1.4-1.9-2.4-3.9-2.4c-2,0-3.3,1-3.9,2.4c-0.4,0.9-0.5,1.5-0.6,2.5h8.9 C157.9,279,157.7,278.3,157.4,277.5z M157.4,277.5c-0.6-1.4-1.9-2.4-3.9-2.4c-2,0-3.3,1-3.9,2.4c-0.4,0.9-0.5,1.5-0.6,2.5h8.9 C157.9,279,157.7,278.3,157.4,277.5z M157.4,277.5c-0.6-1.4-1.9-2.4-3.9-2.4c-2,0-3.3,1-3.9,2.4c-0.4,0.9-0.5,1.5-0.6,2.5h8.9 C157.9,279,157.7,278.3,157.4,277.5z M157.4,277.5c-0.6-1.4-1.9-2.4-3.9-2.4c-2,0-3.3,1-3.9,2.4c-0.4,0.9-0.5,1.5-0.6,2.5h8.9 C157.9,279,157.7,278.3,157.4,277.5z M249.1,276.5c-0.7-0.7-1.6-1-2.8-1c-1.2,0-2,0.4-2.7,1c-1.2,1.2-1.4,3.2-1.4,5.7 s0.1,4.5,1.4,5.7c0.7,0.7,1.5,1,2.7,1c1.2,0,2.1-0.4,2.8-1c1.2-1.2,1.4-3.3,1.4-5.7S250.3,277.7,249.1,276.5z M249.1,276.5 c-0.7-0.7-1.6-1-2.8-1c-1.2,0-2,0.4-2.7,1c-1.2,1.2-1.4,3.2-1.4,5.7s0.1,4.5,1.4,5.7c0.7,0.7,1.5,1,2.7,1c1.2,0,2.1-0.4,2.8-1 c1.2-1.2,1.4-3.3,1.4-5.7S250.3,277.7,249.1,276.5z M157.4,277.5c-0.6-1.4-1.9-2.4-3.9-2.4c-2,0-3.3,1-3.9,2.4 c-0.4,0.9-0.5,1.5-0.6,2.5h8.9C157.9,279,157.7,278.3,157.4,277.5z M382.3,120.1c-1.1,0.2-2.2,0.5-3.2,0.9c-1,0.4-2,0.9-2.9,1.5 c-0.9,0.6-1.8,1.3-2.7,2.1c-1.6,1.5-3,3.2-4.2,5.1c-1.2,1.9-2.2,4.1-3,6.4c-0.9,2.3-1.6,4.8-2.2,7.5c-0.6,2.7-1.2,5.5-1.8,8.4 c-0.3,1.8-3.2,18.7-5.5,32.4l-3.1,17.8c0,0-0.1,0.5-0.2,1.1c-0.1,0.3-0.1,0.7-0.2,1c-0.2,1.4-0.4,2.8-0.5,4.1 c-0.1,0.6-0.1,1.1-0.1,1.5c0,0.5-0.1,1.6-0.1,1.6c0,0.1,0,0.2,0,0.2c0,1.4,0,2.7,0.3,3.9c0.3,1.6,0.8,3,1.6,4.2 c0.5,0.7,1,1.3,1.6,1.8c0.6,0.5,1.2,1,2,1.3c0.7,0.4,1.5,0.6,2.4,0.8c0.1,0,0.3,0,0.4,0.1l-6.3,20.2c-0.7,0-1.3,0-2,0 c-2.4-0.1-4.6-0.4-6.6-0.8c-2-0.5-3.8-1.1-5.5-2c-0.3-0.2-0.6-0.4-0.9-0.5c-1.2-0.6-2.3-1.2-3.3-2c-1.5-1.1-2.9-2.4-4-3.8 c-1.8-2.3-3-4.9-3.8-7.8c-1,1.8-2.2,3.6-3.7,5.3c-0.7,0.7-1.3,1.4-2,2.1l-0.1,0.1c-0.1,0.1-0.3,0.2-0.4,0.4 c-0.3,0.3-0.7,0.6-1,0.9c0,0,0,0,0,0c-0.4,0.3-0.7,0.6-1.1,0.9c-1.1,0.8-2.1,1.6-3.2,2.3c-1.9,1.2-3.9,2.2-5.9,3 c-2,0.7-4.1,1.3-6.3,1.6c-2.2,0.3-4.5,0.4-7,0.3c-2.3-0.1-4.5-0.4-6.6-0.8c-2.1-0.5-4.1-1.1-5.9-2c-1.8-0.8-3.5-1.8-4.9-3 c-1.5-1.1-2.7-2.4-3.8-3.8c-1.9-2.5-3.1-5.5-3.8-8.7c-0.7-3.2-0.9-6.7-0.8-10.3c0.1-3.6,0.6-7.3,1.2-11.1c0.6-3.7,1.4-7.5,2.1-11 c0.7-3.6,1.5-7.3,2.5-11c0.9-3.7,2-7.3,3.3-10.8c1.3-3.5,2.9-6.8,4.9-9.8c1.9-3,4.3-5.7,7.1-7.9c1.5-1.2,3.3-2.3,5.1-3.3 c1.9-0.9,3.8-1.7,5.9-2.4c2-0.6,4.2-1.1,6.4-1.4c2.2-0.3,4.4-0.3,6.6-0.2c2.3,0.1,4.5,0.4,6.4,0.9c2,0.5,3.8,1.1,5.5,1.9 c1.7,0.8,3.2,1.9,4.6,3.2c1.2,1.2,2.4,2.5,3.4,4.1c0.2-1.3,0.4-2.7,0.6-4.1c0.6-3.5,1.4-7.1,2.3-10.9c0.9-3.8,1.8-7.5,2.7-10.9 c1-3.4,2-6.7,3.3-9.6c0.4-1,0.9-2,1.3-3c0.1-0.3,0.3-0.7,0.6-1.2c0.1-0.1,0.1-0.2,0.1-0.2c0.2-0.3,0.4-0.7,0.6-1.1 c0.5-0.9,1-1.8,1.6-2.6c1-1.5,2.1-2.9,3.4-4.2c4-4.4,9.9-8.9,18.1-10.4C337,39.7,272.9,0.1,199.6,0C89.5-0.1,0.1,89,0,199.2 c0,32,7.5,62.3,20.9,89.1c4-1.8,7.4-4.8,9.8-8.7l0.1-0.2c0.1-0.1,0.1-0.2,0.2-0.3c1.2-1.8,2.1-3.8,2.9-6c0.7-2,1.4-4.4,2-7.1 c0.1-0.5,15.2-82.8,16.1-87.7l-13.2,0l6.5-21.9l10.3,0l1.1-5.7c0.1-0.8,0.2-1.5,0.4-2.3l0.3-1.9c0.6-3.5,1.3-7.5,2-10.3 c0.6-2.3,1.1-4.3,1.7-6.1c0.9-2.7,1.8-5.1,2.7-7.2c1.6-3.4,3.3-6.4,5.3-9.2c2.1-2.9,4.5-5.5,7.3-8c2-1.8,4.2-3.4,6.5-4.9 c2.5-1.6,5.1-3,8-4.1c3.1-1.2,6.2-2.2,9.4-2.8c3.5-0.7,7.1-1.1,10.7-1.1l0.5,0c3.6,0,7,0.3,10.1,1c1.2,0.2,2.4,0.6,3.5,0.9 l0.2,0.1l-7.2,23.2l-0.3-0.2c-0.1-0.1-0.3-0.2-0.5-0.2c-1.1-0.5-2.3-0.9-3.6-1.2c-1.4-0.3-2.8-0.4-4.3-0.4h-0.2 c-1.6,0-3.2,0.2-4.7,0.5c-1.3,0.3-2.6,0.7-4,1.2l-0.2,0.1c-0.1,0-0.1,0-0.2,0.1c-1,0.4-2,0.8-2.9,1.4c-0.9,0.6-1.9,1.3-2.7,2 c-1.6,1.3-2.9,2.9-4.1,4.7c-1.1,1.8-2.1,3.7-2.9,5.9c-0.7,2-1.4,4.3-2,7c-0.1,0.3-0.4,2.3-0.7,4.1c-0.3,1.5-0.5,2.8-0.5,3 L83,156.3l15.8-0.1l-6.5,22l-12.9-0.1l-11.9,66.3l-3.1,16.1c-0.7,3.8-1.4,7-2.3,10.3c-1.1,4.2-2.4,7.8-3.9,11.2 c-1.6,3.5-3.3,6.5-5.4,9.4c-2.2,2.9-4.6,5.6-7.4,8.1c-2.1,1.8-4.3,3.5-6.7,5c-2,1.3-4.1,2.4-6.4,3.4 c35.5,54.5,97,90.5,166.9,90.6c110.1,0.1,199.4-89,199.6-199.2C398.8,171.3,392.9,144.5,382.3,120.1z M132.8,293.9h-5.9v-14.2 c0-3.2-2-4.3-3.9-4.3c-1.9,0-3.9,1.1-3.9,4.3v14.2h-5.9v-23.5h5.7v2.2c1.5-1.6,3.7-2.4,5.9-2.4c2.3,0,4.2,0.8,5.5,2.1 c1.9,1.9,2.4,4.1,2.4,6.7V293.9z M163.7,284H149c0,3,1.9,5.2,5.2,5.2c2.6,0,3.8-0.7,5.3-2.2l3.6,3.5c-2.4,2.4-4.7,3.7-8.9,3.7 c-5.5,0-10.9-2.5-10.9-12c0-7.7,4.2-12,10.2-12c6.5,0,10.2,4.8,10.2,11.2V284z M167.3,224.4c-1.8,2.5-4,5-6.5,7.2 c-1.7,1.6-3.7,3.1-5.9,4.5c-2.2,1.4-4.6,2.7-7.2,3.8c-2.6,1.1-5.5,2-8.6,2.7c-3.1,0.6-6.4,1-9.9,1.1c-3.5,0.1-6.7-0.3-9.6-0.8 c-2.9-0.6-5.4-1.4-7.7-2.5c-2.3-1.1-4.2-2.3-5.9-3.7c-1.7-1.4-3.1-2.9-4.3-4.5c-1.8-2.3-3.1-4.6-4-7.2c-0.9-2.6-1.5-5.3-1.8-8.4 c-0.2-3-0.2-6.3,0.1-9.9c0.3-3.6,0.9-7.6,1.7-11.9c0.8-4.3,1.7-8.2,2.7-11.8c1-3.6,2.2-6.8,3.5-9.8c1.4-3,3-5.7,4.9-8.2 c1.9-2.5,4.1-4.8,6.6-7.1c1.7-1.5,3.7-3,5.9-4.3c2.2-1.4,4.6-2.6,7.2-3.6c2.6-1,5.4-1.9,8.5-2.5c3-0.6,6.3-0.9,9.7-0.8 c3.4,0,6.5,0.4,9.3,1c2.8,0.6,5.3,1.5,7.5,2.5c2.2,1.1,4.1,2.3,5.8,3.7c1.6,1.4,3,2.8,4.2,4.3c1.7,2.2,3,4.5,4,7 c0.9,2.5,1.5,5.1,1.8,8.1c0.3,2.9,0.3,6.1,0,9.6c-0.3,3.5-0.8,7.3-1.5,11.6c-0.7,4.3-1.5,8.1-2.4,11.7c-0.9,3.6-2,6.8-3.3,9.8 C170.7,219.1,169.1,221.8,167.3,224.4z M185,275.6h-4.2v11.3c0,1.4,0.6,2.1,2,2.1h2.1v5h-3.2c-4.8,0-6.8-3.4-6.8-6.7v-11.6h-2.5 v-4.5h2.5v-6.9h5.9v6.9h4.2V275.6z M221,293.9h-4.8l-4.9-14.7l-4.9,14.7h-4.8l-7.2-23.5h6.2l3.8,14.5l4.8-14.5h4.3l4.8,14.5 l3.8-14.5h6.2L221,293.9z M253.7,291.3c-1.4,1.5-3.8,2.9-7.3,2.9s-5.8-1.4-7.3-2.9c-2.1-2.2-2.7-4.9-2.7-9.2 c0-4.2,0.5-6.9,2.7-9.1c1.4-1.5,3.8-2.9,7.3-2.9s5.9,1.4,7.3,2.9c2.1,2.2,2.7,4.9,2.7,9.1C256.3,286.4,255.8,289.1,253.7,291.3z M263.8,206.4c-1,3.6-2,6.8-3.3,9.8c-1.3,3-2.8,5.7-4.7,8.2c-1.8,2.6-4,5-6.5,7.2c-1.7,1.6-3.7,3.1-5.9,4.5 c-2.2,1.4-4.6,2.7-7.2,3.8c-2.6,1.1-5.5,2-8.6,2.7c-3.1,0.6-6.4,1-9.9,1.1c-3.5,0.1-6.7-0.2-9.6-0.8c-2.9-0.6-5.4-1.4-7.7-2.5 c-2.3-1.1-4.2-2.3-5.9-3.7c-1.7-1.4-3.1-2.9-4.3-4.5c-1.8-2.3-3.1-4.6-4-7.2s-1.5-5.3-1.8-8.3c-0.2-3-0.2-6.3,0.1-9.9 c0.3-3.6,0.9-7.6,1.7-11.9c0.8-4.3,1.7-8.2,2.7-11.8c1-3.6,2.2-6.8,3.6-9.8c1.4-3,3-5.7,4.9-8.2c1.9-2.5,4.1-4.8,6.6-7.1 c1.7-1.5,3.7-3,5.9-4.3c2.2-1.4,4.6-2.6,7.2-3.6c2.6-1,5.4-1.9,8.5-2.4c3-0.6,6.3-0.9,9.7-0.9c3.4,0,6.5,0.4,9.3,1 c2.8,0.6,5.3,1.5,7.5,2.5c2.2,1.1,4.1,2.3,5.8,3.7c1.6,1.4,3,2.8,4.2,4.3c1.7,2.2,3,4.5,4,7c1,2.5,1.5,5.1,1.8,8.1 c0.3,2.9,0.3,6.1,0,9.6c-0.3,3.5-0.8,7.3-1.5,11.6C265.5,198.9,264.7,202.8,263.8,206.4z M279.1,276.8c-0.9-0.9-1.7-1.4-3.1-1.4 c-1.8,0-3.8,1.4-3.8,4.3v14.2h-5.9v-23.5h5.7v2.3c1.1-1.4,3.4-2.5,5.9-2.5c2.3,0,3.9,0.6,5.5,2.2L279.1,276.8z M306.7,293.9 l-5.8-9.8l-2.5,2.8v7h-5.9v-32.1h5.9V280l7.8-9.6h7.1l-8.4,9.5l9,14H306.7z M246.4,275.4c-1.2,0-2,0.4-2.7,1 c-1.2,1.2-1.4,3.2-1.4,5.7s0.1,4.5,1.4,5.7c0.7,0.7,1.5,1,2.7,1c1.2,0,2.1-0.4,2.8-1c1.2-1.2,1.4-3.3,1.4-5.7s-0.1-4.5-1.4-5.7 C248.4,275.8,247.5,275.4,246.4,275.4z M153.5,275c-2,0-3.3,1-3.9,2.4c-0.4,0.9-0.5,1.5-0.6,2.5h8.9c-0.1-1-0.2-1.7-0.6-2.5 C156.7,276.1,155.4,275,153.5,275z M157.4,277.5c-0.6-1.4-1.9-2.4-3.9-2.4c-2,0-3.3,1-3.9,2.4c-0.4,0.9-0.5,1.5-0.6,2.5h8.9 C157.9,279,157.7,278.3,157.4,277.5z M249.1,276.5c-0.7-0.7-1.6-1-2.8-1c-1.2,0-2,0.4-2.7,1c-1.2,1.2-1.4,3.2-1.4,5.7 s0.1,4.5,1.4,5.7c0.7,0.7,1.5,1,2.7,1c1.2,0,2.1-0.4,2.8-1c1.2-1.2,1.4-3.3,1.4-5.7S250.3,277.7,249.1,276.5z M249.1,276.5 c-0.7-0.7-1.6-1-2.8-1c-1.2,0-2,0.4-2.7,1c-1.2,1.2-1.4,3.2-1.4,5.7s0.1,4.5,1.4,5.7c0.7,0.7,1.5,1,2.7,1c1.2,0,2.1-0.4,2.8-1 c1.2-1.2,1.4-3.3,1.4-5.7S250.3,277.7,249.1,276.5z M157.4,277.5c-0.6-1.4-1.9-2.4-3.9-2.4c-2,0-3.3,1-3.9,2.4 c-0.4,0.9-0.5,1.5-0.6,2.5h8.9C157.9,279,157.7,278.3,157.4,277.5z M157.4,277.5c-0.6-1.4-1.9-2.4-3.9-2.4c-2,0-3.3,1-3.9,2.4 c-0.4,0.9-0.5,1.5-0.6,2.5h8.9C157.9,279,157.7,278.3,157.4,277.5z M157.4,277.5c-0.6-1.4-1.9-2.4-3.9-2.4c-2,0-3.3,1-3.9,2.4 c-0.4,0.9-0.5,1.5-0.6,2.5h8.9C157.9,279,157.7,278.3,157.4,277.5z"></path> <path class="st0" d="M243.5,191.1c-0.2,1.2-0.4,2.4-0.6,3.6c-0.5,2.4-0.9,4.8-1.4,7c-0.4,1.6-0.8,3.1-1.2,4.5 c0.3-1.1,0.6-2.2,0.9-3.4c0.6-2.5,1.2-5.2,1.7-8C243.1,193.6,243.3,192.4,243.5,191.1z"></path> <path class="st0" d="M155.1,191.1c-0.2,1.2-0.4,2.4-0.6,3.6c-0.4,2.4-0.9,4.8-1.4,7c-0.4,1.6-0.8,3-1.2,4.5 c0.3-1.1,0.6-2.2,0.9-3.3c0.6-2.5,1.2-5.2,1.7-8C154.6,193.6,154.9,192.4,155.1,191.1z"></path> </g> </g> <path class="st0" d="M396.5,109.4c-0.1-1.4-0.1-1.5-0.4-1.9c-0.2-0.3-0.5-0.6-1-0.7v-0.1c1.1-0.4,1.6-1,1.6-2.1 c0-1.4-1-2.2-2.9-2.2H390v8.4h1v-3.2c0-0.2,0-0.3-0.1-0.5c0.2,0.1,0.3,0.1,0.5,0.1h2c1.8,0,2.1,0.3,2.2,2.4c0.1,0.7,0.1,1,0.3,1.2 h1.2C396.7,110.5,396.6,110.3,396.5,109.4z M393.3,106.4h-1.9c-0.2,0-0.3,0-0.5,0.1c0.1-0.2,0.1-0.3,0.1-0.5v-2.2 c0-0.3,0-0.3-0.1-0.5c0.2,0.1,0.3,0.1,0.5,0.1h2.2c1.5,0,2.1,0.5,2.1,1.5C395.7,105.9,395,106.4,393.3,106.4z M396.5,109.4 c-0.1-1.4-0.1-1.5-0.4-1.9c-0.2-0.3-0.5-0.6-1-0.7v-0.1c1.1-0.4,1.6-1,1.6-2.1c0-1.4-1-2.2-2.9-2.2H390v8.4h1v-3.2 c0-0.2,0-0.3-0.1-0.5c0.2,0.1,0.3,0.1,0.5,0.1h2c1.8,0,2.1,0.3,2.2,2.4c0.1,0.7,0.1,1,0.3,1.2h1.2 C396.7,110.5,396.6,110.3,396.5,109.4z M393.3,106.4h-1.9c-0.2,0-0.3,0-0.5,0.1c0.1-0.2,0.1-0.3,0.1-0.5v-2.2c0-0.3,0-0.3-0.1-0.5 c0.2,0.1,0.3,0.1,0.5,0.1h2.2c1.5,0,2.1,0.5,2.1,1.5C395.7,105.9,395,106.4,393.3,106.4z M396.5,109.4c-0.1-1.4-0.1-1.5-0.4-1.9 c-0.2-0.3-0.5-0.6-1-0.7v-0.1c1.1-0.4,1.6-1,1.6-2.1c0-1.4-1-2.2-2.9-2.2H390v8.4h1v-3.2c0-0.2,0-0.3-0.1-0.5 c0.2,0.1,0.3,0.1,0.5,0.1h2c1.8,0,2.1,0.3,2.2,2.4c0.1,0.7,0.1,1,0.3,1.2h1.2C396.7,110.5,396.6,110.3,396.5,109.4z M393.3,106.4 h-1.9c-0.2,0-0.3,0-0.5,0.1c0.1-0.2,0.1-0.3,0.1-0.5v-2.2c0-0.3,0-0.3-0.1-0.5c0.2,0.1,0.3,0.1,0.5,0.1h2.2c1.5,0,2.1,0.5,2.1,1.5 C395.7,105.9,395,106.4,393.3,106.4z M396.5,109.4c-0.1-1.4-0.1-1.5-0.4-1.9c-0.2-0.3-0.5-0.6-1-0.7v-0.1c1.1-0.4,1.6-1,1.6-2.1 c0-1.4-1-2.2-2.9-2.2H390v8.4h1v-3.2c0-0.2,0-0.3-0.1-0.5c0.2,0.1,0.3,0.1,0.5,0.1h2c1.8,0,2.1,0.3,2.2,2.4c0.1,0.7,0.1,1,0.3,1.2 h1.2C396.7,110.5,396.6,110.3,396.5,109.4z M393.3,106.4h-1.9c-0.2,0-0.3,0-0.5,0.1c0.1-0.2,0.1-0.3,0.1-0.5v-2.2 c0-0.3,0-0.3-0.1-0.5c0.2,0.1,0.3,0.1,0.5,0.1h2.2c1.5,0,2.1,0.5,2.1,1.5C395.7,105.9,395,106.4,393.3,106.4z M396.5,109.4 c-0.1-1.4-0.1-1.5-0.4-1.9c-0.2-0.3-0.5-0.6-1-0.7v-0.1c1.1-0.4,1.6-1,1.6-2.1c0-1.4-1-2.2-2.9-2.2H390v8.4h1v-3.2 c0-0.2,0-0.3-0.1-0.5c0.2,0.1,0.3,0.1,0.5,0.1h2c1.8,0,2.1,0.3,2.2,2.4c0.1,0.7,0.1,1,0.3,1.2h1.2 C396.7,110.5,396.6,110.3,396.5,109.4z M393.3,106.4h-1.9c-0.2,0-0.3,0-0.5,0.1c0.1-0.2,0.1-0.3,0.1-0.5v-2.2c0-0.3,0-0.3-0.1-0.5 c0.2,0.1,0.3,0.1,0.5,0.1h2.2c1.5,0,2.1,0.5,2.1,1.5C395.7,105.9,395,106.4,393.3,106.4z M396.5,109.4c-0.1-1.4-0.1-1.5-0.4-1.9 c-0.2-0.3-0.5-0.6-1-0.7v-0.1c1.1-0.4,1.6-1,1.6-2.1c0-1.4-1-2.2-2.9-2.2H390v8.4h1v-3.2c0-0.2,0-0.3-0.1-0.5 c0.2,0.1,0.3,0.1,0.5,0.1h2c1.8,0,2.1,0.3,2.2,2.4c0.1,0.7,0.1,1,0.3,1.2h1.2C396.7,110.5,396.6,110.3,396.5,109.4z M393.3,106.4 h-1.9c-0.2,0-0.3,0-0.5,0.1c0.1-0.2,0.1-0.3,0.1-0.5v-2.2c0-0.3,0-0.3-0.1-0.5c0.2,0.1,0.3,0.1,0.5,0.1h2.2c1.5,0,2.1,0.5,2.1,1.5 C395.7,105.9,395,106.4,393.3,106.4z M396.5,109.4c-0.1-1.4-0.1-1.5-0.4-1.9c-0.2-0.3-0.5-0.6-1-0.7v-0.1c1.1-0.4,1.6-1,1.6-2.1 c0-1.4-1-2.2-2.9-2.2H390v8.4h1v-3.2c0-0.2,0-0.3-0.1-0.5c0.2,0.1,0.3,0.1,0.5,0.1h2c1.8,0,2.1,0.3,2.2,2.4c0.1,0.7,0.1,1,0.3,1.2 h1.2C396.7,110.5,396.6,110.3,396.5,109.4z M393.3,106.4h-1.9c-0.2,0-0.3,0-0.5,0.1c0.1-0.2,0.1-0.3,0.1-0.5v-2.2 c0-0.3,0-0.3-0.1-0.5c0.2,0.1,0.3,0.1,0.5,0.1h2.2c1.5,0,2.1,0.5,2.1,1.5C395.7,105.9,395,106.4,393.3,106.4z M396.5,109.4 c-0.1-1.4-0.1-1.5-0.4-1.9c-0.2-0.3-0.5-0.6-1-0.7v-0.1c1.1-0.4,1.6-1,1.6-2.1c0-1.4-1-2.2-2.9-2.2H390v8.4h1v-3.2 c0-0.2,0-0.3-0.1-0.5c0.2,0.1,0.3,0.1,0.5,0.1h2c1.8,0,2.1,0.3,2.2,2.4c0.1,0.7,0.1,1,0.3,1.2h1.2 C396.7,110.5,396.6,110.3,396.5,109.4z M393.3,106.4h-1.9c-0.2,0-0.3,0-0.5,0.1c0.1-0.2,0.1-0.3,0.1-0.5v-2.2c0-0.3,0-0.3-0.1-0.5 c0.2,0.1,0.3,0.1,0.5,0.1h2.2c1.5,0,2.1,0.5,2.1,1.5C395.7,105.9,395,106.4,393.3,106.4z M396.5,109.4c-0.1-1.4-0.1-1.5-0.4-1.9 c-0.2-0.3-0.5-0.6-1-0.7v-0.1c1.1-0.4,1.6-1,1.6-2.1c0-1.4-1-2.2-2.9-2.2H390v8.4h1v-3.2c0-0.2,0-0.3-0.1-0.5 c0.2,0.1,0.3,0.1,0.5,0.1h2c1.8,0,2.1,0.3,2.2,2.4c0.1,0.7,0.1,1,0.3,1.2h1.2C396.7,110.5,396.6,110.3,396.5,109.4z M393.3,106.4 h-1.9c-0.2,0-0.3,0-0.5,0.1c0.1-0.2,0.1-0.3,0.1-0.5v-2.2c0-0.3,0-0.3-0.1-0.5c0.2,0.1,0.3,0.1,0.5,0.1h2.2c1.5,0,2.1,0.5,2.1,1.5 C395.7,105.9,395,106.4,393.3,106.4z M396.5,109.4c-0.1-1.4-0.1-1.5-0.4-1.9c-0.2-0.3-0.5-0.6-1-0.7v-0.1c1.1-0.4,1.6-1,1.6-2.1 c0-1.4-1-2.2-2.9-2.2H390v8.4h1v-3.2c0-0.2,0-0.3-0.1-0.5c0.2,0.1,0.3,0.1,0.5,0.1h2c1.8,0,2.1,0.3,2.2,2.4c0.1,0.7,0.1,1,0.3,1.2 h1.2C396.7,110.5,396.6,110.3,396.5,109.4z M393.3,106.4h-1.9c-0.2,0-0.3,0-0.5,0.1c0.1-0.2,0.1-0.3,0.1-0.5v-2.2 c0-0.3,0-0.3-0.1-0.5c0.2,0.1,0.3,0.1,0.5,0.1h2.2c1.5,0,2.1,0.5,2.1,1.5C395.7,105.9,395,106.4,393.3,106.4z M396.5,109.4 c-0.1-1.4-0.1-1.5-0.4-1.9c-0.2-0.3-0.5-0.6-1-0.7v-0.1c1.1-0.4,1.6-1,1.6-2.1c0-1.4-1-2.2-2.9-2.2H390v8.4h1v-3.2 c0-0.2,0-0.3-0.1-0.5c0.2,0.1,0.3,0.1,0.5,0.1h2c1.8,0,2.1,0.3,2.2,2.4c0.1,0.7,0.1,1,0.3,1.2h1.2 C396.7,110.5,396.6,110.3,396.5,109.4z M393.3,106.4h-1.9c-0.2,0-0.3,0-0.5,0.1c0.1-0.2,0.1-0.3,0.1-0.5v-2.2c0-0.3,0-0.3-0.1-0.5 c0.2,0.1,0.3,0.1,0.5,0.1h2.2c1.5,0,2.1,0.5,2.1,1.5C395.7,105.9,395,106.4,393.3,106.4z M396.5,109.4c-0.1-1.4-0.1-1.5-0.4-1.9 c-0.2-0.3-0.5-0.6-1-0.7v-0.1c1.1-0.4,1.6-1,1.6-2.1c0-1.4-1-2.2-2.9-2.2H390v8.4h1v-3.2c0-0.2,0-0.3-0.1-0.5 c0.2,0.1,0.3,0.1,0.5,0.1h2c1.8,0,2.1,0.3,2.2,2.4c0.1,0.7,0.1,1,0.3,1.2h1.2C396.7,110.5,396.6,110.3,396.5,109.4z M393.3,106.4 h-1.9c-0.2,0-0.3,0-0.5,0.1c0.1-0.2,0.1-0.3,0.1-0.5v-2.2c0-0.3,0-0.3-0.1-0.5c0.2,0.1,0.3,0.1,0.5,0.1h2.2c1.5,0,2.1,0.5,2.1,1.5 C395.7,105.9,395,106.4,393.3,106.4z M396.5,109.4c-0.1-1.4-0.1-1.5-0.4-1.9c-0.2-0.3-0.5-0.6-1-0.7v-0.1c1.1-0.4,1.6-1,1.6-2.1 c0-1.4-1-2.2-2.9-2.2H390v8.4h1v-3.2c0-0.2,0-0.3-0.1-0.5c0.2,0.1,0.3,0.1,0.5,0.1h2c1.8,0,2.1,0.3,2.2,2.4c0.1,0.7,0.1,1,0.3,1.2 h1.2C396.7,110.5,396.6,110.3,396.5,109.4z M393.3,106.4h-1.9c-0.2,0-0.3,0-0.5,0.1c0.1-0.2,0.1-0.3,0.1-0.5v-2.2 c0-0.3,0-0.3-0.1-0.5c0.2,0.1,0.3,0.1,0.5,0.1h2.2c1.5,0,2.1,0.5,2.1,1.5C395.7,105.9,395,106.4,393.3,106.4z M396.5,109.4 c-0.1-1.4-0.1-1.5-0.4-1.9c-0.2-0.3-0.5-0.6-1-0.7v-0.1c1.1-0.4,1.6-1,1.6-2.1c0-1.4-1-2.2-2.9-2.2H390v8.4h1v-3.2 c0-0.2,0-0.3-0.1-0.5c0.2,0.1,0.3,0.1,0.5,0.1h2c1.8,0,2.1,0.3,2.2,2.4c0.1,0.7,0.1,1,0.3,1.2h1.2 C396.7,110.5,396.6,110.3,396.5,109.4z M393.3,106.4h-1.9c-0.2,0-0.3,0-0.5,0.1c0.1-0.2,0.1-0.3,0.1-0.5v-2.2c0-0.3,0-0.3-0.1-0.5 c0.2,0.1,0.3,0.1,0.5,0.1h2.2c1.5,0,2.1,0.5,2.1,1.5C395.7,105.9,395,106.4,393.3,106.4z M396.5,109.4c-0.1-1.4-0.1-1.5-0.4-1.9 c-0.2-0.3-0.5-0.6-1-0.7v-0.1c1.1-0.4,1.6-1,1.6-2.1c0-1.4-1-2.2-2.9-2.2H390v8.4h1v-3.2c0-0.2,0-0.3-0.1-0.5 c0.2,0.1,0.3,0.1,0.5,0.1h2c1.8,0,2.1,0.3,2.2,2.4c0.1,0.7,0.1,1,0.3,1.2h1.2C396.7,110.5,396.6,110.3,396.5,109.4z M393.3,106.4 h-1.9c-0.2,0-0.3,0-0.5,0.1c0.1-0.2,0.1-0.3,0.1-0.5v-2.2c0-0.3,0-0.3-0.1-0.5c0.2,0.1,0.3,0.1,0.5,0.1h2.2c1.5,0,2.1,0.5,2.1,1.5 C395.7,105.9,395,106.4,393.3,106.4z M396.5,109.4c-0.1-1.4-0.1-1.5-0.4-1.9c-0.2-0.3-0.5-0.6-1-0.7v-0.1c1.1-0.4,1.6-1,1.6-2.1 c0-1.4-1-2.2-2.9-2.2H390v8.4h1v-3.2c0-0.2,0-0.3-0.1-0.5c0.2,0.1,0.3,0.1,0.5,0.1h2c1.8,0,2.1,0.3,2.2,2.4c0.1,0.7,0.1,1,0.3,1.2 h1.2C396.7,110.5,396.6,110.3,396.5,109.4z M393.3,106.4h-1.9c-0.2,0-0.3,0-0.5,0.1c0.1-0.2,0.1-0.3,0.1-0.5v-2.2 c0-0.3,0-0.3-0.1-0.5c0.2,0.1,0.3,0.1,0.5,0.1h2.2c1.5,0,2.1,0.5,2.1,1.5C395.7,105.9,395,106.4,393.3,106.4z M393.3,98.9 c-4.4,0-7.8,3.4-7.8,7.7c0,4.3,3.4,7.7,7.7,7.7c4.3,0,7.7-3.5,7.7-7.7C401,102.4,397.5,98.9,393.3,98.9z M393.2,113.5 c-3.8,0-6.8-3.1-6.8-6.8c0-3.8,3-6.8,6.9-6.8c3.7,0,6.7,3.1,6.7,6.8C400.1,110.4,397,113.5,393.2,113.5z M396.1,107.5 c-0.2-0.3-0.5-0.6-1-0.7v-0.1c1.1-0.4,1.6-1,1.6-2.1c0-1.4-1-2.2-2.9-2.2H390v8.4h1v-3.2c0-0.2,0-0.3-0.1-0.5 c0.2,0.1,0.3,0.1,0.5,0.1h2c1.8,0,2.1,0.3,2.2,2.4c0.1,0.7,0.1,1,0.3,1.2h1.2c-0.4-0.3-0.4-0.5-0.5-1.5 C396.4,108,396.4,107.9,396.1,107.5z M393.3,106.4h-1.9c-0.2,0-0.3,0-0.5,0.1c0.1-0.2,0.1-0.3,0.1-0.5v-2.2c0-0.3,0-0.3-0.1-0.5 c0.2,0.1,0.3,0.1,0.5,0.1h2.2c1.5,0,2.1,0.5,2.1,1.5C395.7,105.9,395,106.4,393.3,106.4z M396.5,109.4c-0.1-1.4-0.1-1.5-0.4-1.9 c-0.2-0.3-0.5-0.6-1-0.7v-0.1c1.1-0.4,1.6-1,1.6-2.1c0-1.4-1-2.2-2.9-2.2H390v8.4h1v-3.2c0-0.2,0-0.3-0.1-0.5 c0.2,0.1,0.3,0.1,0.5,0.1h2c1.8,0,2.1,0.3,2.2,2.4c0.1,0.7,0.1,1,0.3,1.2h1.2C396.7,110.5,396.6,110.3,396.5,109.4z M393.3,106.4 h-1.9c-0.2,0-0.3,0-0.5,0.1c0.1-0.2,0.1-0.3,0.1-0.5v-2.2c0-0.3,0-0.3-0.1-0.5c0.2,0.1,0.3,0.1,0.5,0.1h2.2c1.5,0,2.1,0.5,2.1,1.5 C395.7,105.9,395,106.4,393.3,106.4z M396.5,109.4c-0.1-1.4-0.1-1.5-0.4-1.9c-0.2-0.3-0.5-0.6-1-0.7v-0.1c1.1-0.4,1.6-1,1.6-2.1 c0-1.4-1-2.2-2.9-2.2H390v8.4h1v-3.2c0-0.2,0-0.3-0.1-0.5c0.2,0.1,0.3,0.1,0.5,0.1h2c1.8,0,2.1,0.3,2.2,2.4c0.1,0.7,0.1,1,0.3,1.2 h1.2C396.7,110.5,396.6,110.3,396.5,109.4z M393.3,106.4h-1.9c-0.2,0-0.3,0-0.5,0.1c0.1-0.2,0.1-0.3,0.1-0.5v-2.2 c0-0.3,0-0.3-0.1-0.5c0.2,0.1,0.3,0.1,0.5,0.1h2.2c1.5,0,2.1,0.5,2.1,1.5C395.7,105.9,395,106.4,393.3,106.4z M396.5,109.4 c-0.1-1.4-0.1-1.5-0.4-1.9c-0.2-0.3-0.5-0.6-1-0.7v-0.1c1.1-0.4,1.6-1,1.6-2.1c0-1.4-1-2.2-2.9-2.2H390v8.4h1v-3.2 c0-0.2,0-0.3-0.1-0.5c0.2,0.1,0.3,0.1,0.5,0.1h2c1.8,0,2.1,0.3,2.2,2.4c0.1,0.7,0.1,1,0.3,1.2h1.2 C396.7,110.5,396.6,110.3,396.5,109.4z M393.3,106.4h-1.9c-0.2,0-0.3,0-0.5,0.1c0.1-0.2,0.1-0.3,0.1-0.5v-2.2c0-0.3,0-0.3-0.1-0.5 c0.2,0.1,0.3,0.1,0.5,0.1h2.2c1.5,0,2.1,0.5,2.1,1.5C395.7,105.9,395,106.4,393.3,106.4z M396.5,109.4c-0.1-1.4-0.1-1.5-0.4-1.9 c-0.2-0.3-0.5-0.6-1-0.7v-0.1c1.1-0.4,1.6-1,1.6-2.1c0-1.4-1-2.2-2.9-2.2H390v8.4h1v-3.2c0-0.2,0-0.3-0.1-0.5 c0.2,0.1,0.3,0.1,0.5,0.1h2c1.8,0,2.1,0.3,2.2,2.4c0.1,0.7,0.1,1,0.3,1.2h1.2C396.7,110.5,396.6,110.3,396.5,109.4z M393.3,106.4 h-1.9c-0.2,0-0.3,0-0.5,0.1c0.1-0.2,0.1-0.3,0.1-0.5v-2.2c0-0.3,0-0.3-0.1-0.5c0.2,0.1,0.3,0.1,0.5,0.1h2.2c1.5,0,2.1,0.5,2.1,1.5 C395.7,105.9,395,106.4,393.3,106.4z M396.5,109.4c-0.1-1.4-0.1-1.5-0.4-1.9c-0.2-0.3-0.5-0.6-1-0.7v-0.1c1.1-0.4,1.6-1,1.6-2.1 c0-1.4-1-2.2-2.9-2.2H390v8.4h1v-3.2c0-0.2,0-0.3-0.1-0.5c0.2,0.1,0.3,0.1,0.5,0.1h2c1.8,0,2.1,0.3,2.2,2.4c0.1,0.7,0.1,1,0.3,1.2 h1.2C396.7,110.5,396.6,110.3,396.5,109.4z M393.3,106.4h-1.9c-0.2,0-0.3,0-0.5,0.1c0.1-0.2,0.1-0.3,0.1-0.5v-2.2 c0-0.3,0-0.3-0.1-0.5c0.2,0.1,0.3,0.1,0.5,0.1h2.2c1.5,0,2.1,0.5,2.1,1.5C395.7,105.9,395,106.4,393.3,106.4z M396.5,109.4 c-0.1-1.4-0.1-1.5-0.4-1.9c-0.2-0.3-0.5-0.6-1-0.7v-0.1c1.1-0.4,1.6-1,1.6-2.1c0-1.4-1-2.2-2.9-2.2H390v8.4h1v-3.2 c0-0.2,0-0.3-0.1-0.5c0.2,0.1,0.3,0.1,0.5,0.1h2c1.8,0,2.1,0.3,2.2,2.4c0.1,0.7,0.1,1,0.3,1.2h1.2 C396.7,110.5,396.6,110.3,396.5,109.4z M393.3,106.4h-1.9c-0.2,0-0.3,0-0.5,0.1c0.1-0.2,0.1-0.3,0.1-0.5v-2.2c0-0.3,0-0.3-0.1-0.5 c0.2,0.1,0.3,0.1,0.5,0.1h2.2c1.5,0,2.1,0.5,2.1,1.5C395.7,105.9,395,106.4,393.3,106.4z M396.5,109.4c-0.1-1.4-0.1-1.5-0.4-1.9 c-0.2-0.3-0.5-0.6-1-0.7v-0.1c1.1-0.4,1.6-1,1.6-2.1c0-1.4-1-2.2-2.9-2.2H390v8.4h1v-3.2c0-0.2,0-0.3-0.1-0.5 c0.2,0.1,0.3,0.1,0.5,0.1h2c1.8,0,2.1,0.3,2.2,2.4c0.1,0.7,0.1,1,0.3,1.2h1.2C396.7,110.5,396.6,110.3,396.5,109.4z M393.3,106.4 h-1.9c-0.2,0-0.3,0-0.5,0.1c0.1-0.2,0.1-0.3,0.1-0.5v-2.2c0-0.3,0-0.3-0.1-0.5c0.2,0.1,0.3,0.1,0.5,0.1h2.2c1.5,0,2.1,0.5,2.1,1.5 C395.7,105.9,395,106.4,393.3,106.4z M396.5,109.4c-0.1-1.4-0.1-1.5-0.4-1.9c-0.2-0.3-0.5-0.6-1-0.7v-0.1c1.1-0.4,1.6-1,1.6-2.1 c0-1.4-1-2.2-2.9-2.2H390v8.4h1v-3.2c0-0.2,0-0.3-0.1-0.5c0.2,0.1,0.3,0.1,0.5,0.1h2c1.8,0,2.1,0.3,2.2,2.4c0.1,0.7,0.1,1,0.3,1.2 h1.2C396.7,110.5,396.6,110.3,396.5,109.4z M393.3,106.4h-1.9c-0.2,0-0.3,0-0.5,0.1c0.1-0.2,0.1-0.3,0.1-0.5v-2.2 c0-0.3,0-0.3-0.1-0.5c0.2,0.1,0.3,0.1,0.5,0.1h2.2c1.5,0,2.1,0.5,2.1,1.5C395.7,105.9,395,106.4,393.3,106.4z M396.5,109.4 c-0.1-1.4-0.1-1.5-0.4-1.9c-0.2-0.3-0.5-0.6-1-0.7v-0.1c1.1-0.4,1.6-1,1.6-2.1c0-1.4-1-2.2-2.9-2.2H390v8.4h1v-3.2 c0-0.2,0-0.3-0.1-0.5c0.2,0.1,0.3,0.1,0.5,0.1h2c1.8,0,2.1,0.3,2.2,2.4c0.1,0.7,0.1,1,0.3,1.2h1.2 C396.7,110.5,396.6,110.3,396.5,109.4z M393.3,106.4h-1.9c-0.2,0-0.3,0-0.5,0.1c0.1-0.2,0.1-0.3,0.1-0.5v-2.2c0-0.3,0-0.3-0.1-0.5 c0.2,0.1,0.3,0.1,0.5,0.1h2.2c1.5,0,2.1,0.5,2.1,1.5C395.7,105.9,395,106.4,393.3,106.4z M396.5,109.4c-0.1-1.4-0.1-1.5-0.4-1.9 c-0.2-0.3-0.5-0.6-1-0.7v-0.1c1.1-0.4,1.6-1,1.6-2.1c0-1.4-1-2.2-2.9-2.2H390v8.4h1v-3.2c0-0.2,0-0.3-0.1-0.5 c0.2,0.1,0.3,0.1,0.5,0.1h2c1.8,0,2.1,0.3,2.2,2.4c0.1,0.7,0.1,1,0.3,1.2h1.2C396.7,110.5,396.6,110.3,396.5,109.4z M393.3,106.4 h-1.9c-0.2,0-0.3,0-0.5,0.1c0.1-0.2,0.1-0.3,0.1-0.5v-2.2c0-0.3,0-0.3-0.1-0.5c0.2,0.1,0.3,0.1,0.5,0.1h2.2c1.5,0,2.1,0.5,2.1,1.5 C395.7,105.9,395,106.4,393.3,106.4z M396.5,109.4c-0.1-1.4-0.1-1.5-0.4-1.9c-0.2-0.3-0.5-0.6-1-0.7v-0.1c1.1-0.4,1.6-1,1.6-2.1 c0-1.4-1-2.2-2.9-2.2H390v8.4h1v-3.2c0-0.2,0-0.3-0.1-0.5c0.2,0.1,0.3,0.1,0.5,0.1h2c1.8,0,2.1,0.3,2.2,2.4c0.1,0.7,0.1,1,0.3,1.2 h1.2C396.7,110.5,396.6,110.3,396.5,109.4z M393.3,106.4h-1.9c-0.2,0-0.3,0-0.5,0.1c0.1-0.2,0.1-0.3,0.1-0.5v-2.2 c0-0.3,0-0.3-0.1-0.5c0.2,0.1,0.3,0.1,0.5,0.1h2.2c1.5,0,2.1,0.5,2.1,1.5C395.7,105.9,395,106.4,393.3,106.4z M396.5,109.4 c-0.1-1.4-0.1-1.5-0.4-1.9c-0.2-0.3-0.5-0.6-1-0.7v-0.1c1.1-0.4,1.6-1,1.6-2.1c0-1.4-1-2.2-2.9-2.2H390v8.4h1v-3.2 c0-0.2,0-0.3-0.1-0.5c0.2,0.1,0.3,0.1,0.5,0.1h2c1.8,0,2.1,0.3,2.2,2.4c0.1,0.7,0.1,1,0.3,1.2h1.2 C396.7,110.5,396.6,110.3,396.5,109.4z M393.3,106.4h-1.9c-0.2,0-0.3,0-0.5,0.1c0.1-0.2,0.1-0.3,0.1-0.5v-2.2c0-0.3,0-0.3-0.1-0.5 c0.2,0.1,0.3,0.1,0.5,0.1h2.2c1.5,0,2.1,0.5,2.1,1.5C395.7,105.9,395,106.4,393.3,106.4z"></path> </g> </svg> 