<?xml version="1.0" encoding="UTF-8"?> <svg xmlns="http://www.w3.org/2000/svg" xmlns:xlink="http://www.w3.org/1999/xlink" version="1.1" id="Layer_1" x="0px" y="0px" viewBox="0 0 400.4 204.4" style="enable-background:new 0 0 400.4 204.4;" xml:space="preserve"> <style type="text/css"> .st0{fill:#FFFFFF;} </style> <path id="Path_163" class="st0" d="M277.1,89.9L138.5,0L0,89.9L277.1,89.9z"></path> <path id="Path_164" class="st0" d="M0,97.1h35.1v37.1h33V97.1h35.1v105.1H68.2v-37.7h-33v37.7H0V97.1z"></path> <path id="Path_165" class="st0" d="M107.8,149.9v-0.3c0-31.4,24.8-54.8,57.9-54.8c16.4-0.3,32.4,5.3,45,15.9l-19.7,23.7 c-6.5-5.5-14.8-8.4-23.3-8.2c-13.7,0-22.6,9.5-22.6,23.8v0.3c-0.5,12.8,9.5,23.6,22.4,24.1c0.6,0,1.1,0,1.7,0 c4.2,0.2,8.4-0.8,12-2.9v-7.1h-18V140h50.9v48.6c-13.6,10.5-30.3,16-47.4,15.8C134.1,204.4,107.8,182.5,107.8,149.9"></path> <path id="Path_166" class="st0" d="M361.7,97.1l-20.4,59.1l-20.4-59.1H214.4v29.5h27.9v75.7h35.1v-75.7h16.2l30.6,75.7h33.6 l42.6-105.1L361.7,97.1z"></path> <path id="Path_167" class="st0" d="M375.3,198.3c0.6,0,1-0.3,1-0.8s-0.4-0.8-1-0.8h-1.2v1.6H375.3z M373.1,195.8h2.3 c1.1,0,1.9,0.5,1.9,1.6c0,0.7-0.5,1.4-1.2,1.5l1.3,1.9h-1.2l-1.2-1.7h-1v1.7h-1L373.1,195.8L373.1,195.8z M379.2,198.4L379.2,198.4 c0.1-2.3-1.6-4.3-3.9-4.4c-2.3-0.1-4.3,1.6-4.4,3.9c0,0.2,0,0.3,0,0.5v0c0,2.3,1.8,4.2,4.1,4.2c0,0,0.1,0,0.1,0 C377.4,202.6,379.2,200.8,379.2,198.4C379.2,198.4,379.2,198.4,379.2,198.4L379.2,198.4z M370.1,198.4L370.1,198.4 c0-2.8,2.2-5,4.9-5c2.7,0,5,2.2,5,4.9v0c0,2.7-2.2,5-4.9,5C372.3,203.4,370.1,201.2,370.1,198.4z"></path> </svg> 