<?xml version="1.0" encoding="UTF-8"?> <svg xmlns="http://www.w3.org/2000/svg" xmlns:xlink="http://www.w3.org/1999/xlink" version="1.1" x="0px" y="0px" viewBox="0 0 405 342.3" style="enable-background:new 0 0 405 342.3;" xml:space="preserve"> <style type="text/css"> .st0{display:none;} .st1{display:inline;} .st2{fill:#3252C1;} .st3{fill:#F1B000;} .st4{fill:#FF3F00;} .st5{fill:#FFFFFF;} </style> <g id="Background" class="st0"> <rect class="st1" width="405" height="342.3"></rect> </g> <g id="Logo"> <g> <g> <g> <path class="st2" d="M298.3,82c-1.5,10-6.2,42.6-30,74.6c-24.3,33-56.2,48.9-65.8,53.9c-9.6-4.9-41.5-20.9-65.8-53.9 c-23.8-32-28.5-64.6-30-74.6l14.5-7.8V63.4l14.4-7.8V44.9c19.9-9.5,41.7-15.7,66.9-19c25.2,3.3,47.1,9.6,66.9,19v10.8l14.4,7.8 v10.8L298.3,82z"></path> <path class="st3" d="M305.4,61.7V49.9l-15.7-8.5V29.2l-8-3.8c-22.9-10.9-48.2-18.2-77.3-22.1L202.5,3l-1.9,0.3 c-29.2,3.9-54.4,11.2-77.3,22.1l-8,3.8v12.3l-15.7,8.5v11.7l-17,9.1l1.3,9.7c4.5,32.7,16.4,62.3,35.4,87.9 c19.2,25.9,45.1,47.2,76.9,63.1l6.3,3.2l6.3-3.2c31.9-15.9,57.8-37.2,76.9-63.1c19-25.7,30.9-55.3,35.4-87.9l1.3-9.7L305.4,61.7 z M274.3,160.1c-26.5,36-61.3,53.5-71.9,58.8c-10.5-5.4-45.4-22.8-71.9-58.8c-26-35-31.2-70.6-32.8-81.5l15.8-8.5V58.4l15.7-8.5 V38.1c21.7-10.3,45.6-17.2,73.1-20.8c27.5,3.7,51.4,10.5,73.1,20.8v11.8l15.7,8.5v11.8l15.8,8.5 C305.5,89.5,300.4,125.1,274.3,160.1z"></path> <path class="st4" d="M291.3,70.1V58.4l-15.7-8.5V38.1c-21.7-10.3-45.6-17.2-73.1-20.8c-27.5,3.7-51.4,10.5-73.1,20.8v11.8 l-15.7,8.5v11.8l-15.8,8.5c1.6,10.9,6.7,46.5,32.8,81.5c26.5,36,61.3,53.5,71.9,58.8c10.5-5.4,45.4-22.8,71.9-58.8 c26-35,31.2-70.6,32.8-81.5L291.3,70.1z M268.3,156.6c-24.3,32.9-56.1,48.9-65.8,53.9c-9.6-4.9-41.5-20.9-65.8-53.9 c-23.8-32-28.5-64.6-30-74.6l14.5-7.8V63.4l14.4-7.8V44.9c19.9-9.5,41.7-15.7,66.9-19.1c25.2,3.3,47.1,9.6,66.9,19.1v10.8 l14.4,7.8v10.8l14.5,7.8C296.8,91.9,292.1,124.6,268.3,156.6z"></path> <path class="st3" d="M195.1,42.8v151.6c-10.5-11.2-20.1-25.2-26.9-39.5l-13.9,8.3c-18.1-20-30.4-44.6-38.3-77.1 c4-4.7,8.1-8.8,12.3-12.5c6,27.1,14.8,49.9,28.2,68.6l4.4-2.5l0.7-0.4c-8.9-24.2-13.9-49.6-16.1-78.7c5.4-3.4,10.7-6.2,15.7-8.4 c1.9,32.1,8,64,18.1,89.6l0.7-0.4l-0.1-15.5L179,45.6C184.5,44.2,189.8,43.3,195.1,42.8z"></path> <path class="st3" d="M268.7,95c5.7-6.3,6.9-10.9,6.9-16.4c0-7.8-6.5-14.8-15.9-20.8c-5.7-3.6-14.4-8-27.1-11.5 c-7.3-2-14.9-3.2-22.7-3.5v151.6c31.9-16.4,69.7-61.3,69.9-84.2C279.9,103.1,276.2,98.6,268.7,95z M225.6,60.9 c7.8,0,33.2,8,33.2,18.2c0,3.7-3.2,8.9-13.3,14.2l-2.3,1.3c-0.3,0.1-0.5,0.3-0.8,0.4l-16.8,9V60.9z M263.6,112.9 c0,8-8.2,20.4-18.3,32c-4.5,5.2-11.8,13.1-19.8,19.2v-43.5c0,0,16.5-9.3,25-14.1c2.7-1.5,4.6-2.6,4.9-2.8 C264,105.9,263.6,112.3,263.6,112.9z"></path> <g> <path class="st4" d="M263.6,112.9c0,8-8.2,20.4-18.3,32c-4.5,5.2-11.8,13.1-19.8,19.2v-7c6.7-5.1,12.8-11.7,16.6-16.1 c8.5-9.8,15.3-20.1,15.3-26.8c0-0.6,0.4-5.9-6.9-7.7c2.7-1.5,4.6-2.6,4.9-2.8C264,105.9,263.6,112.3,263.6,112.9z"></path> <path class="st4" d="M258.8,79.1c0,3.7-3.2,8.9-13.3,14.2l-2.3,1.3c7.9-4.3,10.4-8.5,10.4-11.5c0-8.6-21.4-15.3-28-15.3v-6.7 C233.4,60.9,258.8,68.9,258.8,79.1z"></path> <path class="st4" d="M179.8,141.4l-0.7,0.4C169,116.1,162.9,84.2,161,52.1l6.1,9.1c1.4,23,5.6,45.9,12.5,64.6L179.8,141.4z"></path> <polygon class="st4" points="209.9,42.8 209.9,194.3 208.3,193.2 205.9,52.1 "></polygon> <polygon class="st4" points="199.1,52.1 196.7,193.2 195.1,194.3 195.1,42.8 "></polygon> <path class="st4" d="M160.8,139.6l-4.4,2.5c-13.4-18.8-22.1-41.6-28.2-68.6l6.9,3.6C140.6,101.8,148.6,122.5,160.8,139.6z"></path> </g> </g> <g> <path d="M322.7,70.4l-16.8-9V49.9c0-0.2-0.1-0.4-0.3-0.5l-15.4-8.3v-12c0-0.2-0.1-0.4-0.3-0.5l-8-3.8 c-23.1-11-48.4-18.2-77.5-22.1l-1.9-0.3c0,0-0.1,0-0.1,0l-1.9,0.3c-29,3.9-54.4,11.1-77.5,22.1l-8,3.8c-0.2,0.1-0.3,0.3-0.3,0.5 v12l-15.4,8.3c-0.2,0.1-0.3,0.3-0.3,0.5v11.4l-16.8,9c-0.2,0.1-0.3,0.3-0.3,0.5l1.3,9.7c4.5,32.8,16.5,62.4,35.5,88.2 c19.2,26,45.2,47.3,77.1,63.3l6.3,3.2c0.1,0,0.2,0.1,0.2,0.1c0.1,0,0.2,0,0.2-0.1l6.3-3.2c32-16,57.9-37.3,77.1-63.3 c19-25.7,31-55.4,35.5-88.2l1.3-9.7C323,70.7,322.9,70.5,322.7,70.4z M320.6,80.5c-4.5,32.6-16.4,62.1-35.3,87.7 c-19.1,25.9-44.9,47-76.7,62.9l-6.1,3l-6.1-3c-31.8-15.9-57.6-37.1-76.7-62.9c-18.9-25.6-30.8-55.1-35.3-87.7l-1.3-9.4l16.7-9 c0.2-0.1,0.3-0.3,0.3-0.5V50.3l15.4-8.3c0.2-0.1,0.3-0.3,0.3-0.5V29.5l7.7-3.7c23-11,48.2-18.2,77.2-22l1.8-0.2l1.8,0.2 c28.9,3.8,54.2,11,77.2,22l7.7,3.7v11.9c0,0.2,0.1,0.4,0.3,0.5l15.4,8.3v11.4c0,0.2,0.1,0.4,0.3,0.5l16.7,9L320.6,80.5z"></path> <path d="M291.8,58.4c0-0.1,0-0.2-0.1-0.3c-0.1-0.1-0.1-0.2-0.2-0.2l-2-1.1c0,0,0,0,0,0l-13.4-7.2V38.1c0,0,0,0,0,0 c0,0,0-0.1,0-0.1c0,0,0,0,0,0c0-0.1-0.1-0.2-0.1-0.2c0,0-0.1-0.1-0.2-0.1c-21.7-10.4-45.7-17.2-73.2-20.8c0,0-0.1,0-0.1,0 c-27.6,3.7-51.5,10.5-73.3,20.9c0,0,0,0-0.1,0c0,0,0,0,0,0c0,0,0,0,0,0c0,0,0,0,0,0c0,0,0,0,0,0c0,0,0,0,0,0c0,0,0,0,0,0 c-0.1,0.1-0.1,0.2-0.1,0.3v11.5l-15.4,8.3c-0.1,0-0.2,0.1-0.2,0.2c0,0,0,0,0,0c0,0,0,0,0,0c0,0,0,0,0,0c0,0,0,0,0,0.1 c0,0,0,0,0,0c0,0,0,0,0,0c0,0,0,0,0,0c0,0,0,0.1,0,0.1v11.5l-15.5,8.3c-0.1,0-0.1,0.1-0.2,0.1c0,0,0,0,0,0c0,0,0,0,0,0 c0,0,0,0.1-0.1,0.1c0,0.1,0,0.2,0,0.3l0,0.1c0.8,5.6,2.5,17.2,7.3,31.8c5.9,18.1,14.5,34.9,25.6,49.8 c11.2,15.2,25.1,28.8,41.4,40.6c13.2,9.5,24.6,15.4,30.1,18.2l0.5,0.3c0.1,0,0.2,0.1,0.2,0.1c0.1,0,0.1,0,0.2,0c0,0,0,0,0,0 c0,0,0,0,0,0l0.5-0.3c5.5-2.8,16.9-8.6,30.1-18.2c16.3-11.8,30.3-25.4,41.4-40.6c11.1-14.9,19.7-31.6,25.6-49.7 c4.8-14.6,6.5-26.3,7.3-31.9l0-0.2c0-0.2-0.1-0.4-0.3-0.5l-15.6-8.3V58.4z M305.9,78.5l-7.6,2.9l-0.9-0.5l7.6-2.9L305.9,78.5z M202.7,209.7l-0.2,0.1l-0.2-0.1c-5-2.5-15.4-7.9-27.4-16.5c-14.9-10.7-27.6-23.1-37.7-36.9c-10.1-13.5-17.9-28.8-23.3-45.2 c-3.8-11.6-5.4-21.2-6.3-26.8c0,0,0-0.1,0-0.1c-0.1-0.7-0.2-1.3-0.3-1.8l14.2-7.6c0,0,0.1-0.1,0.1-0.1c0,0,0,0,0,0c0,0,0,0,0,0 c0,0,0,0,0,0c0,0,0,0,0,0c0,0,0,0,0,0c0,0,0,0,0,0c0,0,0,0,0,0c0,0,0,0,0,0c0,0,0,0,0-0.1c0,0,0,0,0,0c0,0,0,0,0,0c0,0,0,0,0,0 c0,0,0,0,0,0c0,0,0,0,0,0V63.7l14.1-7.6c0.1,0,0.1-0.1,0.2-0.1c0,0,0-0.1,0.1-0.1c0,0,0,0,0,0c0,0,0,0,0-0.1c0,0,0,0,0,0 c0,0,0,0,0,0c0,0,0,0,0,0c0,0,0,0,0-0.1c0,0,0,0,0,0c0,0,0,0,0,0c0,0,0,0,0,0V45.2c19.7-9.4,41.4-15.5,66.4-18.8 c25,3.3,46.7,9.5,66.4,18.8v10.4c0,0.1,0,0.3,0.1,0.4c0.1,0.1,0.1,0.1,0.2,0.1l14,7.6v10.4c0,0.1,0,0.2,0.1,0.3 c0.1,0.1,0.2,0.2,0.3,0.2l14.1,7.6c-0.8,5.2-2.3,15.6-6.6,28.7c-5.4,16.5-13.2,31.7-23.3,45.2c-10.2,13.8-22.9,26.2-37.7,36.9 C218.1,201.9,207.7,207.2,202.7,209.7z M120.7,63.7V65l-5.9-4c-0.2-0.1-0.4-0.1-0.5,0v-1.6L120.7,63.7z M114.2,61.9l5.9,4 c0.1,0.1,0.2,0.1,0.3,0.1c0.1,0,0.2,0,0.3-0.1v7.4l-6.5-3.5V61.9z M198.2,24.7c0.3,0,0.5-0.2,0.5-0.5v-5.3 c0-0.2-0.2-0.5-0.4-0.5c0.5-0.1,1-0.1,1.4-0.2c0,0,0,0,0,0.1v6.6c0,0.3,0.2,0.5,0.5,0.5s0.5-0.2,0.5-0.5v-6.6c0-0.1,0-0.1,0-0.2 c0.4-0.1,0.8-0.1,1.3-0.2v7.5c-24.9,3.3-46.6,9.5-66.3,18.9l-5.4-6c20.2-9.6,42.4-16.1,67.7-19.8c-0.2,0.1-0.3,0.3-0.3,0.5v5.3 C197.6,24.5,197.9,24.7,198.2,24.7z M275.1,49.6l-5.1,4.8v-9.4l5.1-5.6V49.6z M269.3,44.2c-0.3-0.2-0.7-0.3-1-0.5l5.1-5.5 c0.1-0.1,0.2-0.4,0.1-0.5c0.4,0.2,0.9,0.4,1.3,0.6L269.3,44.2z M272.5,37.5l-5.3,5.8c-0.4-0.2-0.7-0.3-1.1-0.5l5.1-5.6 c0.1-0.1,0.2-0.3,0.1-0.4c0.4,0.2,0.9,0.4,1.3,0.6C272.7,37.4,272.6,37.4,272.5,37.5z M270.5,36.5l-5.4,5.9 c-0.4-0.2-0.8-0.3-1.2-0.5l5.2-5.7c0.1-0.1,0.1-0.2,0.1-0.4c0.4,0.2,0.9,0.4,1.3,0.6C270.6,36.4,270.5,36.4,270.5,36.5z M268.4,35.4l-5.4,5.9c0,0,0,0,0,0c-18-7.8-37.7-13-60-16v-7.5C227.3,21.2,248.8,26.9,268.4,35.4 C268.4,35.4,268.4,35.4,268.4,35.4z M135,45.1V46l-5.1-5.6v-0.9L135,45.1z M129.9,41.9l5.1,5.6v6.9l-5.1-4.8V41.9z M288.2,57.3 l-6.3,4.3c-0.1,0-0.1,0.1-0.1,0.1l-0.9-0.5l6.5-4.4L288.2,57.3z M290.3,58.4l-6.5,4.4l-1-0.5l6.5-4.4L290.3,58.4z M290.8,69.8 l-6.5,3.5v-9.6l6.5-4.3V69.8z M296.2,80.3l-1-0.6l5.4-2c0.3-0.1,0.4-0.4,0.3-0.7c-0.1-0.3-0.4-0.4-0.7-0.3l-6.1,2.3 c0,0-0.1,0-0.1,0.1l-1.1-0.6l4.8-1.8c0.3-0.1,0.4-0.4,0.3-0.7c-0.1-0.3-0.4-0.4-0.7-0.3l-5.4,2.1c-0.1,0-0.1,0.1-0.2,0.1 l-1.1-0.6l3.9-1.5c0.3-0.1,0.4-0.4,0.3-0.7c-0.1-0.3-0.4-0.4-0.7-0.3l-4.5,1.7c-0.1,0-0.1,0.1-0.2,0.1l-1.1-0.6l3.4-1.3 c0.3-0.1,0.4-0.4,0.3-0.7c-0.1-0.3-0.4-0.4-0.7-0.3l-3.9,1.5c-0.1,0-0.2,0.1-0.2,0.2l-2.2-1.2l6.4-3.5l12.5,6.7L296.2,80.3z M286.3,56.3l-6.2,4.2c-0.1,0.1-0.2,0.1-0.2,0.2l-1.1-0.6l5.5-3.9c0.2-0.2,0.3-0.5,0.1-0.7c-0.2-0.2-0.5-0.3-0.7-0.1l-5.6,4 c-0.1,0.1-0.2,0.2-0.2,0.3l-1.1-0.6l4.5-3.2c0.2-0.2,0.3-0.5,0.1-0.7c-0.2-0.2-0.5-0.3-0.7-0.1l-4.7,3.4c-0.1,0-0.1,0.1-0.1,0.1 l-1-0.6l3.7-2.6c0.2-0.2,0.3-0.5,0.1-0.7c-0.2-0.2-0.5-0.3-0.7-0.1l-4,2.9c0,0,0,0-0.1,0.1l-3.5-1.9l5.4-5L286.3,56.3z M129.3,50.5l5.4,5l-13.4,7.3l-6.5-4.4L129.3,50.5z M113.7,70.7l6.4,3.5l-13.4,7.2l-7.6-2.9L113.7,70.7z M172.3,200.1 c-16.2-11.7-30.1-25.3-41.2-40.4c-11-14.8-19.6-31.4-25.4-49.5c-4.5-13.9-6.3-25.1-7.1-30.9l7.7,2.9c0,0.3,0.1,0.7,0.2,1L100,81 c-0.3-0.1-0.6,0-0.7,0.3c-0.1,0.3,0,0.6,0.3,0.7l7,2.6c0.9,5.7,2.5,15.2,6.3,26.7c5.4,16.6,13.3,31.9,23.4,45.5 c10.2,13.9,23,26.4,38,37.2c12.1,8.7,22.6,14.1,27.6,16.6l0.1,0.1v7.4C196.4,215.2,185.2,209.5,172.3,200.1z M299.3,110.4 c-5.9,18-14.4,34.6-25.4,49.4c-11.1,15.1-25,28.6-41.2,40.3c-12.9,9.3-24.2,15.1-29.7,17.9v-7.4l0.1-0.1 c0.3-0.1,0.6-0.3,0.9-0.4v5c0,0.3,0.2,0.5,0.5,0.5c0.3,0,0.5-0.2,0.5-0.5v-5.5c0,0,0,0,0,0c5.5-2.8,14.9-7.9,25.7-15.6 c15-10.8,27.7-23.3,38-37.2c10.2-13.6,18-28.9,23.4-45.5c4.3-13.2,5.9-23.8,6.6-29l7.7-2.9C305.6,85.2,303.9,96.4,299.3,110.4z"></path> <path d="M225.3,104.4c0.1,0,0.2,0.1,0.3,0.1c0.1,0,0.2,0,0.2-0.1l16.8-9c0.1,0,0.1-0.1,0.2-0.1c0,0,0,0,0,0 c0.1,0,0.1-0.1,0.2-0.1c0.1-0.1,0.3-0.1,0.4-0.2l2.3-1.2c4.7-2.5,8.2-5.1,10.5-7.8c2-2.3,3-4.7,3-6.8c0-2.5-1.4-5-4.3-7.5 c-2.4-2.1-5.6-4-9.7-5.8c-4.4-2-8.5-3.2-11.1-3.9c-2.1-0.5-4.1-1-5.8-1.2c0,0,0,0-0.1,0c-1.1-0.1-2-0.2-2.8-0.2 c-0.3,0-0.5,0.2-0.5,0.5v43C225,104.1,225.1,104.3,225.3,104.4z M229.6,61.9l-3.5,4.8v-1.5l2.5-3.4 C228.9,61.7,229.2,61.8,229.6,61.9z M227,67.2l3.6-5c0,0,0,0,0,0c0.4,0.1,0.9,0.2,1.4,0.3l-3.6,5 C227.9,67.3,227.5,67.2,227,67.2z M226.1,68.1c4.1,0.2,11.1,2.3,15.8,4.4c3.3,1.5,6.1,3.1,8,4.8c2.2,1.9,3.3,3.8,3.3,5.6 c0,1.5-0.7,3.2-2.1,4.9c-1.7,2.1-4.4,4.2-8,6.1c0,0,0,0,0,0c0,0,0,0,0,0c-0.2,0.1-0.5,0.3-0.7,0.4c0,0,0,0,0,0c0,0,0,0,0,0 c0,0,0,0,0,0l-16.1,8.6V68.1z M234.2,62.9l-2.7,3.8c-0.2,0.2-0.1,0.6,0.1,0.7c0.1,0.1,0.2,0.1,0.3,0.1c0.2,0,0.3-0.1,0.4-0.2 l2.9-4c0,0,0.1-0.1,0.1-0.2c0.5,0.1,0.9,0.3,1.4,0.4l-1.8,2.5c-0.2,0.2-0.1,0.6,0.1,0.7c0.1,0.1,0.2,0.1,0.3,0.1 c0.2,0,0.3-0.1,0.4-0.2l2-2.8c2.4,0.8,4.9,1.7,7.2,2.7c3.9,1.8,7.2,3.7,9.5,5.7c2.6,2.3,3.9,4.5,3.9,6.7c0,1.9-0.9,4-2.7,6.1 c-1.1,1.3-2.5,2.6-4.2,3.8c0.1-0.1,0.3-0.3,0.4-0.4c1.6-1.9,2.4-3.8,2.4-5.6c0-2.1-1.2-4.3-3.6-6.4c-2-1.7-4.8-3.4-8.2-5 c-3.7-1.7-7.2-2.7-9.4-3.3c-1.2-0.3-2.3-0.6-3.3-0.7l3.6-4.9C233.5,62.7,233.8,62.8,234.2,62.9z M227.4,61.5l-1.3,1.8v-1.9 C226.5,61.4,226.9,61.5,227.4,61.5z"></path> <path d="M258.7,127.8c3.6-6,5.4-11,5.4-14.9c0,0,0,0,0,0c0,0,0,0,0-0.1c0-1.6-0.3-3.1-1-4.4c-0.6-1.1-1.5-2.1-2.6-3 c-1.3-1-3-1.8-5-2.3c-0.1,0-0.3,0-0.4,0.1c-0.3,0.2-2.6,1.5-4.8,2.8c-8.4,4.8-24.8,14-25,14.1c-0.2,0.1-0.3,0.3-0.3,0.5v43.5 c0,0.2,0.1,0.4,0.3,0.5c0.1,0,0.2,0.1,0.2,0.1c0.1,0,0.2,0,0.3-0.1c0.6-0.5,1.3-1,1.9-1.5c0.1,0,0.2-0.1,0.3-0.1 c0.1-0.1,0.1-0.1,0.1-0.2c7-5.7,13.3-12.5,17.6-17.4C251.2,139,255.6,133.1,258.7,127.8z M250.6,107.1c2.7,0.7,4.5,2,5.5,3.9 c0.5,1,0.8,2,0.7,3.2c0,0,0,0.1,0,0.1c0,0,0,0,0,0c0,3-1.5,7.1-4.4,12c-2.6,4.4-6.2,9.2-10.8,14.5c-3.8,4.3-9.4,10.4-15.6,15.3 V121C228.2,119.8,242.8,111.6,250.6,107.1z M229.4,160.3l-3.1-3.1c0,0,0,0,0,0c0.4-0.3,0.8-0.6,1.2-1l3,3.1 C230.2,159.6,229.8,160,229.4,160.3z M227.7,161.8l-1.6-1.6v-1.8l2.5,2.6C228.3,161.3,228,161.5,227.7,161.8z M226.1,161.7 l0.8,0.8c-0.3,0.2-0.5,0.4-0.8,0.6V161.7z M234.9,155.3l-1.5-1.5c-0.2-0.2-0.5-0.2-0.7,0c-0.2,0.2-0.2,0.5,0,0.7l1.5,1.5 c-0.3,0.3-0.6,0.6-1,0.9l-2.2-2.3c-0.2-0.2-0.5-0.2-0.7,0c-0.2,0.2-0.2,0.5,0,0.7l2.2,2.3c-0.3,0.3-0.7,0.6-1,0.9l-3-3.1 c5.6-4.7,10.7-10.2,14.2-14.2c4.6-5.3,8.2-10.2,10.9-14.6c3-5.1,4.5-9.3,4.6-12.5c0,0,0,0,0-0.1c0-1.3-0.3-2.6-0.9-3.7 c-1-1.9-2.7-3.2-5.2-4.1c1.9-1.1,3.1-1.8,3.6-2.1c3.2,0.9,5.5,2.4,6.7,4.6c0.6,1.2,0.9,2.5,0.9,3.9c0,0,0,0.1,0,0.1 c0,3.7-1.8,8.5-5.3,14.4c-3.1,5.2-7.4,11-12.9,17.3C242.3,147.7,238.8,151.5,234.9,155.3z"></path> <path d="M257.1,155c6.9-8.2,12.6-16.6,16.6-24.1c2.1-3.9,3.7-7.7,4.8-11.1c1.2-3.6,1.8-6.8,1.8-9.7c0-3.6-0.9-6.6-2.8-9.2 c-1.8-2.3-4.4-4.4-8-6.2c5.4-6.2,6.6-10.8,6.6-16.2c0-3.8-1.5-7.7-4.5-11.4c-2.7-3.3-6.6-6.6-11.6-9.8 c-7.4-4.7-16.6-8.6-27.2-11.6c-7.4-2-15.1-3.2-22.9-3.5c0,0,0,0,0,0c0,0,0,0,0,0c0,0,0,0,0,0c0,0,0,0,0,0c0,0,0,0,0,0 c0,0,0,0,0,0c0,0,0,0,0,0c0,0,0,0,0,0c0,0,0,0,0,0c0,0,0,0,0,0c0,0,0,0,0,0c0,0,0,0,0,0c0,0,0,0,0,0c-0.1,0-0.1,0.1-0.2,0.2 c0,0,0,0,0,0c0,0,0,0,0,0l-4,9.4c0,0.1,0,0.1,0,0.2l2.5,141.1c0,0.2,0.1,0.3,0.2,0.4l1.6,1.1c0,0,0.1,0,0.1,0.1c0,0,0,0,0,0 c0,0,0,0,0.1,0c0,0,0,0,0,0c0,0,0,0,0.1,0c0,0,0,0,0,0c0,0,0,0,0.1,0c0,0,0,0,0,0c0,0,0,0,0,0c0,0,0,0,0,0c0,0,0,0,0.1,0 c0,0,0,0,0,0c0,0,0,0,0,0c0,0,0,0,0,0c0,0,0,0,0,0c0,0,0,0,0,0c0,0,0,0,0,0c0,0,0,0,0,0c3.9-2,8-4.5,12.2-7.4 c4-2.8,8.1-6,12.2-9.5C242.5,171.1,250.3,163.2,257.1,155z M209.4,187.2l-0.6-0.4l0-1.1l0.6,0.5V187.2z M208.8,188l0.6,0.4v1.1 l-0.6-0.4L208.8,188z M206.4,52.2l3-6.9v139.5l-0.6-0.5c0,0,0,0,0,0L206.4,52.2z M208.8,190.4l0.6,0.4v2.5l-0.5-0.4L208.8,190.4 z M221.7,186.5c-3.9,2.7-7.7,5-11.3,7V43.3c7.5,0.4,14.9,1.5,22.1,3.4c10.5,2.9,19.6,6.8,26.9,11.5 c10.4,6.6,15.6,13.4,15.6,20.3c0,3.1-0.4,5.4-1.3,7.7c-1,2.7-2.8,5.3-5.5,8.3c-0.1,0.1-0.2,0.3-0.1,0.5s0.1,0.3,0.3,0.4 c3.8,1.8,6.5,3.8,8.2,6.2c1.8,2.4,2.7,5.2,2.6,8.5c0,2.7-0.6,5.9-1.7,9.4c-1.1,3.4-2.7,7-4.7,10.9c-4,7.5-9.7,15.8-16.5,23.9 c-6.8,8.1-14.5,16-22.4,22.8C229.8,180.6,225.7,183.7,221.7,186.5z"></path> <path d="M195.6,42.6C195.6,42.6,195.6,42.6,195.6,42.6C195.6,42.6,195.6,42.6,195.6,42.6C195.6,42.5,195.6,42.5,195.6,42.6 C195.6,42.5,195.6,42.5,195.6,42.6C195.6,42.5,195.5,42.5,195.6,42.6c-0.1-0.1-0.1-0.1-0.1-0.1c0,0,0,0,0,0c0,0,0,0,0,0 c0,0,0,0,0,0c0,0,0,0,0,0c0,0,0,0,0,0c0,0,0,0,0,0c0,0,0,0,0,0c0,0,0,0,0,0c0,0,0,0,0,0c0,0,0,0,0,0c0,0,0,0,0,0c0,0,0,0,0,0 c0,0,0,0,0,0c0,0,0,0,0,0c0,0,0,0,0,0c0,0,0,0,0,0c0,0,0,0,0,0c0,0,0,0,0,0c0,0,0,0,0,0c0,0,0,0,0,0c0,0,0,0,0,0c0,0,0,0,0,0 c0,0,0,0,0,0c-5.4,0.5-10.7,1.5-16.2,2.8c-0.2,0.1-0.4,0.3-0.4,0.5l0.6,77.1c-2.9-8.4-5.4-17.7-7.3-27.8 c-2.1-10.8-3.5-22.2-4.2-33.8c0-0.1,0-0.2-0.1-0.3l-6.1-9.1c0,0,0,0,0,0c0,0,0,0,0,0c0,0,0,0,0,0c0,0,0,0,0,0c0,0,0,0,0,0 c0,0,0,0,0,0c0,0,0,0,0,0c0,0,0,0,0,0c0,0,0,0,0,0c0,0,0,0,0,0c0,0,0,0,0,0c0,0,0,0,0,0c0,0,0,0,0,0c0,0,0,0-0.1,0c0,0,0,0,0,0 c0,0,0,0,0,0c0,0,0,0,0,0c0,0,0,0,0,0c0,0,0,0,0,0c0,0,0,0,0,0c0,0,0,0,0,0c0,0,0,0-0.1,0c0,0,0,0,0,0c0,0,0,0,0,0c0,0,0,0,0,0 c-5.4,2.4-10.7,5.3-15.7,8.5c-0.2,0.1-0.3,0.3-0.2,0.5c1.1,14.9,2.9,28.4,5.5,41.3c2.6,12.9,6,24.9,10.2,36.6 c-2.8-3.9-5.3-8.2-7.7-12.6c-2.5-4.6-4.8-9.6-6.9-14.8c-4.1-10.1-7.4-21.2-10.3-34c0-0.2-0.1-0.3-0.3-0.4l-6.9-3.6c0,0,0,0,0,0 c0,0,0,0,0,0c0,0,0,0,0,0c0,0,0,0,0,0c0,0,0,0,0,0c0,0-0.1,0-0.1,0c0,0,0,0,0,0c0,0,0,0,0,0c0,0,0,0,0,0c0,0,0,0-0.1,0 c0,0,0,0,0,0c0,0,0,0-0.1,0c0,0,0,0,0,0c0,0,0,0,0,0c0,0,0,0,0,0c0,0,0,0-0.1,0c0,0,0,0,0,0c0,0,0,0,0,0c0,0,0,0,0,0 c-4.3,3.9-8.4,8.1-12.3,12.6c-0.1,0.1-0.2,0.3-0.1,0.5c2,8.1,4.2,15.8,6.8,23c2.5,7.2,5.4,14,8.6,20.4c3.1,6.3,6.7,12.4,10.5,18 c3.8,5.6,8,11,12.5,16c0.2,0.2,0.4,0.2,0.7,0.1l13.4-8c6.8,14.1,16.3,27.9,26.8,39.1c0,0,0,0,0,0c0,0,0,0,0,0c0,0,0,0,0,0 c0,0,0,0,0,0c0,0,0,0,0,0c0,0,0,0,0,0c0,0,0,0,0,0c0,0,0,0,0,0c0,0,0,0,0,0c0,0,0,0,0,0c0,0,0,0,0,0c0,0,0,0,0,0c0,0,0,0,0,0 c0,0,0,0,0.1,0c0,0,0,0,0,0c0,0,0,0,0,0c0,0,0,0,0,0c0,0,0,0,0,0c0,0,0,0,0,0c0,0,0,0,0,0c0,0,0,0,0,0c0,0,0,0,0,0c0,0,0,0,0,0 c0,0,0,0,0,0c0,0,0,0,0,0c0,0,0,0,0,0c0,0,0,0,0,0c0,0,0,0,0,0c0,0,0,0,0,0c0,0,0,0,0,0c0,0,0,0,0,0c0,0,0,0,0,0l1.6-1.1 c0.1-0.1,0.2-0.2,0.2-0.4l2.5-141.1c0-0.1,0-0.1,0-0.2L195.6,42.6z M195.6,188.5C195.7,188.5,195.7,188.5,195.6,188.5l0.6-0.4 l0,1.1l-0.6,0.4V188.5z M196.3,186.8l-0.6,0.4v-1c0,0,0,0,0.1,0l0.6-0.4L196.3,186.8z M179.2,140.7c-0.5-1.4-1.1-2.8-1.6-4.3 l1.6-0.4L179.2,140.7z M176.8,134.2l2.4-0.6l0,1.4l-1.9,0.5C177.1,135,177,134.6,176.8,134.2z M179.2,132.5l-2.7,0.7 c-0.2-0.5-0.3-1-0.5-1.5l3.2-0.8L179.2,132.5z M170.8,95.2c2.1,11.2,5,21.6,8.4,30.7l0,3.9l-3.5,0.9c-3.2-9.7-5.9-20.2-8.2-31.5 c-2.9-14.4-4.8-29.6-5.8-45.2l5,7.4C167.3,73,168.7,84.4,170.8,95.2z M157.9,136.3l-3.4,2.2c-0.2-0.3-0.4-0.7-0.7-1l3.4-2.2 C157.5,135.7,157.7,136,157.9,136.3z M158.5,137.2c0.2,0.3,0.4,0.6,0.6,0.9l-3.4,2.2c-0.2-0.3-0.4-0.6-0.6-0.9L158.5,137.2z M159.7,139c0.1,0.2,0.2,0.3,0.3,0.4l-3.5,2c-0.1-0.1-0.1-0.2-0.2-0.3L159.7,139z M145,111.4c2.1,5.3,4.5,10.3,7,15 c0.8,1.6,1.7,3.1,2.6,4.6l-1,0.7c-0.2,0.2-0.3,0.5-0.2,0.7c0.1,0.2,0.3,0.2,0.4,0.2c0.1,0,0.2,0,0.3-0.1l1-0.6 c0.2,0.3,0.4,0.6,0.5,0.9l-2,1.3c-0.2,0.2-0.3,0.5-0.2,0.7c0.1,0.2,0.3,0.2,0.4,0.2c0.1,0,0.2,0,0.3-0.1l2-1.3 c0.2,0.3,0.3,0.5,0.5,0.8l-3.4,2.2c-2-3.1-3.9-6.3-5.6-9.5c-2.7-5.1-5.3-10.6-7.6-16.3c-4.4-10.8-8-22.7-11-36.3l5.7,3 C137.5,90.2,140.9,101.3,145,111.4z M194.6,193c-10.2-11-19.3-24.6-25.9-38.4c-0.1-0.1-0.2-0.2-0.3-0.3c0,0-0.1,0-0.2,0 c-0.1,0-0.2,0-0.3,0.1l-13.6,8.1c-4.4-4.9-8.5-10.1-12.2-15.6c-3.8-5.6-7.3-11.6-10.4-17.9c-3.1-6.3-6-13.1-8.5-20.2 c-2.5-7-4.7-14.7-6.7-22.6c3.6-4.1,7.4-8.1,11.4-11.7c3.1,13.7,6.7,25.7,11.1,36.6c2.3,5.8,4.9,11.3,7.7,16.4 c2.8,5.2,5.9,10.3,9.2,14.9c0.2,0.2,0.5,0.3,0.7,0.1l4.4-2.5l0.7-0.4c0.2-0.1,0.3-0.4,0.2-0.6c-4.4-12-7.9-24.2-10.6-37.4 c-2.6-12.7-4.4-26.1-5.5-40.8c4.7-3,9.6-5.6,14.6-7.9c1,16.1,3,31.7,5.9,46.5c3.1,15.7,7.2,30,12.2,42.5 c0.1,0.1,0.2,0.3,0.3,0.3c0.1,0.1,0.3,0,0.4,0l0.7-0.4c0.2-0.1,0.3-0.3,0.3-0.5l-0.1-10.9c0.1-0.1,0.1-0.3,0.1-0.4 c0-0.1,0-0.1-0.1-0.2l0-4.1L179.6,46c5-1.3,10-2.1,15-2.7V193z M195.6,193.3v-2.4c0,0,0,0,0.1,0l0.5-0.4l0,2.4L195.6,193.3z M196.3,184.4l-0.7,0.5V45.3l3,6.9L196.3,184.4z"></path> <path d="M206.3,209.5c-0.3,0-0.5,0.2-0.5,0.5v4c0,0.3,0.2,0.5,0.5,0.5c0.3,0,0.5-0.2,0.5-0.5v-4 C206.9,209.7,206.6,209.5,206.3,209.5z"></path> <path d="M208,209.2c-0.3,0-0.5,0.2-0.5,0.5v3c0,0.3,0.2,0.5,0.5,0.5c0.3,0,0.5-0.2,0.5-0.5v-3 C208.6,209.4,208.3,209.2,208,209.2z"></path> <path d="M209.8,209.5c-0.3,0-0.5,0.2-0.5,0.5v1.7c0,0.3,0.2,0.5,0.5,0.5c0.3,0,0.5-0.2,0.5-0.5V210 C210.4,209.7,210.1,209.5,209.8,209.5z"></path> <path d="M261.7,40.4c0.1,0.1,0.2,0.1,0.4,0.1c0.1,0,0.3-0.1,0.4-0.2l4.1-4.4c0.2-0.2,0.2-0.5,0-0.7c-0.2-0.2-0.5-0.2-0.7,0 l-4.1,4.4C261.4,39.9,261.5,40.2,261.7,40.4z"></path> <path d="M260,39c0.1,0.1,0.2,0.1,0.4,0.1c0.1,0,0.3-0.1,0.4-0.2l3.3-3.6c0.2-0.2,0.2-0.5,0-0.7c-0.2-0.2-0.5-0.2-0.7,0l-3.3,3.6 C259.8,38.4,259.8,38.8,260,39z"></path> <path d="M258.4,37.5c0.1,0.1,0.2,0.1,0.4,0.1c0.1,0,0.3-0.1,0.4-0.2l2.3-2.5c0.2-0.2,0.2-0.5,0-0.7c-0.2-0.2-0.5-0.2-0.7,0 l-2.3,2.5C258.2,36.9,258.2,37.3,258.4,37.5z"></path> <path d="M196.1,18.9c-0.3,0-0.5,0.2-0.5,0.5v4.2c0,0.3,0.2,0.5,0.5,0.5c0.3,0,0.5-0.2,0.5-0.5v-4.2 C196.6,19.2,196.4,18.9,196.1,18.9z"></path> <path d="M193.9,19.7c-0.3,0-0.5,0.2-0.5,0.5v2.7c0,0.3,0.2,0.5,0.5,0.5c0.3,0,0.5-0.2,0.5-0.5v-2.7 C194.5,19.9,194.2,19.7,193.9,19.7z"></path> <path d="M134.8,48.2l-3.9-4.3c-0.2-0.2-0.5-0.2-0.7,0c-0.2,0.2-0.2,0.5,0,0.7l3.9,4.3c0.1,0.1,0.2,0.2,0.4,0.2 c0.1,0,0.3,0,0.4-0.1C135,48.7,135,48.4,134.8,48.2z"></path> <path d="M131.5,47.1c-0.2-0.2-0.5-0.2-0.7,0c-0.2,0.2-0.2,0.5,0,0.7l2.7,3c0.1,0.1,0.2,0.2,0.4,0.2c0.1,0,0.3,0,0.4-0.1 c0.2-0.2,0.2-0.5,0-0.7L131.5,47.1z"></path> <path d="M119.9,66.6l-4.3-2.9c-0.2-0.2-0.6-0.1-0.7,0.1c-0.2,0.2-0.1,0.6,0.1,0.7l4.3,2.9c0.1,0.1,0.2,0.1,0.3,0.1 c0.2,0,0.3-0.1,0.4-0.2C120.2,67.1,120.1,66.7,119.9,66.6z"></path> <path d="M118.9,68.1l-2.4-1.6c-0.2-0.2-0.6-0.1-0.7,0.1c-0.2,0.2-0.1,0.6,0.1,0.7l2.4,1.6c0.1,0.1,0.2,0.1,0.3,0.1 c0.2,0,0.3-0.1,0.4-0.2C119.2,68.6,119.2,68.3,118.9,68.1z"></path> <path d="M106.1,85.6l-5.4-2c-0.3-0.1-0.6,0-0.7,0.3c-0.1,0.3,0,0.6,0.3,0.7l5.4,2c0.1,0,0.1,0,0.2,0c0.2,0,0.4-0.1,0.5-0.3 C106.5,86,106.3,85.7,106.1,85.6z"></path> <path d="M105.5,87.6l-4.3-1.6c-0.3-0.1-0.6,0-0.7,0.3c-0.1,0.3,0,0.6,0.3,0.7l4.3,1.6c0.1,0,0.1,0,0.2,0c0.2,0,0.4-0.1,0.5-0.3 C105.9,88,105.8,87.7,105.5,87.6z"></path> <path d="M105.1,89.4l-3.4-1.3c-0.3-0.1-0.6,0-0.7,0.3c-0.1,0.3,0,0.6,0.3,0.7l3.4,1.3c0.1,0,0.1,0,0.2,0c0.2,0,0.4-0.1,0.5-0.3 C105.5,89.8,105.4,89.5,105.1,89.4z"></path> <path d="M104.5,91.2l-2.4-0.9c-0.3-0.1-0.6,0-0.7,0.3c-0.1,0.3,0,0.6,0.3,0.7l2.4,0.9c0.1,0,0.1,0,0.2,0c0.2,0,0.4-0.1,0.5-0.3 C104.9,91.6,104.8,91.3,104.5,91.2z"></path> </g> </g> <g> <g> <path class="st5" d="M73.8,269.5c0-5.1-4.6-7.2-10.5-7.2h-6.4v26.6H62v-6.4c0.8-0.6,2.3-1.6,3.8-2.6l4.4,8.9h5.4l-5.8-12.1 C72,274.8,73.8,272.3,73.8,269.5z M62,276.8v-9.9c0.6,0,1.9,0,2.4,0c2.9,0,4.2,1.2,4.2,3C68.6,273.7,62,276.8,62,276.8z"></path> <path class="st5" d="M139.8,269.5c0-5.1-4.6-7.2-10.5-7.2h-6.4v26.6h5.1v-6.4c0.8-0.6,2.3-1.6,3.8-2.6l4.4,8.9h5.4l-5.8-12.1 C138,274.8,139.8,272.3,139.8,269.5z M128,276.8v-9.9c0.6,0,1.9,0,2.4,0c2.9,0,4.2,1.2,4.2,3C134.6,273.7,128,276.8,128,276.8z"></path> <path class="st5" d="M190.5,269.5c0-5.1-4.6-7.2-10.5-7.2h-6.4v26.6h5.1v-6.4c0.8-0.6,2.3-1.6,3.8-2.6l4.4,8.9h5.4l-5.8-12.1 C188.7,274.8,190.5,272.3,190.5,269.5z M178.7,276.8v-9.9c0.6,0,1.9,0,2.4,0c2.9,0,4.2,1.2,4.2,3 C185.3,273.7,178.7,276.8,178.7,276.8z"></path> <polygon class="st5" points="27.2,288.9 33.9,262.3 28.8,262.3 24.8,280.6 24.6,280.6 20.4,262.3 16.1,262.3 11.9,280.6 11.7,280.6 7.8,262.3 2.5,262.3 9.2,288.9 14.1,288.9 18.2,271.4 18.3,271.4 22.4,288.9 "></polygon> <path class="st5" d="M40.6,262.3l-8,26.6H38l1.6-6.1h7.5l1.6,6.1h5.4l-7.9-26.6H40.6z M40.6,278.9l2.7-10.5h0.1l2.7,10.5H40.6z"></path> <polygon class="st5" points="92.6,278.5 82.6,262.3 78.3,262.3 78.3,288.9 83.5,288.9 83.5,272.8 83.6,272.8 93.6,288.9 97.9,288.9 97.9,262.3 92.8,262.3 92.8,278.5 "></polygon> <polygon class="st5" points="119,284.2 108.4,284.2 108.4,277.5 116.4,277.5 116.4,273.2 108.4,273.2 108.4,267.1 118.6,267.1 118.6,262.3 103.2,262.3 103.2,288.9 119,288.9 "></polygon> <path class="st5" d="M203.4,289.5c6.8,0,10.1-6.5,10.1-13.9c0-7.4-3.2-13.9-10.1-13.9c-6.8,0-10.1,6.5-10.1,13.9 C193.4,283,196.6,289.5,203.4,289.5z M203.4,266.5c3.8,0,4.9,4.6,4.9,9.1c0,4.5-1.1,9.1-4.9,9.1c-3.8,0-4.9-4.6-4.9-9.1 C198.5,271.1,199.6,266.5,203.4,266.5z"></path> <path class="st5" d="M225.3,273.5c-2.1-1.3-4.2-2.3-4.2-4.6c0-1.5,1.4-2.7,2.9-2.7c1.7,0,3.4,1.1,4,2.1l3.2-3 c-1.5-2.1-4.2-3.6-7.4-3.6c-4.8,0-7.8,2.9-7.8,7.2c0,4.8,3.4,6.8,6.2,8.4c2.2,1.3,4.3,2.2,4.3,4.5c0,1.9-1.7,3-3.6,3 c-1.9,0-3.8-1.1-5-2.9l-3,3c1.7,2.7,5.2,4.4,8.2,4.4c4.8,0,8.6-3,8.6-7.6C231.6,277.1,228.1,275.2,225.3,273.5z"></path> <path class="st5" d="M236.6,283.6c-1.7,0-2.9,1.3-2.9,2.9s1.1,2.9,2.9,2.9c1.7,0,2.9-1.3,2.9-2.9S238.3,283.6,236.6,283.6z"></path> <g> <path class="st5" d="M165.8,273.3c1.4-1.5,2.3-3.2,2.3-5.1c0-3.8-3.3-5.8-7.9-5.8H152v26.6h5.1c8.4-0.2,12.7-3.6,12.7-8.8 C169.8,276.4,166.6,273.9,165.8,273.3z M157.1,266.8c0.6,0,1.8,0,2.5,0c2.4,0,3.6,0.6,3.6,2c0,2.4-5,4.5-6.1,5V266.8z M157.1,284.2v-5.5c1.7-0.7,3.5-1.5,5.2-2.6c0.8,0.5,2.6,1.9,2.6,3.9C165,282.6,162.6,284.1,157.1,284.2z"></path> </g> </g> <g> <polygon class="st5" points="384,284.2 373.4,284.2 373.4,277.5 381.4,277.5 381.4,273.2 373.4,273.2 373.4,267.1 383.6,267.1 383.6,262.3 368.2,262.3 368.2,288.9 384,288.9 "></polygon> <path class="st5" d="M396.2,273.5c-2.1-1.3-4.2-2.3-4.2-4.6c0-1.5,1.4-2.7,2.9-2.7c1.7,0,3.4,1.1,4,2.1l3.2-3 c-1.5-2.1-4.2-3.6-7.4-3.6c-4.8,0-7.8,2.9-7.8,7.2c0,4.8,3.4,6.8,6.2,8.4c2.2,1.3,4.3,2.2,4.3,4.5c0,1.9-1.7,3-3.6,3 c-1.9,0-3.8-1.1-5-2.9l-3,3c1.7,2.7,5.2,4.4,8.2,4.4c4.8,0,8.6-3,8.6-7.6C402.5,277.1,398.9,275.2,396.2,273.5z"></path> <path class="st5" d="M271,262.3h5.1v26.6H271V262.3z"></path> <path class="st5" d="M280.3,275.6c0-8,4.6-13.9,11.4-13.9c4.2,0,7.3,2.1,9.3,5.3l-3.5,2.9c-0.8-1.5-2.7-3.4-5.6-3.4 c-4.2,0-6.5,4-6.5,9.1c0,5.1,2.3,9.1,6.5,9.1c2.9,0,4.8-1.9,5.6-3.4l3.5,2.9c-2,3.2-5.1,5.3-9.3,5.3 C284.9,289.5,280.3,283.6,280.3,275.6z"></path> <path class="st5" d="M308.9,267.1H303v-4.8h16.9v4.8H314v21.9h-5.1V267.1z"></path> <path class="st5" d="M323,279.8v-17.5h5.1v17.5c0,2.9,1.7,4.9,4.2,4.9c2.5,0,4.2-2.1,4.2-4.9v-17.5h5.1v17.5 c0,5.5-4,9.7-9.3,9.7C326.9,289.5,323,285.3,323,279.8z"></path> <path class="st5" d="M256.7,262.3h-7v26.6h5.1v-7.8c3.3-1.4,12.4-4.7,12.4-11.7C267.2,264.1,262.6,262.3,256.7,262.3z M254.9,275.7v-8.9h3c2.9,0,4.2,1.2,4.2,3C262.1,273.2,256.4,275.2,254.9,275.7z"></path> <path class="st5" d="M362.6,269.5c0-5.1-4.6-7.2-10.5-7.2h-6.4v26.6h5.1v-6.4c0.8-0.6,2.3-1.6,3.8-2.6l4.4,8.9h5.4l-5.8-12.1 C360.8,274.8,362.6,272.3,362.6,269.5z M350.8,276.8v-9.9c0.6,0,1.9,0,2.4,0c2.9,0,4.2,1.2,4.2,3 C357.5,273.7,350.8,276.8,350.8,276.8z"></path> </g> </g> <g> <path class="st5" d="M98.6,305.5l-10.1,33.6h6.8l2.1-7.7h9.4l2.1,7.7h6.8l-9.9-33.6H98.6z M98.6,326.4l3.4-13.2h0.1l3.5,13.2 H98.6z"></path> <path class="st5" d="M205.7,305.5l-10.1,33.6h6.8l2.1-7.7h9.4l2.1,7.7h6.8l-9.9-33.6H205.7z M205.7,326.4l3.4-13.2h0.1l3.5,13.2 H205.7z"></path> <polygon class="st5" points="136.9,325.9 124.4,305.5 118.9,305.5 118.9,339.1 125.4,339.1 125.4,318.7 125.7,318.7 138.2,339.1 143.6,339.1 143.6,305.5 137.2,305.5 137.2,325.9 "></polygon> <polygon class="st5" points="309.8,325.9 297.2,305.5 291.8,305.5 291.8,339.1 298.3,339.1 298.3,318.7 298.5,318.7 311.1,339.1 316.5,339.1 316.5,305.5 310,305.5 310,325.9 "></polygon> <path class="st5" d="M273.4,339.8c8.6,0,12.7-8.2,12.7-17.5c0-9.3-4-17.5-12.7-17.5s-12.7,8.2-12.7,17.5 C260.7,331.7,264.7,339.8,273.4,339.8z M273.4,310.8c4.8,0,6.2,5.8,6.2,11.5c0,5.7-1.4,11.5-6.2,11.5c-4.8,0-6.2-5.8-6.2-11.5 C267.2,316.7,268.6,310.8,273.4,310.8z"></path> <path class="st5" d="M150.3,305.5h6.5v33.6h-6.5V305.5z"></path> <path class="st5" d="M248.5,305.5h6.5v33.6h-6.5V305.5z"></path> <path class="st5" d="M229.6,311.5h-7.4v-6h21.3v6h-7.4v27.6h-6.5V311.5z"></path> <path class="st5" d="M163.5,305.5h5.6l8.8,14.5h0.1l8.8-14.5h5.5v33.6h-6.5v-21.2h-0.1l-7.8,12.8l-7.8-12.8H170v21.2h-6.5V305.5z "></path> </g> </g> </g> </svg> 